<?xml version="1.0" encoding="UTF-8"?>
<svg id="Layer_2" data-name="Layer 2" xmlns="http://www.w3.org/2000/svg" viewBox="0 0 32.83 8.91">
  <defs>
    <style>
      .cls-1 {
        fill: #ede6e8;
      }
    </style>
  </defs>
  <g id="Layer_1-2" data-name="Layer 1">
    <g>
      <path class="cls-1" d="M.45,8.81c-.11-.04-.21-.12-.28-.23s-.11-.27-.13-.47c0-.19-.02-.62-.03-1.31s-.02-1.41-.02-2.17C0,2.48.02,1.18.05.74c.02-.2.07-.35.13-.45S.34.11.45.06s.27-.06.46-.06.35.02.47.06.22.12.29.23.11.28.13.49v2.51c.31-.52.67-.88,1.07-1.08s.82-.29,1.26-.29c.64,0,1.15.2,1.54.59s.6.95.64,1.66c0,.2,0,.75-.05,1.68-.02.69-.03,1.2-.04,1.54,0,.06.03.12.05.18s.06.11.1.16c.04.05.07.1.1.15s.04.12.04.19c0,.12-.07.24-.21.38s-.31.24-.52.33-.4.13-.57.13-.34-.06-.48-.19-.23-.37-.28-.73c-.02-.15-.02-.89,0-2.24,0-.34,0-.64,0-.9s0-.44,0-.57c-.02-.25-.09-.47-.23-.67s-.37-.29-.7-.29c-.23,0-.47.07-.74.22s-.5.34-.69.59-.29.52-.29.81c0,.49,0,1.05,0,1.68s0,1.12-.02,1.5c-.02.21-.06.37-.12.49s-.16.19-.29.23-.29.06-.5.07c-.18,0-.33-.02-.44-.06Z"/>
      <path class="cls-1" d="M8.37,8.02c-.61-.59-.91-1.44-.91-2.56,0-.75.14-1.39.41-1.93s.67-.95,1.2-1.23,1.14-.43,1.86-.43,1.3.14,1.8.43.9.7,1.17,1.23.41,1.17.41,1.92c0,1.12-.29,1.97-.88,2.57s-1.41.89-2.46.89c-1.12,0-1.99-.29-2.6-.88ZM12.12,6.84c.3-.36.45-.85.45-1.49s-.15-1.1-.45-1.45-.7-.53-1.19-.53c-.55,0-.98.17-1.28.52s-.45.83-.45,1.46.15,1.15.45,1.5.73.53,1.28.53c.49,0,.89-.18,1.19-.53Z"/>
      <path class="cls-1" d="M23.89,8.66c-.12-.15-.21-.36-.25-.63,0-.03,0-.07-.02-.13,0-.09-.01-.43-.02-1.01s0-1.1,0-1.57v-.62c0-.49-.07-.83-.21-1.03s-.31-.29-.52-.31c-.28-.03-.54.03-.77.18s-.42.35-.56.59-.21.46-.21.67v1.25c.02,1.18.02,1.88,0,2.1-.02.17-.06.3-.13.39s-.17.14-.29.17-.3.04-.54.04c-.19,0-.33-.01-.44-.04s-.19-.08-.25-.17-.1-.21-.12-.39c-.04-.33-.05-1.36-.04-3.08v-.33c0-.46-.07-.8-.18-1.03s-.3-.36-.59-.39c-.27-.03-.51.03-.72.18s-.39.35-.52.59-.19.48-.19.71c-.02.61-.02,1.39-.01,2.36,0,.55,0,.89-.01,1.02-.02.16-.06.29-.12.38s-.16.14-.27.18-.27.05-.47.05-.36-.02-.48-.05-.21-.09-.28-.18-.11-.21-.12-.38c-.05-.45-.08-1.36-.08-2.71s.03-2.35.08-2.97c.02-.2.08-.35.19-.45s.3-.14.57-.13c.22,0,.38.04.49.1s.2.18.28.38.15.49.21.91c.2-.4.44-.73.73-1s.7-.4,1.22-.4c.47,0,.88.1,1.23.33s.62.62.81,1.18c.13-.3.28-.55.45-.76s.38-.39.63-.53.53-.22.84-.22c.51,0,.92.09,1.24.28s.55.48.71.87.24.9.26,1.51c0,.24,0,.61-.02,1.1l-.02,1.25c0,.07,0,.13.02.17s.03.1.05.16c.02.2.03.34.05.4.02.06.05.14.09.25.04.13.03.25-.04.36-.09.16-.25.3-.48.43s-.46.19-.67.19c-.23,0-.4-.07-.52-.22Z"/>
      <path class="cls-1" d="M27.44,7.99c-.54-.59-.82-1.45-.83-2.58,0-.57.1-1.12.29-1.65s.54-.98,1.04-1.34,1.18-.54,2.05-.54c.61,0,1.13.11,1.56.33s.75.51.97.88.32.77.32,1.21c0,.38-.06.71-.18,1.01-.09.21-.35.37-.8.47s-.92.16-1.41.16c-.38,0-.78-.02-1.19-.06s-.72-.08-.92-.13c.03,1.18.59,1.77,1.66,1.76.32,0,.62-.06.9-.15s.57-.21.86-.36c.08-.03.15-.06.22-.09s.12-.05.16-.05c.1,0,.2.04.3.13s.18.2.25.33c.1.19.14.36.11.52s-.15.31-.35.44c-.38.23-.77.39-1.15.49s-.82.15-1.31.14c-1.15-.02-1.99-.32-2.54-.91ZM29.19,4.93c.42.04.84.04,1.27.02s.72-.07.89-.15c.03-.5-.08-.88-.33-1.15s-.6-.4-1.04-.4c-.31,0-.58.04-.79.13s-.39.25-.53.47-.23.53-.27.93c.12.05.39.1.81.13Z"/>
    </g>
  </g>
</svg>