<?xml version="1.0" encoding="UTF-8"?>
<svg id="Layer_2" data-name="Layer 2" xmlns="http://www.w3.org/2000/svg" viewBox="0 0 31.65 12.22">
  <defs>
    <style>
      .cls-1 {
        fill: #ede6e8;
      }
    </style>
  </defs>
  <g id="Layer_1-2" data-name="Layer 1">
    <g>
      <path class="cls-1" d="M.68,8.14C.19,7.28-.03,6.13,0,4.71c.03-1.28.31-2.33.84-3.15S2.18.35,3.24.36c.45,0,.83.14,1.13.39s.52.56.65.93.19.73.16,1.09c-.02.62-.2,1.15-.53,1.61s-.74.82-1.24,1.08-1.02.43-1.57.5c.08.52.23.98.45,1.38s.56.61,1.01.62c.45,0,.77-.08.96-.28s.35-.42.47-.69c.02-.05.04-.09.06-.12s.04-.05.05-.06c.16-.02.28.04.36.2s.12.38.11.67c0,.34-.12.65-.35.91s-.5.47-.84.62-.69.22-1.06.22c-1.1,0-1.9-.43-2.39-1.3ZM2.76,4.45c.31-.19.57-.43.77-.72s.31-.6.32-.93c0-.34-.05-.61-.18-.8s-.29-.29-.5-.29c-.31,0-.57.17-.79.51s-.37.75-.46,1.24-.14.94-.13,1.34c.34-.05.66-.16.97-.35Z"/>
      <path class="cls-1" d="M6.95,8.56c-.61-.59-.91-1.44-.91-2.56,0-.75.14-1.39.41-1.93s.67-.95,1.2-1.23,1.14-.43,1.86-.43,1.3.14,1.8.43.9.7,1.17,1.23.41,1.17.41,1.92c0,1.12-.29,1.97-.88,2.57s-1.41.89-2.46.89c-1.12,0-1.99-.29-2.6-.88ZM10.69,7.38c.3-.36.45-.85.45-1.49s-.15-1.1-.45-1.45-.7-.53-1.19-.53c-.55,0-.98.17-1.28.52s-.45.83-.45,1.46.15,1.15.45,1.5.73.53,1.28.53c.49,0,.89-.18,1.19-.53Z"/>
      <path class="cls-1" d="M15.72,12.11c-.38-.09-.7-.23-.97-.4-.2-.13-.33-.28-.37-.43s-.01-.33.09-.52c.1-.21.21-.35.32-.4s.25-.05.42.03c.49.3,1.02.44,1.59.44s1.04-.2,1.43-.58.58-.95.57-1.71c-.23.27-.53.48-.88.63s-.74.23-1.17.23c-.62,0-1.15-.14-1.59-.43s-.78-.68-1.01-1.17-.36-1.05-.38-1.66c-.02-.59.07-1.15.27-1.7s.52-1,.98-1.36,1.05-.54,1.78-.54c.35,0,.7.07,1.03.2s.61.32.83.56c.1-.26.22-.44.37-.54s.3-.15.46-.15c.33,0,.56.04.7.12s.22.25.24.51c.08.96.11,2.57.09,4.84v.63c0,.46-.09.94-.26,1.44s-.53.96-1.06,1.39-1.28.65-2.25.67c-.44.02-.84-.01-1.22-.11ZM18.44,7.43c.24-.35.36-.85.35-1.49,0-.58-.16-1.04-.45-1.4s-.68-.53-1.16-.53c-.59,0-1.02.19-1.27.57s-.38.83-.38,1.35c0,.61.13,1.1.39,1.47s.68.56,1.26.56,1.01-.18,1.25-.53Z"/>
      <path class="cls-1" d="M21.94,1.59c-.18-.19-.27-.42-.27-.69s.09-.48.27-.65.43-.25.74-.25.53.08.7.24.26.38.27.66c0,.27-.09.49-.27.69s-.41.29-.7.29c-.31,0-.56-.09-.74-.28ZM22.25,9.25c-.13-.09-.24-.22-.32-.4s-.13-.41-.14-.69c-.04-.51-.06-1.32-.06-2.43s.02-2.03.06-2.74c.02-.2.1-.34.23-.42s.35-.11.66-.11c.23,0,.41.02.53.05s.21.1.27.2.09.25.09.45c.02.55.02,1.42,0,2.62,0,.44-.01.84-.01,1.21s0,.66.02.88c0,.11.05.21.14.32.02.04.04.06.05.07.04.08.06.16.06.24s-.03.17-.08.26c-.09.15-.24.29-.46.42s-.43.19-.62.19c-.15,0-.29-.04-.42-.13Z"/>
      <path class="cls-1" d="M25.53,9.31c-.11-.03-.2-.08-.26-.17s-.11-.22-.13-.4c-.04-.28-.06-1.15-.06-2.61s.02-2.46.06-3.02c.02-.21.08-.38.18-.49s.3-.18.58-.18c.26,0,.44.03.56.09s.2.18.26.36.13.5.21.95c.32-.52.68-.89,1.08-1.1s.81-.31,1.24-.31.77.08,1.1.25.58.4.77.72.29.69.3,1.13c.02.12,0,.71-.02,1.78,0,.29-.01.55-.02.79s0,.48,0,.73c0,.06.01.12.04.18s.06.11.1.16c.05.07.08.13.11.17s.04.1.04.17c0,.12-.07.24-.2.37s-.29.24-.49.33-.36.13-.51.13c-.23,0-.44-.1-.6-.31s-.26-.51-.29-.92c0-.29,0-.81,0-1.56,0-.38,0-.71.01-1.02s0-.53,0-.68c-.02-.28-.09-.52-.22-.73s-.37-.3-.7-.3c-.23,0-.49.08-.76.24s-.5.35-.68.58-.28.43-.28.6v1.3c0,1.3-.01,2.03-.04,2.18-.03.17-.08.3-.14.39s-.15.15-.27.18-.29.05-.52.05c-.19,0-.34-.01-.45-.04Z"/>
    </g>
  </g>
</svg>