<?xml version="1.0" encoding="UTF-8"?>
<svg id="Layer_2" data-name="Layer 2" xmlns="http://www.w3.org/2000/svg" viewBox="0 0 41.18 11.86">
  <defs>
    <style>
      .cls-1 {
        fill: #ede6e8;
      }
    </style>
  </defs>
  <g id="Layer_1-2" data-name="Layer 1">
    <g>
      <path class="cls-1" d="M.68,7.78C.19,6.91-.03,5.77,0,4.35c.03-1.28.31-2.33.84-3.15S2.18-.02,3.24,0c.45,0,.83.14,1.13.39s.52.56.65.93.19.73.16,1.09c-.02.62-.2,1.15-.53,1.61s-.74.82-1.24,1.08-1.02.43-1.57.5c.08.52.23.98.45,1.38s.56.61,1.01.62c.45,0,.77-.08.96-.28s.35-.42.47-.69c.02-.05.04-.09.06-.12s.04-.05.05-.06c.16-.02.28.04.36.2s.12.38.11.67c0,.34-.12.65-.35.91s-.5.47-.84.62-.69.22-1.06.22c-1.1,0-1.9-.43-2.39-1.3ZM2.76,4.09c.31-.19.57-.43.77-.72s.31-.6.32-.93c0-.34-.05-.61-.18-.8s-.29-.29-.5-.29c-.31,0-.57.17-.79.51s-.37.75-.46,1.24-.14.94-.13,1.34c.34-.05.66-.16.97-.35Z"/>
      <path class="cls-1" d="M6.95,8.2c-.61-.59-.91-1.44-.91-2.56,0-.75.14-1.39.41-1.93s.67-.95,1.2-1.23,1.14-.43,1.86-.43,1.3.14,1.8.43.9.7,1.17,1.23.41,1.17.41,1.92c0,1.12-.29,1.97-.88,2.57s-1.41.89-2.46.89c-1.12,0-1.99-.29-2.6-.88ZM10.69,7.01c.3-.36.45-.85.45-1.49s-.15-1.1-.45-1.45-.7-.53-1.19-.53c-.55,0-.98.17-1.28.52s-.45.83-.45,1.46.15,1.15.45,1.5.73.53,1.28.53c.49,0,.89-.18,1.19-.53Z"/>
      <path class="cls-1" d="M15.72,11.74c-.38-.09-.7-.23-.97-.4-.2-.13-.33-.28-.37-.43s-.01-.33.09-.52c.1-.21.21-.35.32-.4s.25-.05.42.03c.49.3,1.02.44,1.59.44s1.04-.2,1.43-.58.58-.95.57-1.71c-.23.27-.53.48-.88.63s-.74.23-1.17.23c-.62,0-1.15-.14-1.59-.43s-.78-.68-1.01-1.17-.36-1.05-.38-1.66c-.02-.59.07-1.15.27-1.7s.52-1,.98-1.36,1.05-.54,1.78-.54c.35,0,.7.07,1.03.2s.61.32.83.56c.1-.26.22-.44.37-.54s.3-.15.46-.15c.33,0,.56.04.7.12s.22.25.24.51c.08.96.11,2.57.09,4.84v.63c0,.46-.09.94-.26,1.44s-.53.96-1.06,1.39-1.28.65-2.25.67c-.44.02-.84-.01-1.22-.11ZM18.44,7.07c.24-.35.36-.85.35-1.49,0-.58-.16-1.04-.45-1.4s-.68-.53-1.16-.53c-.59,0-1.02.19-1.27.57s-.38.83-.38,1.35c0,.61.13,1.1.39,1.47s.68.56,1.26.56,1.01-.18,1.25-.53Z"/>
      <path class="cls-1" d="M22.35,8.2c-.61-.59-.91-1.44-.91-2.56,0-.75.14-1.39.41-1.93s.67-.95,1.2-1.23,1.14-.43,1.86-.43,1.3.14,1.8.43.9.7,1.17,1.23.41,1.17.41,1.92c0,1.12-.29,1.97-.88,2.57s-1.41.89-2.46.89c-1.12,0-1.99-.29-2.6-.88ZM26.09,7.01c.3-.36.45-.85.45-1.49s-.15-1.1-.45-1.45-.7-.53-1.19-.53c-.55,0-.98.17-1.28.52s-.45.83-.45,1.46.15,1.15.45,1.5.73.53,1.28.53c.49,0,.89-.18,1.19-.53Z"/>
      <path class="cls-1" d="M29.9,8.4c-.37-.42-.56-1.04-.57-1.84,0-.35-.02-.76-.02-1.23,0-.54,0-1.05,0-1.54s.03-.89.06-1.23c.02-.17.09-.3.22-.38s.33-.12.6-.12c.23,0,.41.02.54.05s.22.1.28.2.1.24.12.44c0,.82,0,1.67-.01,2.54,0,.41,0,.74.01,1.01,0,.22.03.41.06.57s.11.32.23.47.3.23.53.23c.33,0,.61-.04.83-.15s.41-.24.54-.4.29-.38.46-.66c0-.62,0-1.31.01-2.07s.02-1.31.02-1.65c.02-.17.07-.3.13-.39s.15-.14.26-.17.27-.04.47-.04c.22,0,.39.01.5.04s.21.08.28.16.11.21.13.39c.02.31.04.73.04,1.24s0,1.01,0,1.48c0,.71-.01,1.35-.01,1.91,0,.12.01.22.04.3s.05.15.09.22c.03.05.07.1.11.15.04.08.06.17.05.26s-.04.19-.1.26c-.16.2-.38.35-.66.45s-.52.11-.73.04c-.16-.05-.29-.17-.42-.36s-.19-.47-.19-.85c-.25.3-.48.54-.7.72s-.46.33-.73.43-.57.15-.91.14c-.68-.02-1.2-.23-1.57-.66Z"/>
      <path class="cls-1" d="M38.02,8.78c-.29-.18-.49-.43-.62-.73s-.21-.68-.25-1.12c-.02-.37-.03-1.02-.01-1.95,0-.27,0-.6.01-.98h-.19c-.05,0-.11,0-.17,0s-.11-.01-.16-.03c-.09-.02-.15-.09-.21-.21s-.07-.27-.06-.45c0-.23.02-.4.07-.5s.14-.15.27-.16l.47-.04c0-.23.02-.43.04-.57.02-.23.1-.39.22-.48s.33-.13.61-.13c.3,0,.53.04.67.12s.21.23.22.46v.6c.29,0,.58-.01.9-.01s.58,0,.8.02c.17.02.29.07.35.15s.09.22.09.41c0,.06,0,.12.01.16,0,.2-.03.34-.08.43s-.13.15-.26.18c-.1.02-.27.03-.5.04s-.55.01-.96.01h-.3c0,.42,0,.83,0,1.22s0,.78,0,1.15v.28c0,.31.04.54.11.7s.23.24.48.26.63-.04,1.15-.2c.1-.03.19-.02.26.05s.13.16.16.29.04.28.02.45c-.04.27-.24.49-.61.64s-.83.23-1.39.23c-.48,0-.86-.1-1.14-.29Z"/>
    </g>
  </g>
</svg>