<?xml version="1.0" encoding="UTF-8"?>
<svg id="Layer_2" data-name="Layer 2" xmlns="http://www.w3.org/2000/svg" viewBox="0 0 22.85 29.98">
  <defs>
    <style>
      .cls-1 {
        fill: #ede6e8;
      }
    </style>
  </defs>
  <g id="Layer_1-2" data-name="Layer 1">
    <g>
      <path class="cls-1" d="M11.43,0C5.98,0,0,9.12,0,15.73c0,8.28,3.17,14.25,11.43,14.25s11.42-5.97,11.42-14.25c0-7.05-5.79-15.73-11.42-15.73ZM16.22,24.79l-3.49,2.43c-.89.62-2.07.6-2.93-.06l-3.39-2.57c-3.23-2.45-4.53-6.7-3.2-10.53l1.44-4.15c.33-.95,1.23-1.57,2.23-1.55l9.51.18c1,.02,1.87.68,2.17,1.64l1.28,4.2c1.18,3.88-.28,8.08-3.6,10.4Z"/>
      <path class="cls-1" d="M15.52,13.1c-2.92,3.94-4.4,5.94-5.15,7.02-.68-.59-1.73-1.52-2.67-2.38-.41-.37-1.04-.34-1.41.07-.37.41-.34,1.04.07,1.41,3.05,2.77,3.74,3.39,4.22,3.39.14,0,.26-.05.42-.12.22-.1.4-.27.5-.48.37-.58,3.62-5.01,5.63-7.72.33-.44.24-1.07-.21-1.4-.45-.33-1.07-.24-1.4.21Z"/>
    </g>
  </g>
</svg>