<?xml version="1.0" encoding="UTF-8"?>
<svg id="Layer_2" data-name="Layer 2" xmlns="http://www.w3.org/2000/svg" viewBox="0 0 103.13 11.3">
  <defs>
    <style>
      .cls-1 {
        fill: #ede6e8;
      }
    </style>
  </defs>
  <g id="Layer_1-2" data-name="Layer 1">
    <g>
      <path class="cls-1" d="M.26,11.13c-.13-.11-.21-.32-.23-.62-.02-.69-.03-1.82-.03-3.39s0-2.71.04-3.42c.02-.34.05-.6.12-.77s.15-.28.25-.33.25-.08.43-.08c.23,0,.42.05.57.16s.26.34.35.7c.16-.23.41-.45.76-.63s.72-.28,1.11-.28c1.01,0,1.77.29,2.29.91s.78,1.44.78,2.49c0,.67-.13,1.28-.39,1.82s-.61.96-1.05,1.26-.92.45-1.44.45c-.45,0-.85-.08-1.18-.23s-.61-.37-.83-.64c0,.28,0,.62,0,1.03s0,.71-.02.93c-.02.23-.05.4-.12.52s-.16.2-.28.24-.29.06-.5.06c-.28,0-.49-.05-.62-.16ZM4.49,7.32c.31-.33.47-.81.47-1.42,0-.32-.06-.63-.18-.92s-.3-.53-.56-.72-.57-.28-.96-.28c-.42,0-.76.15-1.03.46s-.39.79-.39,1.46c0,.48.06.86.18,1.15s.28.49.49.6.46.17.76.17c.5,0,.91-.17,1.22-.5Z"/>
      <path class="cls-1" d="M10.32,9.22c-.28-.13-.5-.32-.68-.56s-.28-.51-.3-.83c-.04-.52.06-1.09.3-1.72s.58-1.31,1.02-2.04c-.5-.03-.98-.08-1.44-.14-.06.3-.13.6-.22.91s-.15.52-.21.63c-.05.12-.14.21-.26.26s-.26.07-.41.07-.3-.03-.45-.09-.26-.12-.33-.19-.11-.16-.12-.26,0-.23.02-.39l.04-.16c.1-.42.23-.9.38-1.44l.18-.61c.06-.23.16-.38.3-.46s.32-.1.55-.04c.18.05.33.11.44.19s.17.2.17.36c.38-.09.74-.14,1.07-.16s.68,0,1.05.03c.2.02.38.08.54.16s.29.21.36.37.06.38-.05.64c-.09.21-.19.42-.29.63s-.2.41-.29.6c-.25.49-.44.88-.56,1.16s-.2.54-.23.79c-.05.3-.02.52.08.63s.26.13.5.05c.27-.05.48-.19.66-.43s.34-.53.49-.88c.12-.24.21-.41.28-.51s.14-.14.23-.13c.16,0,.32.04.48.12s.3.18.41.3.16.23.16.33c0,.25-.14.62-.39,1.11s-.61.93-1.05,1.31-.96.58-1.53.58c-.31,0-.61-.07-.88-.2Z"/>
      <path class="cls-1" d="M15.51,8.53c-.54-.59-.82-1.45-.83-2.58,0-.57.1-1.12.29-1.65s.54-.98,1.04-1.34,1.18-.54,2.05-.54c.61,0,1.13.11,1.56.33s.75.51.97.88.32.77.32,1.21c0,.38-.06.71-.18,1.01-.09.21-.35.37-.8.47s-.92.16-1.41.16c-.38,0-.78-.02-1.19-.06s-.72-.08-.92-.13c.03,1.18.59,1.77,1.66,1.76.32,0,.62-.06.9-.15s.57-.21.86-.36c.08-.03.15-.06.22-.09s.12-.05.16-.05c.1,0,.2.04.3.13s.18.2.25.33c.1.19.14.36.11.52s-.15.31-.35.44c-.38.23-.77.39-1.15.49s-.82.15-1.31.14c-1.15-.02-1.99-.32-2.54-.91ZM17.26,5.47c.42.04.84.04,1.27.02s.72-.07.89-.15c.03-.5-.08-.88-.33-1.15s-.6-.4-1.04-.4c-.31,0-.58.04-.79.13s-.39.25-.53.47-.23.53-.27.93c.12.05.39.1.81.13Z"/>
      <path class="cls-1" d="M24.08,9.28c-.15-.07-.29-.19-.4-.34s-.24-.37-.38-.66c-.26-.54-.57-1.34-.95-2.41s-.65-1.96-.82-2.67c-.05-.18-.05-.32,0-.42s.13-.17.26-.21.31-.07.54-.08c.21,0,.37,0,.49.02s.21.07.29.16.15.21.19.39c.15.52.39,1.32.74,2.4s.55,1.72.63,1.94c.03-.09.08-.24.15-.43.16-.49.38-1.16.64-2s.46-1.47.57-1.88c.05-.16.11-.29.2-.38s.19-.14.32-.17.29-.04.49-.04c.31,0,.54.05.68.15s.18.26.13.5c-.2.77-.49,1.68-.87,2.74s-.69,1.84-.94,2.34c-.17.34-.31.58-.42.73s-.23.26-.38.33-.34.11-.59.11-.45-.04-.6-.11Z"/>
      <path class="cls-1" d="M29.32,8.53c-.54-.59-.82-1.45-.83-2.58,0-.57.1-1.12.29-1.65s.54-.98,1.04-1.34,1.18-.54,2.05-.54c.61,0,1.13.11,1.56.33s.75.51.97.88.32.77.32,1.21c0,.38-.06.71-.18,1.01-.09.21-.35.37-.8.47s-.92.16-1.41.16c-.38,0-.78-.02-1.19-.06s-.72-.08-.92-.13c.03,1.18.59,1.77,1.66,1.76.32,0,.62-.06.9-.15s.57-.21.86-.36c.08-.03.15-.06.22-.09s.12-.05.16-.05c.1,0,.2.04.3.13s.18.2.25.33c.1.19.14.36.11.52s-.15.31-.35.44c-.38.23-.77.39-1.15.49s-.82.15-1.31.14c-1.15-.02-1.99-.32-2.54-.91ZM31.08,5.47c.42.04.84.04,1.27.02s.72-.07.89-.15c.03-.5-.08-.88-.33-1.15s-.6-.4-1.04-.4c-.31,0-.58.04-.79.13s-.39.25-.53.47-.23.53-.27.93c.12.05.39.1.81.13Z"/>
      <path class="cls-1" d="M36.35,9.31c-.11-.03-.2-.08-.26-.17s-.11-.22-.13-.4c-.04-.28-.06-1.15-.06-2.61s.02-2.46.06-3.02c.02-.21.08-.38.18-.49s.3-.18.58-.18c.26,0,.44.03.56.09s.2.18.26.36.13.5.21.95c.32-.52.68-.89,1.08-1.1s.81-.31,1.24-.31.77.08,1.1.25.58.4.77.72.29.69.3,1.13c.02.12,0,.71-.02,1.78,0,.29-.01.55-.02.79s0,.48,0,.73c0,.06.01.12.04.18s.06.11.1.16c.05.07.08.13.11.17s.04.1.04.17c0,.12-.07.24-.2.37s-.29.24-.49.33-.36.13-.51.13c-.23,0-.44-.1-.6-.31s-.26-.51-.29-.92c0-.29,0-.81,0-1.56,0-.38,0-.71.01-1.02s0-.53,0-.68c-.02-.28-.09-.52-.22-.73s-.37-.3-.7-.3c-.23,0-.49.08-.76.24s-.5.35-.68.58-.28.43-.28.6v1.3c0,1.3-.01,2.03-.04,2.18-.03.17-.08.3-.14.39s-.15.15-.27.18-.29.05-.52.05c-.19,0-.34-.01-.45-.04Z"/>
      <path class="cls-1" d="M44.58,9.15c-.29-.18-.49-.43-.62-.73s-.21-.68-.25-1.12c-.02-.37-.03-1.02-.01-1.95,0-.27,0-.6.01-.98h-.19c-.05,0-.11,0-.17,0s-.11-.01-.16-.03c-.09-.02-.15-.09-.21-.21s-.07-.27-.06-.45c0-.23.02-.4.07-.5s.14-.15.27-.16l.47-.04c0-.23.02-.43.04-.57.02-.23.1-.39.22-.48s.33-.13.61-.13c.3,0,.53.04.67.12s.21.23.22.46v.6c.29,0,.58-.01.9-.01s.58,0,.8.02c.17.02.29.07.35.15s.09.22.09.41c0,.06,0,.12.01.16,0,.2-.03.34-.08.43s-.13.15-.26.18c-.1.02-.27.03-.5.04s-.55.01-.96.01h-.3c0,.42,0,.83,0,1.22s0,.78,0,1.15v.28c0,.31.04.54.11.7s.23.24.48.26.63-.04,1.15-.2c.1-.03.19-.02.26.05s.13.16.16.29.04.28.02.45c-.04.27-.24.49-.61.64s-.83.23-1.39.23c-.48,0-.86-.1-1.14-.29Z"/>
      <path class="cls-1" d="M49.21,9.13c-.3-.18-.53-.42-.69-.73s-.23-.66-.23-1.05c0-.63.19-1.14.58-1.52s.96-.57,1.73-.57c.26,0,.51.02.75.05s.5.08.79.13c.23.05.4.09.5.12,0-.58-.14-1-.41-1.25s-.63-.39-1.07-.39c-.32,0-.61.03-.86.09s-.52.14-.8.25c-.09.03-.17.06-.24.08s-.13.04-.18.04c-.1,0-.2-.05-.28-.15s-.16-.22-.21-.36-.08-.27-.08-.38c0-.12.03-.24.1-.35s.17-.2.3-.28c.39-.2.8-.34,1.22-.41s.88-.1,1.35-.09c.56.02,1.06.14,1.51.37s.79.58,1.05,1.05.4,1.06.42,1.77c0,.16,0,.29,0,.41s0,.26-.02.43c-.02.52-.04.88-.04,1.08s.02.35.07.45.11.19.19.26c.03.02.06.05.08.08s.04.06.04.09c0,.2-.06.37-.18.52s-.26.27-.43.36-.33.13-.48.13c-.17,0-.33-.1-.48-.29s-.27-.51-.38-.94c-.52.83-1.36,1.24-2.5,1.24-.45,0-.82-.09-1.12-.26ZM52.12,7.69c.34-.25.52-.63.52-1.14-.08-.02-.14-.03-.2-.04s-.12-.03-.2-.04c-.19-.05-.37-.08-.55-.11s-.38-.04-.6-.04c-.43,0-.75.06-.96.19s-.32.36-.33.7c0,.3.08.51.25.64s.41.2.71.2c.56,0,1.02-.12,1.36-.38Z"/>
      <path class="cls-1" d="M56.63,9.15c-.29-.18-.49-.43-.62-.73s-.21-.68-.25-1.12c-.02-.37-.03-1.02-.01-1.95,0-.27,0-.6.01-.98h-.19c-.05,0-.11,0-.17,0s-.11-.01-.16-.03c-.09-.02-.15-.09-.21-.21s-.07-.27-.06-.45c0-.23.02-.4.07-.5s.14-.15.27-.16l.47-.04c0-.23.02-.43.04-.57.02-.23.1-.39.22-.48s.33-.13.61-.13c.3,0,.53.04.67.12s.21.23.22.46v.6c.29,0,.58-.01.9-.01s.58,0,.8.02c.17.02.29.07.35.15s.09.22.09.41c0,.06,0,.12.01.16,0,.2-.03.34-.08.43s-.13.15-.26.18c-.1.02-.27.03-.5.04s-.55.01-.96.01h-.3c0,.42,0,.83,0,1.22s0,.78,0,1.15v.28c0,.31.04.54.11.7s.23.24.48.26.63-.04,1.15-.2c.1-.03.19-.02.26.05s.13.16.16.29.04.28.02.45c-.04.27-.24.49-.61.64s-.83.23-1.39.23c-.48,0-.86-.1-1.14-.29Z"/>
      <path class="cls-1" d="M60.91,1.59c-.18-.19-.27-.42-.27-.69s.09-.48.27-.65.43-.25.74-.25.53.08.7.24.26.38.27.66c0,.27-.09.49-.27.69s-.41.29-.7.29c-.31,0-.56-.09-.74-.28ZM61.22,9.25c-.13-.09-.24-.22-.32-.4s-.13-.41-.14-.69c-.04-.51-.06-1.32-.06-2.43s.02-2.03.06-2.74c.02-.2.1-.34.23-.42s.35-.11.66-.11c.23,0,.41.02.53.05s.21.1.27.2.09.25.09.45c.02.55.02,1.42,0,2.62,0,.44-.01.84-.01,1.21s0,.66.02.88c0,.11.05.21.14.32.02.04.04.06.05.07.04.08.06.16.06.24s-.03.17-.08.26c-.09.15-.24.29-.46.42s-.43.19-.62.19c-.15,0-.29-.04-.42-.13Z"/>
      <path class="cls-1" d="M66.04,9.28c-.15-.07-.29-.19-.4-.34s-.24-.37-.38-.66c-.26-.54-.57-1.34-.95-2.41s-.65-1.96-.82-2.67c-.05-.18-.05-.32,0-.42s.13-.17.26-.21.31-.07.54-.08c.21,0,.37,0,.49.02s.21.07.29.16.15.21.19.39c.15.52.39,1.32.74,2.4s.55,1.72.63,1.94c.03-.09.08-.24.15-.43.16-.49.38-1.16.64-2s.46-1.47.57-1.88c.05-.16.11-.29.2-.38s.19-.14.32-.17.29-.04.49-.04c.31,0,.54.05.68.15s.18.26.13.5c-.2.77-.49,1.68-.87,2.74s-.69,1.84-.94,2.34c-.17.34-.31.58-.42.73s-.23.26-.38.33-.34.11-.59.11-.45-.04-.6-.11Z"/>
      <path class="cls-1" d="M71.29,8.53c-.54-.59-.82-1.45-.83-2.58,0-.57.1-1.12.29-1.65s.54-.98,1.04-1.34,1.18-.54,2.05-.54c.61,0,1.13.11,1.56.33s.75.51.97.88.32.77.32,1.21c0,.38-.06.71-.18,1.01-.09.21-.35.37-.8.47s-.92.16-1.41.16c-.38,0-.78-.02-1.19-.06s-.72-.08-.92-.13c.03,1.18.59,1.77,1.66,1.76.32,0,.62-.06.9-.15s.57-.21.86-.36c.08-.03.15-.06.22-.09s.12-.05.16-.05c.1,0,.2.04.3.13s.18.2.25.33c.1.19.14.36.11.52s-.15.31-.35.44c-.38.23-.77.39-1.15.49s-.82.15-1.31.14c-1.15-.02-1.99-.32-2.54-.91ZM73.04,5.47c.42.04.84.04,1.27.02s.72-.07.89-.15c.03-.5-.08-.88-.33-1.15s-.6-.4-1.04-.4c-.31,0-.58.04-.79.13s-.39.25-.53.47-.23.53-.27.93c.12.05.39.1.81.13Z"/>
      <path class="cls-1" d="M82.42,9.15c-.29-.18-.49-.43-.62-.73s-.21-.68-.25-1.12c-.02-.37-.03-1.02-.01-1.95,0-.27,0-.6.01-.98h-.19c-.05,0-.11,0-.17,0s-.11-.01-.16-.03c-.09-.02-.15-.09-.21-.21s-.07-.27-.06-.45c0-.23.02-.4.07-.5s.14-.15.27-.16l.47-.04c0-.23.02-.43.04-.57.02-.23.1-.39.22-.48s.33-.13.61-.13c.3,0,.53.04.67.12s.21.23.22.46v.6c.29,0,.58-.01.9-.01s.58,0,.8.02c.17.02.29.07.35.15s.09.22.09.41c0,.06,0,.12.01.16,0,.2-.03.34-.08.43s-.13.15-.26.18c-.1.02-.27.03-.5.04s-.55.01-.96.01h-.3c0,.42,0,.83,0,1.22s0,.78,0,1.15v.28c0,.31.04.54.11.7s.23.24.48.26.63-.04,1.15-.2c.1-.03.19-.02.26.05s.13.16.16.29.04.28.02.45c-.04.27-.24.49-.61.64s-.83.23-1.39.23c-.48,0-.86-.1-1.14-.29Z"/>
      <path class="cls-1" d="M86.7,1.59c-.18-.19-.27-.42-.27-.69s.09-.48.27-.65.43-.25.74-.25.53.08.7.24.26.38.27.66c0,.27-.09.49-.27.69s-.41.29-.7.29c-.31,0-.56-.09-.74-.28ZM87.01,9.25c-.13-.09-.24-.22-.32-.4s-.13-.41-.14-.69c-.04-.51-.06-1.32-.06-2.43s.02-2.03.06-2.74c.02-.2.1-.34.23-.42s.35-.11.66-.11c.23,0,.41.02.53.05s.21.1.27.2.09.25.09.45c.02.55.02,1.42,0,2.62,0,.44-.01.84-.01,1.21s0,.66.02.88c0,.11.05.21.14.32.02.04.04.06.05.07.04.08.06.16.06.24s-.03.17-.08.26c-.09.15-.24.29-.46.42s-.43.19-.62.19c-.15,0-.29-.04-.42-.13Z"/>
      <path class="cls-1" d="M89.94,11.13c-.13-.11-.21-.32-.23-.62-.02-.69-.03-1.82-.03-3.39s0-2.71.04-3.42c.02-.34.05-.6.12-.77s.15-.28.25-.33.25-.08.43-.08c.23,0,.42.05.57.16s.26.34.35.7c.16-.23.41-.45.76-.63s.72-.28,1.11-.28c1.01,0,1.77.29,2.29.91s.78,1.44.78,2.49c0,.67-.13,1.28-.39,1.82s-.61.96-1.05,1.26-.92.45-1.44.45c-.45,0-.85-.08-1.18-.23s-.61-.37-.83-.64c0,.28,0,.62,0,1.03s0,.71-.02.93c-.02.23-.05.4-.12.52s-.16.2-.28.24-.29.06-.5.06c-.28,0-.49-.05-.62-.16ZM94.17,7.32c.31-.33.47-.81.47-1.42,0-.32-.06-.63-.18-.92s-.3-.53-.56-.72-.57-.28-.96-.28c-.42,0-.76.15-1.03.46s-.39.79-.39,1.46c0,.48.06.86.18,1.15s.28.49.49.6.46.17.76.17c.5,0,.91-.17,1.22-.5Z"/>
      <path class="cls-1" d="M98.5,9.16c-.47-.19-.85-.46-1.12-.81s-.43-.78-.46-1.26c-.02-.21.06-.36.22-.44s.35-.12.58-.12c.52,0,.8.14.83.43.06.37.23.64.49.83s.59.28.97.28c.41,0,.73-.11.96-.34s.34-.51.35-.84c0-.31-.07-.62-.2-.91s-.33-.65-.59-1.06c-.27-.46-.46-.86-.6-1.2s-.2-.71-.21-1.11l.76.02c-.12.37-.3.73-.54,1.08s-.46.65-.69.9-.39.4-.48.46c-.13.07-.3.04-.51-.11s-.37-.32-.48-.53-.12-.37-.02-.48c.14-.14.68-.71,1.61-1.71.09-.11.3-.17.63-.18s.63.03.91.12.42.21.42.36c0,.25.06.51.19.77s.33.61.6,1.03c.34.52.59.97.76,1.33s.25.73.25,1.11c0,.56-.13,1.04-.39,1.44s-.62.7-1.08.9-.98.3-1.56.3-1.13-.09-1.6-.28Z"/>
    </g>
  </g>
</svg>