<?xml version="1.0" encoding="UTF-8"?>
<svg id="Layer_2" data-name="Layer 2" xmlns="http://www.w3.org/2000/svg" viewBox="0 0 29.77 7.65">
  <defs>
    <style>
      .cls-1 {
        fill: #ede6e8;
      }
    </style>
  </defs>
  <g id="Layer_1-2" data-name="Layer 1">
    <g>
      <path class="cls-1" d="M1.59,7.37c-.47-.19-.85-.46-1.12-.81S.03,5.78,0,5.3c-.02-.21.06-.36.22-.44s.35-.12.58-.12c.52,0,.8.14.83.43.06.37.23.64.49.83s.59.28.97.28c.41,0,.73-.11.96-.34s.34-.51.35-.84c0-.31-.07-.62-.2-.91s-.33-.65-.59-1.06c-.27-.46-.46-.86-.6-1.2s-.2-.71-.21-1.11l.76.02c-.12.37-.3.73-.54,1.08s-.46.65-.69.9-.39.4-.48.46c-.13.07-.3.04-.51-.11s-.37-.32-.48-.53-.12-.37-.02-.48c.14-.14.68-.71,1.61-1.71.09-.11.3-.17.63-.18s.63.03.91.12.42.21.42.36c0,.25.06.51.19.77s.33.61.6,1.03c.34.52.59.97.76,1.33s.25.73.25,1.11c0,.56-.13,1.04-.39,1.44s-.62.7-1.08.9-.98.3-1.56.3-1.13-.09-1.6-.28Z"/>
      <path class="cls-1" d="M8.07,7.35c-.29-.18-.49-.43-.62-.73s-.21-.68-.25-1.12c-.02-.37-.03-1.02-.01-1.95,0-.27,0-.6.01-.98h-.19c-.05,0-.11,0-.17,0s-.11-.01-.16-.03c-.09-.02-.15-.09-.21-.21s-.07-.27-.06-.45c0-.23.02-.4.07-.5s.14-.15.27-.16l.47-.04c0-.23.02-.43.04-.57.02-.23.1-.39.22-.48s.33-.13.61-.13c.3,0,.53.04.67.12s.21.23.22.46v.6c.29,0,.58-.01.9-.01s.58,0,.8.02c.17.02.29.07.35.15s.09.22.09.41c0,.06,0,.12.01.16,0,.2-.03.34-.08.43s-.13.15-.26.18c-.1.02-.27.03-.5.04s-.55.01-.96.01h-.3c0,.42,0,.83,0,1.22s0,.78,0,1.15v.28c0,.31.04.54.11.7s.23.24.48.26.63-.04,1.15-.2c.1-.03.19-.02.26.05s.13.16.16.29.04.28.02.45c-.04.27-.24.49-.61.64s-.83.23-1.39.23c-.48,0-.86-.1-1.14-.29Z"/>
      <path class="cls-1" d="M12.69,7.34c-.3-.18-.53-.42-.69-.73s-.23-.66-.23-1.05c0-.63.19-1.14.58-1.52s.96-.57,1.73-.57c.26,0,.51.02.75.05s.5.08.79.13c.23.05.4.09.5.12,0-.58-.14-1-.41-1.25s-.63-.39-1.07-.39c-.32,0-.61.03-.86.09s-.52.14-.8.25c-.09.03-.17.06-.24.08s-.13.04-.18.04c-.1,0-.2-.05-.28-.15s-.16-.22-.21-.36-.08-.27-.08-.38c0-.12.03-.24.1-.35s.17-.2.3-.28c.39-.2.8-.34,1.22-.41s.88-.1,1.35-.09c.56.02,1.06.14,1.51.37s.79.58,1.05,1.05.4,1.06.42,1.77c0,.16,0,.29,0,.41s0,.26-.02.43c-.02.52-.04.88-.04,1.08s.02.35.07.45.11.19.19.26c.03.02.06.05.08.08s.04.06.04.09c0,.2-.06.37-.18.52s-.26.27-.43.36-.33.13-.48.13c-.17,0-.33-.1-.48-.29s-.27-.51-.38-.94c-.52.83-1.36,1.24-2.5,1.24-.45,0-.82-.09-1.12-.26ZM15.6,5.89c.34-.25.52-.63.52-1.14-.08-.02-.14-.03-.2-.04s-.12-.03-.2-.04c-.19-.05-.37-.08-.55-.11s-.38-.04-.6-.04c-.43,0-.75.06-.96.19s-.32.36-.33.7c0,.3.08.51.25.64s.41.2.71.2c.56,0,1.02-.12,1.36-.38Z"/>
      <path class="cls-1" d="M20.11,7.35c-.29-.18-.49-.43-.62-.73s-.21-.68-.25-1.12c-.02-.37-.03-1.02-.01-1.95,0-.27,0-.6.01-.98h-.19c-.05,0-.11,0-.17,0s-.11-.01-.16-.03c-.09-.02-.15-.09-.21-.21s-.07-.27-.06-.45c0-.23.02-.4.07-.5s.14-.15.27-.16l.47-.04c0-.23.02-.43.04-.57.02-.23.1-.39.22-.48s.33-.13.61-.13c.3,0,.53.04.67.12s.21.23.22.46v.6c.29,0,.58-.01.9-.01s.58,0,.8.02c.17.02.29.07.35.15s.09.22.09.41c0,.06,0,.12.01.16,0,.2-.03.34-.08.43s-.13.15-.26.18c-.1.02-.27.03-.5.04s-.55.01-.96.01h-.3c0,.42,0,.83,0,1.22s0,.78,0,1.15v.28c0,.31.04.54.11.7s.23.24.48.26.63-.04,1.15-.2c.1-.03.19-.02.26.05s.13.16.16.29.04.28.02.45c-.04.27-.24.49-.61.64s-.83.23-1.39.23c-.48,0-.86-.1-1.14-.29Z"/>
      <path class="cls-1" d="M25.14,7.37c-.47-.19-.85-.46-1.12-.81s-.43-.78-.46-1.26c-.02-.21.06-.36.22-.44s.35-.12.58-.12c.52,0,.8.14.83.43.06.37.23.64.49.83s.59.28.97.28c.41,0,.73-.11.96-.34s.34-.51.35-.84c0-.31-.07-.62-.2-.91s-.33-.65-.59-1.06c-.27-.46-.46-.86-.6-1.2s-.2-.71-.21-1.11l.76.02c-.12.37-.3.73-.54,1.08s-.46.65-.69.9-.39.4-.48.46c-.13.07-.3.04-.51-.11s-.37-.32-.48-.53-.12-.37-.02-.48c.14-.14.68-.71,1.61-1.71.09-.11.3-.17.63-.18s.63.03.91.12.42.21.42.36c0,.25.06.51.19.77s.33.61.6,1.03c.34.52.59.97.76,1.33s.25.73.25,1.11c0,.56-.13,1.04-.39,1.44s-.62.7-1.08.9-.98.3-1.56.3-1.13-.09-1.6-.28Z"/>
    </g>
  </g>
</svg>