<?xml version="1.0" encoding="UTF-8"?>
<svg id="Layer_2" data-name="Layer 2" xmlns="http://www.w3.org/2000/svg" viewBox="0 0 190.96 21.76">
  <defs>
    <style>
      .cls-1 {
        fill: #422d1e;
      }
    </style>
  </defs>
  <g id="Layer_1-2" data-name="Layer 1">
    <g>
      <g>
        <path class="cls-1" d="M3.53,17.1c-1.09-.42-1.94-1.02-2.55-1.8S.04,13.62,0,12.6c-.02-.57.2-.96.66-1.15s1.01-.3,1.65-.3c1.45,0,2.2.35,2.23,1.06.07.59.32,1.05.77,1.37s.98.49,1.62.49c.8,0,1.4-.19,1.82-.58s.62-.89.62-1.49c0-.55-.11-1.1-.32-1.63s-.55-1.21-1-2.02c-.43-.89-.83-1.87-1.1-2.62h0c-.58.95-1.14,1.77-1.59,2.29s-.77.83-.96.93c-.35.16-.8.04-1.35-.35s-1-.86-1.34-1.43-.38-.96-.14-1.21c.57-.57,1.8-1.95,3.68-4.12.26-.29.84-.46,1.74-.49s1.74.06,2.53.3,1.18.54,1.18.92c.02.64.17,1.28.45,1.91s.71,1.43,1.28,2.4c.67,1.09,1.18,2.01,1.5,2.76s.49,1.53.49,2.35c0,1.21-.29,2.25-.88,3.13s-1.41,1.53-2.48,1.97-2.32.66-3.77.66-2.67-.21-3.76-.64Z"/>
        <path class="cls-1" d="M27.86,16.71c-.46-.31-.86-.91-1.21-1.79-.33-.8-1.68-6.27-1.82-7.03-.07.28-.16.74-.29,1.4-.52,2.56-1.02,4.44-1.5,5.65-.35.9-.73,1.49-1.14,1.78s-1.01.43-1.79.43-1.34-.15-1.78-.44-.84-.83-1.21-1.61c-.62-1.37-1.32-3.31-2.09-5.84s-1.24-4.41-1.41-5.65c-.07-.48-.05-.85.06-1.09s.33-.41.66-.49.83-.13,1.5-.13c.71,0,1.3.1,1.76.3s.77.57.91,1.1c.28,1.28.69,3.19,1.24,5.73l.57,2.46c.41-1.94.86-3.88,1.35-5.84.16-.66.35-1.39.6-2.2.14-.45.33-.78.58-.99s.53-.34.83-.39.68-.08,1.13-.08c.54,0,.95.02,1.23.06s.55.16.79.34.43.47.57.87c.24.73.6,2.01,1.08,3.85s.84,3.3,1.1,4.37c.22-1.07.52-2.42.88-4.05s.66-3.02.88-4.18c.12-.5.38-.86.79-1.06s.96-.31,1.67-.31c.78,0,1.4.08,1.85.25s.65.51.58,1.05c-.1.93-.38,2.2-.83,3.81s-.94,3.18-1.47,4.72-.96,2.65-1.31,3.35c-.31.62-.6,1.08-.86,1.39s-.54.5-.86.58-.72.13-1.22.13c-.8,0-1.42-.16-1.88-.47Z"/>
        <path class="cls-1" d="M38.43,15.74c-1.41-1.31-2.11-3.18-2.11-5.6,0-1.66.32-3.09.95-4.3s1.54-2.14,2.72-2.77,2.59-.96,4.21-.96,3,.32,4.16.96,2.06,1.56,2.67,2.76.92,2.63.92,4.29c0,2.42-.67,4.29-2.02,5.61s-3.2,1.98-5.55,1.98c-2.56,0-4.54-.66-5.95-1.97ZM48.35,14.37c.29-.32.43-.74.43-1.26s-.14-.94-.43-1.25-.65-.47-1.09-.47c-.5,0-.89.15-1.16.46s-.41.73-.41,1.26.14.96.41,1.27.66.47,1.16.47c.44,0,.8-.16,1.09-.48Z"/>
        <path class="cls-1" d="M54.9,15.74c-1.41-1.31-2.11-3.18-2.11-5.6,0-1.66.32-3.09.95-4.3s1.54-2.14,2.72-2.77,2.59-.96,4.21-.96,3,.32,4.16.96,2.06,1.56,2.67,2.76.92,2.63.92,4.29c0,2.42-.67,4.29-2.02,5.61s-3.2,1.98-5.55,1.98c-2.56,0-4.54-.66-5.95-1.97ZM64.85,14.41c.29-.33.44-.76.44-1.29s-.15-.96-.44-1.28-.67-.49-1.12-.49c-.51,0-.91.16-1.19.47s-.42.75-.42,1.3.14.98.42,1.3.68.48,1.19.48c.45,0,.83-.16,1.12-.49Z"/>
        <path class="cls-1" d="M83.6,4.16c-1.19-1.34-2.91-2-5.16-1.98-.85.02-1.64.21-2.37.58-.73.37-1.28.8-1.66,1.29,0-.61-.02-1.19-.04-1.69-.02-.67-.11-1.18-.27-1.52-.16-.34-.41-.56-.73-.66-.32-.1-.76-.16-1.31-.18-.78,0-1.36.15-1.75.44-.39.29-.63.9-.71,1.82-.05,1.4-.11,4.87-.11,4.87-.03,1.3-.04,3.01-.03,5.14,0,3.61.05,6.03.12,7.26.07.9.3,1.5.69,1.8.39.3.96.45,1.7.43.57-.02,1.03-.08,1.39-.18.35-.1.63-.32.83-.66.2-.34.32-.84.35-1.52.02-.4.03-.95.04-1.66s.01-1.38.01-2.02c.55.61,1.2,1.06,1.93,1.37.73.31,1.58.47,2.53.47,1.14,0,2.2-.33,3.18-1,.98-.67,1.75-1.61,2.32-2.83.57-1.22.86-2.61.86-4.16,0-2.26-.6-4.07-1.79-5.41ZM79.71,12.21c-.59.61-1.31.91-2.18.91-.59,0-1.09-.12-1.5-.35-.41-.23-.73-.61-.96-1.12-.22-.51-.34-1.15-.34-1.91,0-1.11.25-1.95.75-2.52.5-.57,1.18-.86,2.05-.86.62,0,1.17.16,1.63.47.47.31.82.73,1.06,1.24s.36,1.07.36,1.66c0,1.04-.29,1.86-.88,2.46Z"/>
      </g>
      <g>
        <path class="cls-1" d="M92.49,17c-1.09-.42-1.94-1.02-2.55-1.8s-.94-1.68-.97-2.7c-.02-.57.2-.96.66-1.15s1.01-.3,1.65-.3c1.45,0,2.2.35,2.23,1.06.07.59.32,1.05.77,1.37s.98.49,1.62.49c.8,0,1.4-.19,1.82-.58s.62-.89.62-1.49c0-.55-.11-1.1-.32-1.63s-.55-1.21-1-2.02c-.43-.9-.84-1.88-1.11-2.64h0c-.58.95-1.14,1.78-1.59,2.3s-.77.83-.96.93c-.35.16-.8.04-1.35-.35s-1-.86-1.34-1.43-.38-.96-.14-1.21c.57-.57,1.8-1.95,3.68-4.12.26-.29.84-.46,1.74-.49s1.74.06,2.53.3,1.18.54,1.18.92c.02.64.17,1.28.45,1.91s.71,1.43,1.28,2.4c.67,1.09,1.18,2.01,1.5,2.76s.49,1.53.49,2.35c0,1.21-.29,2.25-.88,3.13s-1.41,1.53-2.48,1.97-2.32.66-3.77.66-2.67-.21-3.76-.64Z"/>
        <path class="cls-1" d="M118.46,4.16c-1.19-1.34-2.91-2-5.16-1.98-.85.02-1.64.21-2.37.58-.73.37-1.28.8-1.66,1.29,0-.61-.02-1.19-.04-1.69-.02-.67-.11-1.18-.27-1.52s-.41-.56-.73-.66c-.32-.1-.76-.16-1.31-.18-.78,0-1.36.15-1.75.44s-.63.9-.71,1.82c-.05,1.4-.1,3.03-.13,4.88,0,0-.02,3-.01,5.13,0,3.61.05,6.03.12,7.26.07.9.3,1.5.69,1.8.39.3.96.45,1.7.43.57-.02,1.03-.08,1.39-.18.35-.1.63-.32.83-.66s.32-.84.35-1.52c.02-.4.03-.95.04-1.66,0-.71.01-1.38.01-2.02.55.61,1.2,1.06,1.93,1.37s1.58.47,2.53.47c1.14,0,2.2-.33,3.18-1s1.75-1.61,2.32-2.83c.57-1.22.86-2.61.86-4.16,0-2.26-.6-4.07-1.79-5.41ZM114.57,12.21c-.59.61-1.31.91-2.18.91-.59,0-1.09-.12-1.5-.35s-.73-.61-.96-1.12c-.22-.51-.34-1.15-.34-1.91,0-1.11.25-1.95.75-2.52.5-.57,1.18-.86,2.05-.86.62,0,1.17.16,1.63.47.47.31.82.73,1.06,1.24s.36,1.07.36,1.66c0,1.04-.29,1.86-.88,2.46Z"/>
        <path class="cls-1" d="M139.81,17c-.7-.42-1.22-1-1.57-1.74s-.55-1.62-.62-2.66c-.07-.67-.09-1.84-.05-3.5,0-.57,0-1.2.03-1.89h-.29c-.14,0-.28,0-.43-.03s-.27-.05-.38-.1c-.16-.07-.29-.28-.41-.62s-.18-.74-.18-1.19c.02-.66.09-1.11.21-1.36s.35-.39.67-.43l.91-.08c.03-.43.06-.81.08-1.14.09-.69.31-1.16.66-1.4s.91-.36,1.67-.36c.85,0,1.47.11,1.87.32s.62.64.67,1.28l.05,1.19c.52-.02,1.05-.02,1.61,0s1.03.04,1.43.08c.43.05.72.19.87.43s.23.6.25,1.1c0,.19,0,.33.03.41,0,.57-.04.98-.13,1.23s-.32.42-.7.51c-.22.07-.57.11-1.05.13s-1.06.03-1.75.03h-.49c-.02.8-.03,1.49-.03,2.09v2.5c.02.62.09,1.07.21,1.35s.39.45.82.51,1.09-.02,2.01-.25c.26-.03.48.01.65.14s.3.35.39.67.11.73.08,1.23c-.03.78-.48,1.34-1.34,1.69s-1.88.52-3.07.52c-1.07-.02-1.96-.24-2.66-.66Z"/>
        <path class="cls-1" d="M151.58,17c-.7-.42-1.22-1-1.57-1.74s-.55-1.62-.62-2.66c-.07-.67-.09-1.84-.05-3.5,0-.57,0-1.2.03-1.89h-.29c-.14,0-.28,0-.43-.03s-.27-.05-.38-.1c-.16-.07-.29-.28-.41-.62s-.18-.74-.18-1.19c.02-.66.09-1.11.21-1.36s.35-.39.67-.43l.91-.08c.03-.43.06-.81.08-1.14.09-.69.31-1.16.66-1.4s.91-.36,1.67-.36c.85,0,1.47.11,1.87.32s.62.64.67,1.28l.05,1.19c.52-.02,1.05-.02,1.61,0s1.03.04,1.43.08c.43.05.72.19.87.43s.23.6.25,1.1c0,.19,0,.33.03.41,0,.57-.04.98-.13,1.23s-.32.42-.7.51c-.22.07-.57.11-1.05.13s-1.06.03-1.75.03h-.49c-.02.8-.03,1.49-.03,2.09v2.5c.02.62.09,1.07.21,1.35s.39.45.82.51,1.09-.02,2.01-.25c.26-.03.48.01.65.14s.3.35.39.67.11.73.08,1.23c-.03.78-.48,1.34-1.34,1.69s-1.88.52-3.07.52c-1.07-.02-1.96-.24-2.66-.66Z"/>
        <path class="cls-1" d="M161.24,15.75c-1.23-1.29-1.85-3.17-1.87-5.64,0-1.33.22-2.59.66-3.79s1.23-2.2,2.36-3.02,2.68-1.23,4.66-1.23c1.38,0,2.56.25,3.53.74s1.69,1.14,2.18,1.95.73,1.7.73,2.68c0,.76-.13,1.48-.39,2.15-.19.59-.84,1.02-1.95,1.28s-2.22.4-3.35.4c-.62,0-1.28-.04-1.98-.12s-1.28-.18-1.72-.3c.03,2.01,1.05,3,3.06,2.98.62,0,1.2-.09,1.74-.27s1.1-.42,1.69-.71c.21-.09.4-.16.57-.23s.3-.1.39-.1c.31,0,.6.11.87.32s.5.49.69.82c.26.52.37.98.32,1.37s-.31.77-.79,1.12c-.76.55-1.6.96-2.52,1.22s-1.95.38-3.11.36c-2.61-.03-4.53-.7-5.76-1.98ZM165.66,8.79c.72.05,1.44.06,2.18.01s1.25-.13,1.54-.27c.05-.86-.13-1.51-.56-1.95s-1.03-.65-1.83-.65c-.54,0-1,.09-1.39.26s-.7.45-.93.83-.37.88-.4,1.5c.21.12.67.21,1.39.26Z"/>
        <path class="cls-1" d="M182.22,17.23c-.62-.27-1.15-.65-1.58-1.15s-.7-1.09-.8-1.76c-.16-1.05-.02-2.23.41-3.53s1.05-2.76,1.87-4.38c-.85-.05-1.65-.14-2.41-.26-.19.73-.38,1.41-.58,2.06s-.35,1.08-.45,1.28c-.16.24-.42.42-.79.53s-.79.15-1.26.1-.88-.13-1.24-.27c-.38-.17-.65-.38-.82-.61s-.25-.47-.26-.71.03-.55.12-.93l.08-.36c.17-.74.45-1.8.83-3.16l.41-1.5c.14-.55.42-.94.86-1.15s1.02-.24,1.76-.06c.48.1.88.27,1.19.51s.42.58.34,1.05c.78-.29,1.58-.48,2.41-.57s1.64-.08,2.44.03c.38.05.76.17,1.13.36s.65.47.83.83.18.81-.01,1.35c-.12.35-.28.72-.47,1.13s-.38.81-.57,1.21c-.47.95-.83,1.73-1.08,2.35s-.42,1.2-.51,1.75c-.12.69-.07,1.14.14,1.35s.56.15,1.02-.18c.4-.19.74-.49,1.04-.89s.58-.88.86-1.41c.28-.52.5-.88.67-1.09s.37-.31.6-.31c.38.02.77.15,1.18.39s.74.54,1,.88.39.66.39.93c-.02.62-.32,1.47-.89,2.54s-1.38,2.02-2.4,2.85-2.2,1.24-3.53,1.24c-.66,0-1.3-.13-1.92-.4Z"/>
        <path class="cls-1" d="M133.94,4.85l-.41,1.02-2.32,1.01-1.11,2.25.4-3.22,2.23-.86.25-1.25c-1.11-1.01-2.55-1.72-4.37-1.71-5.45.03-7.57,5.61-7.57,8.04s.66,4.1,1.97,5.51,3.18,2.11,5.6,2.11c2.13,0,3.88-.72,5.25-2.17,1.38-1.45,2.06-3.11,2.06-5.46,0-1.26-.62-3.48-1.99-5.27Z"/>
      </g>
    </g>
  </g>
</svg>