<?xml version="1.0" encoding="UTF-8"?>
<svg id="Layer_2" data-name="Layer 2" xmlns="http://www.w3.org/2000/svg" viewBox="0 0 105.98 10.62">
  <defs>
    <style>
      .cls-1 {
        fill: #432913;
      }
    </style>
  </defs>
  <g id="Layer_1-2" data-name="Layer 1">
    <g>
      <path class="cls-1" d="M.92,8.46c-.3-.18-.53-.42-.69-.73s-.23-.66-.23-1.05c0-.63.19-1.14.58-1.52s.96-.57,1.73-.57c.26,0,.51.02.75.05s.5.08.79.13c.23.05.4.09.5.12,0-.58-.14-1-.41-1.25s-.63-.39-1.07-.39c-.32,0-.61.03-.86.09s-.52.14-.8.25c-.09.03-.17.06-.24.08s-.13.04-.18.04c-.1,0-.2-.05-.28-.15s-.16-.22-.21-.36-.08-.27-.08-.38c0-.12.03-.24.1-.35s.17-.2.3-.28c.39-.2.8-.34,1.22-.41s.88-.1,1.35-.09c.56.02,1.06.14,1.51.37s.79.58,1.05,1.05.4,1.06.42,1.77c0,.16,0,.29,0,.41s0,.26-.02.43c-.02.52-.04.88-.04,1.08s.02.35.07.45.11.19.19.26c.03.02.06.05.08.08s.04.06.04.09c0,.2-.06.37-.18.52s-.26.27-.43.36-.33.13-.48.13c-.17,0-.33-.1-.48-.29s-.27-.51-.38-.94c-.52.83-1.36,1.24-2.5,1.24-.45,0-.82-.09-1.12-.26ZM3.83,7.01c.34-.25.52-.63.52-1.14-.08-.02-.14-.03-.2-.04s-.12-.03-.2-.04c-.19-.05-.37-.08-.55-.11s-.38-.04-.6-.04c-.43,0-.75.06-.96.19s-.32.36-.33.7c0,.3.08.51.25.64s.41.2.71.2c.56,0,1.02-.12,1.36-.38Z"/>
      <path class="cls-1" d="M8.6,8.26c-.47-.3-.82-.71-1.07-1.24s-.36-1.12-.36-1.79c0-.7.14-1.32.41-1.85s.64-.93,1.09-1.21.94-.42,1.46-.41c.44,0,.81.08,1.12.23s.61.4.91.76c0-.52.02-1.18.02-1.98.02-.2.07-.36.13-.47s.15-.19.26-.23.26-.06.45-.06c.2,0,.37.02.49.06s.21.12.28.23.11.27.12.48c.02.94.02,1.8.02,2.59s0,1.7-.02,2.74v.96c0,.12.02.21.05.29s.05.14.09.19c.03.06.06.11.09.14.05.09.06.18.05.28s-.06.2-.15.28c-.16.18-.37.31-.61.38s-.46.09-.64.05c-.19-.02-.33-.11-.42-.25s-.15-.38-.16-.7c-.24.34-.53.59-.86.74s-.69.23-1.07.23c-.66,0-1.22-.15-1.69-.45ZM11.63,6.94c.23-.16.39-.39.49-.67s.15-.62.15-1.02c0-.66-.14-1.15-.43-1.48s-.66-.5-1.13-.5c-.55,0-.96.17-1.25.5s-.43.83-.43,1.48c0,.59.14,1.06.42,1.42s.7.54,1.25.53c.38,0,.69-.09.92-.26Z"/>
      <path class="cls-1" d="M16.47,8.26c-.47-.3-.82-.71-1.07-1.24s-.36-1.12-.36-1.79c0-.7.14-1.32.41-1.85s.64-.93,1.09-1.21.94-.42,1.46-.41c.44,0,.81.08,1.12.23s.61.4.91.76c0-.52.02-1.18.02-1.98.02-.2.07-.36.13-.47s.15-.19.26-.23.26-.06.45-.06c.2,0,.37.02.49.06s.21.12.28.23.11.27.12.48c.02.94.02,1.8.02,2.59s0,1.7-.02,2.74v.96c0,.12.02.21.05.29s.05.14.09.19c.03.06.06.11.09.14.05.09.06.18.05.28s-.06.2-.15.28c-.16.18-.37.31-.61.38s-.46.09-.64.05c-.19-.02-.33-.11-.42-.25s-.15-.38-.16-.7c-.24.34-.53.59-.86.74s-.69.23-1.07.23c-.66,0-1.22-.15-1.69-.45ZM19.5,6.94c.23-.16.39-.39.49-.67s.15-.62.15-1.02c0-.66-.14-1.15-.43-1.48s-.66-.5-1.13-.5c-.55,0-.96.17-1.25.5s-.43.83-.43,1.48c0,.59.14,1.06.42,1.42s.7.54,1.25.53c.38,0,.69-.09.92-.26Z"/>
      <path class="cls-1" d="M27.83,8.48c-.47-.19-.85-.46-1.12-.81s-.43-.78-.46-1.26c-.02-.21.06-.36.22-.44s.35-.12.58-.12c.52,0,.8.14.83.43.06.37.23.64.49.83s.59.28.97.28c.41,0,.73-.11.96-.34s.34-.51.35-.84c0-.31-.07-.62-.2-.91s-.33-.65-.59-1.06c-.27-.46-.46-.86-.6-1.2s-.2-.71-.21-1.11l.76.02c-.12.37-.3.73-.54,1.08s-.46.65-.69.9-.39.4-.48.46c-.13.07-.3.04-.51-.11s-.37-.32-.48-.53-.12-.37-.02-.48c.14-.14.68-.71,1.61-1.71.09-.11.3-.17.63-.18s.63.03.91.12.42.21.42.36c0,.25.06.51.19.77s.33.61.6,1.03c.34.52.59.97.76,1.33s.25.73.25,1.11c0,.56-.13,1.04-.39,1.44s-.62.7-1.08.9-.98.3-1.56.3-1.13-.09-1.6-.28Z"/>
      <path class="cls-1" d="M39,8.5c-.18-.14-.34-.4-.49-.78-.09-.23-.2-.63-.3-1.2-.3-.86-.5-1.59-.61-2.19-.02.1-.07.38-.16.82-.22,1.09-.45,1.95-.69,2.58-.15.39-.31.65-.47.77s-.4.19-.7.19c-.28,0-.51-.06-.68-.19s-.34-.37-.49-.71c-.26-.64-.56-1.55-.9-2.73s-.56-2.05-.64-2.62c-.02-.16-.01-.29.03-.38s.12-.15.25-.19.29-.06.52-.06c.28,0,.5.04.66.12s.26.22.31.43c.14.72.36,1.72.67,3.01l.35,1.36c.17-.75.43-1.8.79-3.15.05-.17.15-.55.3-1.12.05-.18.12-.31.21-.39s.17-.14.28-.16.23-.04.4-.04c.18,0,.32.01.43.04s.2.08.28.16.14.2.19.36c.12.38.3,1.03.55,1.97s.46,1.72.63,2.36c.18-.75.36-1.52.53-2.3s.32-1.48.43-2.08c.04-.2.13-.33.28-.42s.37-.12.66-.12.5.04.64.12.21.21.19.4c-.05.42-.17,1-.36,1.73s-.4,1.46-.63,2.16-.41,1.23-.56,1.58c-.12.27-.24.47-.35.6s-.22.21-.34.25-.28.06-.47.06c-.29,0-.52-.07-.7-.21Z"/>
      <path class="cls-1" d="M43.93,7.88c-.61-.59-.91-1.44-.91-2.56,0-.75.14-1.39.41-1.93s.67-.95,1.2-1.23,1.14-.43,1.86-.43,1.3.14,1.8.43.9.7,1.17,1.23.41,1.17.41,1.92c0,1.12-.29,1.97-.88,2.57s-1.41.89-2.46.89c-1.13,0-1.99-.29-2.6-.88ZM47.67,6.7c.3-.36.45-.85.45-1.49s-.15-1.1-.45-1.45-.7-.53-1.19-.53c-.56,0-.98.17-1.28.52s-.45.83-.45,1.46.15,1.15.45,1.5.73.53,1.28.53c.49,0,.89-.18,1.19-.53Z"/>
      <path class="cls-1" d="M51.66,7.88c-.61-.59-.91-1.44-.91-2.56,0-.75.14-1.39.41-1.93s.67-.95,1.2-1.23,1.14-.43,1.86-.43,1.3.14,1.8.43.9.7,1.17,1.23.41,1.17.41,1.92c0,1.12-.29,1.97-.88,2.57s-1.41.89-2.46.89c-1.12,0-1.99-.29-2.6-.88ZM55.4,6.7c.3-.36.45-.85.45-1.49s-.15-1.1-.45-1.45-.7-.53-1.19-.53c-.55,0-.98.17-1.28.52s-.45.83-.45,1.46.15,1.15.45,1.5.73.53,1.28.53c.49,0,.89-.18,1.19-.53Z"/>
      <path class="cls-1" d="M58.87,10.45c-.13-.11-.21-.32-.23-.62-.02-.69-.03-1.82-.03-3.39s0-2.71.04-3.42c.02-.34.05-.6.12-.77s.15-.28.25-.33.25-.08.43-.08c.23,0,.42.05.57.16s.26.34.35.7c.16-.23.41-.45.76-.63s.72-.28,1.11-.28c1.01,0,1.77.29,2.29.91s.78,1.44.78,2.49c0,.67-.13,1.28-.39,1.82s-.61.96-1.05,1.26-.92.45-1.44.45c-.45,0-.85-.08-1.18-.23s-.61-.37-.83-.64c0,.28,0,.62,0,1.03s0,.71-.02.93c-.02.23-.05.4-.12.52s-.16.2-.28.24-.29.06-.5.06c-.28,0-.49-.05-.62-.16ZM63.1,6.64c.31-.33.47-.81.47-1.42,0-.32-.06-.63-.18-.92s-.3-.53-.56-.72-.57-.28-.96-.28c-.42,0-.76.15-1.03.46s-.39.79-.39,1.46c0,.48.06.86.18,1.15s.28.49.49.6.46.17.76.17c.5,0,.91-.17,1.22-.5Z"/>
      <path class="cls-1" d="M71.1,8.48c-.47-.19-.85-.46-1.12-.81s-.43-.78-.46-1.26c-.02-.21.06-.36.22-.44s.35-.12.58-.12c.52,0,.8.14.83.43.06.37.23.64.49.83s.59.28.97.28c.41,0,.73-.11.96-.34s.34-.51.35-.84c0-.31-.07-.62-.2-.91s-.33-.65-.59-1.06c-.27-.46-.46-.86-.6-1.2s-.2-.71-.21-1.11l.76.02c-.12.37-.3.73-.54,1.08s-.46.65-.69.9-.39.4-.48.46c-.13.07-.3.04-.51-.11s-.37-.32-.48-.53-.12-.37-.02-.48c.14-.14.68-.71,1.61-1.71.09-.11.3-.17.63-.18s.63.03.91.12.42.21.42.36c0,.25.06.51.19.77s.33.61.6,1.03c.34.52.59.97.76,1.33s.25.73.25,1.11c0,.56-.13,1.04-.39,1.44s-.62.7-1.08.9-.98.3-1.56.3-1.13-.09-1.6-.28Z"/>
      <path class="cls-1" d="M76.8,10.45c-.13-.11-.21-.32-.23-.62-.02-.69-.03-1.82-.03-3.39s0-2.71.04-3.42c.02-.34.05-.6.12-.77s.15-.28.25-.33.25-.08.43-.08c.23,0,.42.05.57.16s.26.34.35.7c.16-.23.41-.45.76-.63s.72-.28,1.11-.28c1.01,0,1.77.29,2.29.91s.78,1.44.78,2.49c0,.67-.13,1.28-.39,1.82s-.61.96-1.05,1.26-.92.45-1.44.45c-.45,0-.85-.08-1.18-.23s-.61-.37-.83-.64c0,.28,0,.62,0,1.03s0,.71-.02.93c-.02.23-.05.4-.12.52s-.16.2-.28.24-.29.06-.5.06c-.28,0-.49-.05-.62-.16ZM81.03,6.64c.31-.33.47-.81.47-1.42,0-.32-.06-.63-.18-.92s-.3-.53-.56-.72-.57-.28-.96-.28c-.42,0-.76.15-1.03.46s-.39.79-.39,1.46c0,.48.06.86.18,1.15s.28.49.49.6.46.17.76.17c.5,0,.91-.17,1.22-.5Z"/>
      <path class="cls-1" d="M85.02,7.88c-.61-.59-.91-1.44-.91-2.56,0-.75.14-1.39.41-1.93s.67-.95,1.2-1.23,1.14-.43,1.86-.43,1.3.14,1.8.43.9.7,1.17,1.23.41,1.17.41,1.92c0,1.12-.29,1.97-.88,2.57s-1.41.89-2.46.89c-1.12,0-1.99-.29-2.6-.88ZM88.76,6.7c.3-.36.45-.85.45-1.49s-.15-1.1-.45-1.45-.7-.53-1.19-.53c-.55,0-.98.17-1.28.52s-.45.83-.45,1.46.15,1.15.45,1.5.73.53,1.28.53c.49,0,.89-.18,1.19-.53Z"/>
      <path class="cls-1" d="M93.01,8.47c-.29-.18-.49-.43-.62-.73s-.21-.68-.25-1.12c-.02-.37-.03-1.02-.01-1.95,0-.27,0-.6.01-.98h-.19c-.05,0-.11,0-.17,0s-.11-.01-.16-.03c-.09-.02-.15-.09-.21-.21s-.07-.27-.06-.45c0-.23.02-.4.07-.5s.14-.15.27-.16l.47-.04c0-.23.02-.43.04-.57.02-.23.1-.39.22-.48s.33-.13.61-.13c.3,0,.53.04.67.12s.21.23.22.46v.6c.29,0,.58-.01.9-.01s.58,0,.8.02c.17.02.29.07.35.15s.09.22.09.41c0,.06,0,.12.01.16,0,.2-.03.34-.08.43s-.13.15-.26.18c-.1.02-.27.03-.5.04s-.55.01-.96.01h-.3c0,.42,0,.83,0,1.22s0,.78,0,1.15v.28c0,.31.04.54.11.7s.23.24.48.26.63-.04,1.15-.2c.1-.03.19-.02.26.05s.13.16.16.29.04.28.02.45c-.04.27-.24.49-.61.64s-.83.23-1.39.23c-.48,0-.86-.1-1.14-.29Z"/>
      <path class="cls-1" d="M100.86,5.55c-.05-.16-.08-.33-.08-.52.02-.16.05-.3.11-.43s.17-.21.33-.23c.21-.02.92-.03,2.14-.04s1.93,0,2.15.04c.16.02.28.1.35.22s.1.28.11.46c0,.18-.03.35-.08.5s-.18.24-.36.26c-.27.02-1,.03-2.2.03s-1.91,0-2.13-.02c-.17-.02-.28-.1-.33-.26ZM102.9,7.58c-.13-.06-.21-.17-.22-.35-.02-.2-.04-.91-.04-2.13s0-1.93.03-2.14c.02-.17.1-.29.23-.36s.28-.1.45-.11c.19,0,.36.03.51.09s.24.18.25.37c.02.27.04,1,.04,2.2s0,1.91-.03,2.12c-.02.18-.1.29-.26.34s-.33.07-.53.07c-.16,0-.3-.04-.43-.1Z"/>
    </g>
  </g>
</svg>