<?xml version="1.0" encoding="UTF-8"?>
<svg id="Layer_2" data-name="Layer 2" xmlns="http://www.w3.org/2000/svg" viewBox="0 0 35.62 37.77">
  <defs>
    <style>
      .cls-1 {
        fill: #432913;
      }
    </style>
  </defs>
  <g id="Layer_1-2" data-name="Layer 1">
    <g>
      <path class="cls-1" d="M33.6,16.1c-.48,0-.96-.17-1.34-.51l-12.02-10.68c-1.36-1.15-3.41-1.16-4.83,0L3.37,15.59c-.84.74-2.12.66-2.86-.17-.74-.84-.66-2.12.17-2.86L12.78,1.84c2.98-2.46,7.21-2.44,10.11,0l12.06,10.72c.84.74.91,2.02.17,2.86-.4.45-.95.68-1.51.68Z"/>
      <path class="cls-1" d="M27.69,13.79l-8.36-7.2c-.87-.75-2.16-.75-3.03,0l-8.38,7.21c-1,.86-1.5,2.16-1.33,3.47l3.26,18.02c.18,1.42,1.39,2.49,2.82,2.49h10.27c1.42,0,2.63-1.05,2.82-2.46l3.26-18.03c.18-1.32-.32-2.63-1.33-3.5ZM17.82,28.73c-1.6,0-2.89-1.29-2.89-2.89s1.29-2.89,2.89-2.89,2.89,1.29,2.89,2.89-1.29,2.89-2.89,2.89Z"/>
    </g>
  </g>
</svg>