<?xml version="1.0" encoding="UTF-8"?>
<svg id="Layer_2" data-name="Layer 2" xmlns="http://www.w3.org/2000/svg" viewBox="0 0 66.03 12.17">
  <defs>
    <style>
      .cls-1 {
        fill: #432913;
      }
    </style>
  </defs>
  <g id="Layer_1-2" data-name="Layer 1">
    <g>
      <path class="cls-1" d="M8.4,9.2c-.12-.15-.21-.36-.25-.63,0-.03,0-.07-.02-.13,0-.09-.01-.43-.02-1.01s0-1.1,0-1.57v-.62c0-.49-.07-.83-.21-1.03s-.31-.29-.52-.31c-.28-.03-.54.03-.77.18s-.42.35-.56.59-.21.46-.21.67v1.25c.02,1.18.02,1.88,0,2.1-.02.17-.06.3-.13.39s-.17.14-.29.17-.3.04-.54.04c-.19,0-.33-.01-.44-.04s-.19-.08-.25-.17-.1-.21-.12-.39c-.04-.33-.05-1.36-.04-3.08v-.33c0-.46-.07-.8-.18-1.03s-.3-.36-.59-.39c-.27-.03-.51.03-.72.18s-.39.35-.52.59-.19.48-.19.71c-.02.61-.02,1.39-.01,2.36,0,.55,0,.89-.01,1.02-.02.16-.06.29-.12.38s-.16.14-.27.18-.27.05-.47.05-.36-.02-.48-.05-.21-.09-.28-.18-.11-.21-.12-.38C.02,8.27,0,7.36,0,6.01s.03-2.35.08-2.97c.02-.2.08-.35.19-.45s.3-.14.57-.13c.22,0,.38.04.49.1s.2.18.28.38.15.49.21.91c.2-.4.44-.73.73-1s.7-.4,1.22-.4c.47,0,.88.1,1.23.33s.62.62.81,1.18c.13-.3.28-.55.45-.76s.38-.39.63-.53.53-.22.84-.22c.51,0,.92.09,1.24.28s.55.48.71.87.24.9.26,1.51c0,.24,0,.61-.02,1.1l-.02,1.25c0,.07,0,.13.02.17s.03.1.05.16c.02.2.03.34.05.4.02.06.05.14.09.25.04.13.03.25-.04.36-.09.16-.25.3-.48.43s-.46.19-.67.19c-.23,0-.4-.07-.52-.22Z"/>
      <path class="cls-1" d="M12,11.65c-.15-.1-.24-.22-.26-.36s.02-.31.15-.53c.09-.16.17-.27.24-.33s.16-.08.26-.06c.05.02.12.04.18.06s.14.05.23.07c.53.18.98.27,1.34.27.41,0,.73-.11.98-.32s.42-.52.53-.92.16-.88.14-1.44c-.3.38-.58.67-.84.86s-.53.31-.84.38-.64.08-1.02.03c-.52-.05-.94-.29-1.28-.7s-.52-.94-.54-1.58c-.02-.83-.02-1.54-.01-2.12s.02-1.24.04-1.96c.02-.2.08-.35.2-.44s.33-.13.64-.13c.25,0,.43.02.55.05s.21.1.26.21.1.26.11.48c.02.69.02,1.71,0,3.07v.43c.02.26.06.48.11.66s.13.33.26.45c.19.16.47.21.84.15s.71-.22,1.01-.48.45-.57.45-.94v-.66c0-1.21,0-2.13.02-2.77.02-.26.09-.43.21-.52s.33-.14.61-.15c.24,0,.42,0,.54.04s.21.1.27.2.1.24.12.43c.02.34.04,1.15.04,2.44s-.01,2.21-.05,2.76c0,.14,0,.28-.02.42-.05.62-.17,1.18-.36,1.68s-.52.91-1,1.24-1.12.51-1.94.53c-.91.02-1.64-.15-2.19-.52Z"/>
      <path class="cls-1" d="M22.55,11.13c-.13-.11-.21-.32-.23-.62-.02-.69-.03-1.82-.03-3.39s0-2.71.04-3.42c.02-.34.05-.6.12-.77s.15-.28.25-.33.25-.08.43-.08c.23,0,.42.05.57.16s.26.34.35.7c.16-.23.41-.45.76-.63s.72-.28,1.11-.28c1.01,0,1.77.29,2.29.91s.78,1.44.78,2.49c0,.67-.13,1.28-.39,1.82s-.61.96-1.05,1.26-.92.45-1.44.45c-.45,0-.85-.08-1.18-.23s-.61-.37-.83-.64c0,.28,0,.62,0,1.03s0,.71-.02.93c-.02.23-.05.4-.12.52s-.16.2-.28.24-.29.06-.5.06c-.28,0-.49-.05-.62-.16ZM26.78,7.32c.31-.33.47-.81.47-1.42,0-.32-.06-.63-.18-.92s-.3-.53-.56-.72-.57-.28-.96-.28c-.42,0-.76.15-1.03.46s-.39.79-.39,1.46c0,.48.06.86.18,1.15s.28.49.49.6.46.17.76.17c.5,0,.91-.17,1.22-.5Z"/>
      <path class="cls-1" d="M32.61,9.22c-.28-.13-.5-.32-.68-.56s-.28-.51-.3-.83c-.04-.52.06-1.09.3-1.72s.58-1.31,1.02-2.04c-.5-.03-.98-.08-1.44-.14-.06.3-.13.6-.22.91s-.15.52-.21.63c-.05.12-.14.21-.26.26s-.26.07-.41.07-.3-.03-.45-.09-.26-.12-.33-.19-.11-.16-.12-.26,0-.23.02-.39l.04-.16c.1-.42.23-.9.38-1.44l.18-.61c.06-.23.16-.38.3-.46s.32-.1.55-.04c.18.05.33.11.44.19s.17.2.17.36c.38-.09.74-.14,1.07-.16s.68,0,1.05.03c.2.02.38.08.54.16s.29.21.36.37.06.38-.05.64c-.09.21-.19.42-.29.63s-.2.41-.29.6c-.25.49-.44.88-.56,1.16s-.2.54-.23.79c-.05.3-.02.52.08.63s.26.13.5.05c.27-.05.48-.19.66-.43s.34-.53.49-.88c.12-.24.21-.41.28-.51s.14-.14.23-.13c.16,0,.32.04.48.12s.3.18.41.3.16.23.16.33c0,.25-.14.62-.39,1.11s-.61.93-1.05,1.31-.96.58-1.53.58c-.31,0-.61-.07-.88-.2Z"/>
      <path class="cls-1" d="M37.88,8.56c-.61-.59-.91-1.44-.91-2.56,0-.75.14-1.39.41-1.93s.67-.95,1.2-1.23,1.14-.43,1.86-.43,1.3.14,1.8.43.9.7,1.17,1.23.41,1.17.41,1.92c0,1.12-.29,1.97-.88,2.57s-1.41.89-2.46.89c-1.12,0-1.99-.29-2.6-.88ZM41.62,7.38c.3-.36.45-.85.45-1.49s-.15-1.1-.45-1.45-.7-.53-1.19-.53c-.55,0-.98.17-1.28.52s-.45.83-.45,1.46.15,1.15.45,1.5.73.53,1.28.53c.49,0,.89-.18,1.19-.53Z"/>
      <path class="cls-1" d="M45.35,10.45c-.47-.84-.71-2.04-.71-3.6,0-.86.12-1.76.35-2.69s.65-1.74,1.25-2.42,1.42-1.01,2.44-1c.21,0,.38.03.49.05s.21.09.28.18.1.24.1.45c0,.24-.04.43-.13.56s-.2.19-.32.16c-.54-.05-1.01.05-1.41.32s-.71.66-.94,1.17-.36,1.1-.41,1.78c1.3-.2,2.25-.38,2.85-.56.12-.04.23-.01.32.08s.16.21.2.36.06.29.06.41c0,.1-.02.19-.05.28s-.07.13-.12.16c-.13.07-.37.13-.71.19s-.95.14-1.83.24v.02c.61.04,1.11.2,1.49.47s.66.62.83,1.03.25.84.25,1.28c0,.41-.08.79-.23,1.14s-.4.64-.73.86-.76.33-1.28.33c-.9,0-1.58-.42-2.06-1.27ZM48.23,9.54c.1-.53-.02-1.05-.36-1.58s-.87-.83-1.58-.9c-.02.55.02,1.07.1,1.58s.21.91.4,1.22.41.47.69.47c.41,0,.66-.26.76-.79Z"/>
      <path class="cls-1" d="M51.02,1.59c-.18-.19-.27-.42-.27-.69s.09-.48.27-.65.43-.25.74-.25.53.08.7.24.26.38.27.66c0,.27-.09.49-.27.69s-.41.29-.7.29c-.31,0-.56-.09-.74-.28ZM51.33,9.25c-.13-.09-.24-.22-.32-.4s-.13-.41-.14-.69c-.04-.51-.06-1.32-.06-2.43s.02-2.03.06-2.74c.02-.2.1-.34.23-.42s.35-.11.66-.11c.23,0,.41.02.53.05s.21.1.27.2.09.25.09.45c.02.55.02,1.42,0,2.62,0,.44-.01.84-.01,1.21s0,.66.02.88c0,.11.05.21.14.32.02.04.04.06.05.07.04.08.06.16.06.24s-.03.17-.08.26c-.09.15-.24.29-.46.42s-.43.19-.62.19c-.15,0-.29-.04-.42-.13Z"/>
      <path class="cls-1" d="M54.46,8.14c-.49-.87-.72-2.01-.68-3.43.03-1.28.31-2.33.84-3.15s1.33-1.22,2.39-1.2c.45,0,.83.14,1.13.39s.52.56.65.93.19.73.16,1.09c-.02.62-.2,1.15-.53,1.61s-.74.82-1.24,1.08-1.02.43-1.57.5c.08.52.23.98.45,1.38s.56.61,1.01.62c.45,0,.77-.08.96-.28s.35-.42.47-.69c.02-.05.04-.09.06-.12s.04-.05.05-.06c.16-.02.28.04.36.2s.12.38.11.67c0,.34-.12.65-.35.91s-.5.47-.84.62-.69.22-1.06.22c-1.1,0-1.9-.43-2.39-1.3ZM56.53,4.45c.31-.19.57-.43.77-.72s.31-.6.32-.93c0-.34-.05-.61-.18-.8s-.29-.29-.5-.29c-.31,0-.57.17-.79.51s-.37.75-.46,1.24-.14.94-.13,1.34c.34-.05.66-.16.97-.35Z"/>
      <path class="cls-1" d="M60.63,8.53c-.54-.59-.82-1.45-.83-2.58,0-.57.1-1.12.29-1.65s.54-.98,1.04-1.34,1.18-.54,2.05-.54c.61,0,1.13.11,1.56.33s.75.51.97.88.32.77.32,1.21c0,.38-.06.71-.18,1.01-.09.21-.35.37-.8.47s-.92.16-1.41.16c-.38,0-.78-.02-1.19-.06s-.72-.08-.92-.13c.03,1.18.59,1.77,1.66,1.76.32,0,.62-.06.9-.15s.57-.21.86-.36c.08-.03.15-.06.22-.09s.12-.05.16-.05c.1,0,.2.04.3.13s.18.2.25.33c.1.19.14.36.11.52s-.15.31-.35.44c-.38.23-.77.39-1.15.49s-.82.15-1.31.14c-1.15-.02-1.99-.32-2.54-.91ZM62.39,5.47c.42.04.84.04,1.27.02s.72-.07.89-.15c.03-.5-.08-.88-.33-1.15s-.6-.4-1.04-.4c-.31,0-.58.04-.79.13s-.39.25-.53.47-.23.53-.27.93c.12.05.39.1.81.13Z"/>
    </g>
  </g>
</svg>