<?xml version="1.0" encoding="UTF-8"?>
<svg id="Layer_2" data-name="Layer 2" xmlns="http://www.w3.org/2000/svg" viewBox="0 0 86.01 11.8">
  <defs>
    <style>
      .cls-1 {
        fill: #432913;
      }
    </style>
  </defs>
  <g id="Layer_1-2" data-name="Layer 1">
    <g>
      <path class="cls-1" d="M.45,8.95c-.11-.03-.2-.08-.26-.17s-.11-.22-.13-.4c-.04-.28-.06-1.15-.06-2.61s.02-2.46.06-3.02c.02-.21.08-.38.18-.49s.3-.18.58-.18c.26,0,.44.03.56.09s.2.18.26.36.13.5.21.95c.32-.52.68-.89,1.08-1.1s.81-.31,1.24-.31.77.08,1.1.25.58.4.77.72.29.69.3,1.13c.02.12,0,.71-.02,1.78,0,.29-.01.55-.02.79s0,.48,0,.73c0,.06.01.12.04.18s.06.11.1.16c.05.07.08.13.11.17s.04.1.04.17c0,.12-.07.24-.2.37s-.29.24-.49.33-.36.13-.51.13c-.23,0-.44-.1-.6-.31s-.26-.51-.29-.92c0-.29,0-.81,0-1.56,0-.38,0-.71.01-1.02s0-.53,0-.68c-.02-.28-.09-.52-.22-.73s-.37-.3-.7-.3c-.23,0-.49.08-.76.24s-.5.35-.68.58-.28.43-.28.6v1.3c0,1.3-.01,2.03-.04,2.18-.03.17-.08.3-.14.39s-.15.15-.27.18-.29.05-.52.05c-.19,0-.34-.01-.45-.04Z"/>
      <path class="cls-1" d="M8.33,8.17c-.54-.59-.82-1.45-.83-2.58,0-.57.1-1.12.29-1.65s.54-.98,1.04-1.34,1.18-.54,2.05-.54c.61,0,1.13.11,1.56.33s.75.51.97.88.32.77.32,1.21c0,.38-.06.71-.18,1.01-.09.21-.35.37-.8.47s-.92.16-1.41.16c-.38,0-.78-.02-1.19-.06s-.72-.08-.92-.13c.03,1.18.59,1.77,1.66,1.76.32,0,.62-.06.9-.15s.57-.21.86-.36c.08-.03.15-.06.22-.09s.12-.05.16-.05c.1,0,.2.04.3.13s.18.2.25.33c.1.19.14.36.11.52s-.15.31-.35.44c-.38.23-.77.39-1.15.49s-.82.15-1.31.14c-1.15-.02-1.99-.32-2.54-.91ZM10.08,5.1c.42.04.84.04,1.27.02s.72-.07.89-.15c.03-.5-.08-.88-.33-1.15s-.6-.4-1.04-.4c-.31,0-.58.04-.79.13s-.39.25-.53.47-.23.53-.27.93c.12.05.39.1.81.13Z"/>
      <path class="cls-1" d="M15.46,8.77c-.3-.18-.53-.42-.69-.73s-.23-.66-.23-1.05c0-.63.19-1.14.58-1.52s.96-.57,1.73-.57c.26,0,.51.02.75.05s.5.08.79.13c.23.05.4.09.5.12,0-.58-.14-1-.41-1.25s-.63-.39-1.07-.39c-.32,0-.61.03-.86.09s-.52.14-.8.25c-.09.03-.17.06-.24.08s-.13.04-.18.04c-.1,0-.2-.05-.28-.15s-.16-.22-.21-.36-.08-.27-.08-.38c0-.12.03-.24.1-.35s.17-.2.3-.28c.39-.2.8-.34,1.22-.41s.88-.1,1.35-.09c.56.02,1.06.14,1.51.37s.79.58,1.05,1.05.4,1.06.42,1.77c0,.16,0,.29,0,.41s0,.26-.02.43c-.02.52-.04.88-.04,1.08s.02.35.07.45.11.19.19.26c.03.02.06.05.08.08s.04.06.04.09c0,.2-.06.37-.18.52s-.26.27-.43.36-.33.13-.48.13c-.17,0-.33-.1-.48-.29s-.27-.51-.38-.94c-.52.83-1.36,1.24-2.5,1.24-.45,0-.82-.09-1.12-.26ZM18.38,7.32c.34-.25.52-.63.52-1.14-.08-.02-.14-.03-.2-.04s-.12-.03-.2-.04c-.19-.05-.37-.08-.55-.11s-.38-.04-.6-.04c-.43,0-.75.06-.96.19s-.32.36-.33.7c0,.3.08.51.25.64s.41.2.71.2c.56,0,1.02-.12,1.36-.38Z"/>
      <path class="cls-1" d="M24.46,8.86c-.28-.13-.5-.32-.68-.56s-.28-.51-.3-.83c-.04-.52.06-1.09.3-1.72s.58-1.31,1.02-2.04c-.5-.03-.98-.08-1.44-.14-.06.3-.13.6-.22.91s-.15.52-.21.63c-.05.12-.14.21-.26.26s-.26.07-.41.07-.3-.03-.45-.09-.26-.12-.33-.19-.11-.16-.12-.26,0-.23.02-.39l.04-.16c.1-.42.23-.9.38-1.44l.18-.61c.06-.23.16-.38.3-.46s.32-.1.55-.04c.18.05.33.11.44.19s.17.2.17.36c.38-.09.74-.14,1.07-.16s.68,0,1.05.03c.2.02.38.08.54.16s.29.21.36.37.06.38-.05.64c-.09.21-.19.42-.29.63s-.2.41-.29.6c-.25.49-.44.88-.56,1.16s-.2.54-.23.79c-.05.3-.02.52.08.63s.26.13.5.05c.27-.05.48-.19.66-.43s.34-.53.49-.88c.12-.24.21-.41.28-.51s.14-.14.23-.13c.16,0,.32.04.48.12s.3.18.41.3.16.23.16.33c0,.25-.14.62-.39,1.11s-.61.93-1.05,1.31-.96.58-1.53.58c-.31,0-.61-.07-.88-.2Z"/>
      <path class="cls-1" d="M31.85,8.8c-.36-.18-.68-.44-.95-.79-.02.3-.05.53-.11.67s-.14.24-.26.29-.27.07-.47.07c-.3,0-.51-.04-.64-.16s-.21-.33-.23-.64c-.02-.42-.04-1.09-.04-2.02s0-1.87,0-2.84c.02-.91.03-1.67.04-2.3.02-.21.07-.38.13-.49s.16-.2.28-.25.27-.07.46-.07c.21,0,.38.02.5.06s.22.12.29.23.11.28.13.51c.02.76.02,1.44,0,2.04.26-.37.57-.63.93-.8s.72-.25,1.08-.25c.6,0,1.13.16,1.59.47s.82.73,1.07,1.27.38,1.12.38,1.76c0,.68-.11,1.28-.34,1.79s-.57.92-1.04,1.22-1.04.46-1.72.46c-.35,0-.71-.08-1.07-.26ZM33.86,7.01c.27-.34.41-.79.41-1.36,0-.36-.06-.69-.18-.99s-.3-.54-.54-.71-.52-.26-.85-.26c-.58,0-1,.16-1.28.49s-.41.82-.41,1.48.15,1.13.44,1.42.71.44,1.25.44c.5,0,.89-.17,1.16-.5Z"/>
      <path class="cls-1" d="M37.77,11.29c-.15-.1-.24-.22-.26-.36s.02-.31.15-.53c.09-.16.17-.27.24-.33s.16-.08.26-.06c.05.02.12.04.18.06s.14.05.23.07c.53.18.98.27,1.34.27.41,0,.73-.11.98-.32s.42-.52.53-.92.16-.88.14-1.44c-.3.38-.58.67-.84.86s-.53.31-.84.38-.64.08-1.02.03c-.52-.05-.94-.29-1.28-.7s-.52-.94-.54-1.58c-.02-.83-.02-1.54-.01-2.12s.02-1.24.04-1.96c.02-.2.08-.35.2-.44s.33-.13.64-.13c.25,0,.43.02.55.05s.21.1.26.21.1.26.11.48c.02.69.02,1.71,0,3.07v.43c.02.26.06.48.11.66s.13.33.26.45c.19.16.47.21.84.15s.71-.22,1.01-.48.45-.57.45-.94v-.66c0-1.21,0-2.13.02-2.77.02-.26.09-.43.21-.52s.33-.14.61-.15c.24,0,.42,0,.54.04s.21.1.27.2.1.24.12.43c.02.34.04,1.15.04,2.44s-.01,2.21-.05,2.76c0,.14,0,.28-.02.42-.05.62-.17,1.18-.36,1.68s-.52.91-1,1.24-1.12.51-1.94.53c-.91.02-1.64-.15-2.19-.52Z"/>
      <path class="cls-1" d="M48.77,8.77c-.3-.18-.53-.42-.69-.73s-.23-.66-.23-1.05c0-.63.19-1.14.58-1.52s.96-.57,1.73-.57c.26,0,.51.02.75.05s.5.08.79.13c.23.05.4.09.5.12,0-.58-.14-1-.41-1.25s-.63-.39-1.07-.39c-.32,0-.61.03-.86.09s-.52.14-.8.25c-.09.03-.17.06-.24.08s-.13.04-.18.04c-.1,0-.2-.05-.28-.15s-.16-.22-.21-.36-.08-.27-.08-.38c0-.12.03-.24.1-.35s.17-.2.3-.28c.39-.2.8-.34,1.22-.41s.88-.1,1.35-.09c.56.02,1.06.14,1.51.37s.79.58,1.05,1.05.4,1.06.42,1.77c0,.16,0,.29,0,.41s0,.26-.02.43c-.02.52-.04.88-.04,1.08s.02.35.07.45.11.19.19.26c.03.02.06.05.08.08s.04.06.04.09c0,.2-.06.37-.18.52s-.26.27-.43.36-.33.13-.48.13c-.17,0-.33-.1-.48-.29s-.27-.51-.38-.94c-.52.83-1.36,1.24-2.5,1.24-.45,0-.82-.09-1.12-.26ZM51.68,7.32c.34-.25.52-.63.52-1.14-.08-.02-.14-.03-.2-.04s-.12-.03-.2-.04c-.19-.05-.37-.08-.55-.11s-.38-.04-.6-.04c-.43,0-.75.06-.96.19s-.32.36-.33.7c0,.3.08.51.25.64s.41.2.71.2c.56,0,1.02-.12,1.36-.38Z"/>
      <path class="cls-1" d="M55.61,7.78c-.49-.87-.72-2.01-.68-3.43.03-1.28.31-2.33.84-3.15S57.1-.02,58.17,0c.45,0,.83.14,1.13.39s.52.56.65.93.19.73.16,1.09c-.02.62-.2,1.15-.53,1.61s-.74.82-1.24,1.08-1.02.43-1.57.5c.08.52.23.98.45,1.38s.56.61,1.01.62c.45,0,.77-.08.96-.28s.35-.42.47-.69c.02-.05.04-.09.06-.12s.04-.05.05-.06c.16-.02.28.04.36.2s.12.38.11.67c0,.34-.12.65-.35.91s-.5.47-.84.62-.69.22-1.06.22c-1.1,0-1.9-.43-2.39-1.3ZM57.69,4.09c.31-.19.57-.43.77-.72s.31-.6.32-.93c0-.34-.05-.61-.18-.8s-.29-.29-.5-.29c-.31,0-.57.17-.79.51s-.37.75-.46,1.24-.14.94-.13,1.34c.34-.05.66-.16.97-.35Z"/>
      <path class="cls-1" d="M61.79,8.17c-.54-.59-.82-1.45-.83-2.58,0-.57.1-1.12.29-1.65s.54-.98,1.04-1.34,1.18-.54,2.05-.54c.61,0,1.13.11,1.56.33s.75.51.97.88.32.77.32,1.21c0,.38-.06.71-.18,1.01-.09.21-.35.37-.8.47s-.92.16-1.41.16c-.38,0-.78-.02-1.19-.06s-.72-.08-.92-.13c.03,1.18.59,1.77,1.66,1.76.32,0,.62-.06.9-.15s.57-.21.86-.36c.08-.03.15-.06.22-.09s.12-.05.16-.05c.1,0,.2.04.3.13s.18.2.25.33c.1.19.14.36.11.52s-.15.31-.35.44c-.38.23-.77.39-1.15.49s-.82.15-1.31.14c-1.15-.02-1.99-.32-2.54-.91ZM63.54,5.1c.42.04.84.04,1.27.02s.72-.07.89-.15c.03-.5-.08-.88-.33-1.15s-.6-.4-1.04-.4c-.31,0-.58.04-.79.13s-.39.25-.53.47-.23.53-.27.93c.12.05.39.1.81.13Z"/>
      <path class="cls-1" d="M70.82,8.86c-.28-.13-.5-.32-.68-.56s-.28-.51-.3-.83c-.04-.52.06-1.09.3-1.72s.58-1.31,1.02-2.04c-.5-.03-.98-.08-1.44-.14-.06.3-.13.6-.22.91s-.15.52-.21.63c-.05.12-.14.21-.26.26s-.26.07-.41.07-.3-.03-.45-.09-.26-.12-.33-.19-.11-.16-.12-.26,0-.23.02-.39l.04-.16c.1-.42.23-.9.38-1.44l.18-.61c.06-.23.16-.38.3-.46s.32-.1.55-.04c.18.05.33.11.44.19s.17.2.17.36c.38-.09.74-.14,1.07-.16s.68,0,1.05.03c.2.02.38.08.54.16s.29.21.36.37.06.38-.05.64c-.09.21-.19.42-.29.63s-.2.41-.29.6c-.25.49-.44.88-.56,1.16s-.2.54-.23.79c-.05.3-.02.52.08.63s.26.13.5.05c.27-.05.48-.19.66-.43s.34-.53.49-.88c.12-.24.21-.41.28-.51s.14-.14.23-.13c.16,0,.32.04.48.12s.3.18.41.3.16.23.16.33c0,.25-.14.62-.39,1.11s-.61.93-1.05,1.31-.96.58-1.53.58c-.31,0-.61-.07-.88-.2Z"/>
      <path class="cls-1" d="M76.36,8.78c-.29-.18-.49-.43-.62-.73s-.21-.68-.25-1.12c-.02-.37-.03-1.02-.01-1.95,0-.27,0-.6.01-.98h-.19c-.05,0-.11,0-.17,0s-.11-.01-.16-.03c-.09-.02-.15-.09-.21-.21s-.07-.27-.06-.45c0-.23.02-.4.07-.5s.14-.15.27-.16l.47-.04c0-.23.02-.43.04-.57.02-.23.1-.39.22-.48s.33-.13.61-.13c.3,0,.53.04.67.12s.21.23.22.46v.6c.29,0,.58-.01.9-.01s.58,0,.8.02c.17.02.29.07.35.15s.09.22.09.41c0,.06,0,.12.01.16,0,.2-.03.34-.08.43s-.13.15-.26.18c-.1.02-.27.03-.5.04s-.55.01-.96.01h-.3c0,.42,0,.83,0,1.22s0,.78,0,1.15v.28c0,.31.04.54.11.7s.23.24.48.26.63-.04,1.15-.2c.1-.03.19-.02.26.05s.13.16.16.29.04.28.02.45c-.04.27-.24.49-.61.64s-.83.23-1.39.23c-.48,0-.86-.1-1.14-.29Z"/>
      <path class="cls-1" d="M81.38,8.8c-.47-.19-.85-.46-1.12-.81s-.43-.78-.46-1.26c-.02-.21.06-.36.22-.44s.35-.12.58-.12c.52,0,.8.14.83.43.06.37.23.64.49.83s.59.28.97.28c.41,0,.73-.11.96-.34s.34-.51.35-.84c0-.31-.07-.62-.2-.91s-.33-.65-.59-1.06c-.27-.46-.46-.86-.6-1.2s-.2-.71-.21-1.11l.76.02c-.12.37-.3.73-.54,1.08s-.46.65-.69.9-.39.4-.48.46c-.13.07-.3.04-.51-.11s-.37-.32-.48-.53-.12-.37-.02-.48c.14-.14.68-.71,1.61-1.71.09-.11.3-.17.63-.18s.63.03.91.12.42.21.42.36c0,.25.06.51.19.77s.33.61.6,1.03c.34.52.59.97.76,1.33s.25.73.25,1.11c0,.56-.13,1.04-.39,1.44s-.62.7-1.08.9-.98.3-1.56.3-1.13-.09-1.6-.28Z"/>
    </g>
  </g>
</svg>