<?xml version="1.0" encoding="UTF-8"?>
<svg id="Layer_2" data-name="Layer 2" xmlns="http://www.w3.org/2000/svg" viewBox="0 0 22.36 11.3">
  <defs>
    <style>
      .cls-1 {
        fill: #231f20;
      }
    </style>
  </defs>
  <g id="Layer_1-2" data-name="Layer 1">
    <g>
      <path class="cls-1" d="M1.65,9.15c-.29-.18-.49-.43-.62-.73s-.21-.68-.25-1.12c-.02-.37-.03-1.02-.01-1.95,0-.27,0-.6.01-.98h-.19c-.05,0-.11,0-.17,0s-.11-.01-.16-.03c-.09-.02-.15-.09-.21-.21S0,3.85,0,3.67c0-.23.02-.4.07-.5s.14-.15.27-.16l.47-.04c0-.23.02-.43.04-.57.02-.23.1-.39.22-.48s.33-.13.61-.13c.3,0,.53.04.67.12s.21.23.22.46v.6c.29,0,.58-.01.9-.01s.58,0,.8.02c.17.02.29.07.35.15s.09.22.09.41c0,.06,0,.12.01.16,0,.2-.03.34-.08.43s-.13.15-.26.18c-.1.02-.27.03-.5.04s-.55.01-.96.01h-.3c0,.42,0,.83,0,1.22s0,.78,0,1.15v.28c0,.31.04.54.11.7s.23.24.48.26.63-.04,1.15-.2c.1-.03.19-.02.26.05s.13.16.16.29.04.28.02.45c-.04.27-.24.49-.61.64s-.83.23-1.39.23c-.48,0-.86-.1-1.14-.29Z"/>
      <path class="cls-1" d="M5.93,1.59c-.18-.19-.27-.42-.27-.69s.09-.48.27-.65.43-.25.74-.25.53.08.7.24.26.38.27.66c0,.27-.09.49-.27.69s-.41.29-.7.29c-.31,0-.56-.09-.74-.28ZM6.24,9.25c-.13-.09-.24-.22-.32-.4s-.13-.41-.14-.69c-.04-.51-.06-1.32-.06-2.43s.02-2.03.06-2.74c.02-.2.1-.34.23-.42s.35-.11.66-.11c.23,0,.41.02.53.05s.21.1.27.2.09.25.09.45c.02.55.02,1.42,0,2.62,0,.44-.01.84-.01,1.21s0,.66.02.88c0,.11.05.21.14.32.02.04.04.06.05.07.04.08.06.16.06.24s-.03.17-.08.26c-.09.15-.24.29-.46.42s-.43.19-.62.19c-.15,0-.29-.04-.42-.13Z"/>
      <path class="cls-1" d="M9.17,11.13c-.13-.11-.21-.32-.23-.62-.02-.69-.03-1.82-.03-3.39s0-2.71.04-3.42c.02-.34.05-.6.12-.77s.15-.28.25-.33.25-.08.43-.08c.23,0,.42.05.57.16s.26.34.35.7c.16-.23.41-.45.76-.63s.72-.28,1.11-.28c1.01,0,1.77.29,2.29.91s.78,1.44.78,2.49c0,.67-.13,1.28-.39,1.82s-.61.96-1.05,1.26-.92.45-1.44.45c-.45,0-.85-.08-1.18-.23s-.61-.37-.83-.64c0,.28,0,.62,0,1.03s0,.71-.02.93c-.02.23-.05.4-.12.52s-.16.2-.28.24-.29.06-.5.06c-.28,0-.49-.05-.62-.16ZM13.4,7.32c.31-.33.47-.81.47-1.42,0-.32-.06-.63-.18-.92s-.3-.53-.56-.72-.57-.28-.96-.28c-.42,0-.76.15-1.03.46s-.39.79-.39,1.46c0,.48.06.86.18,1.15s.28.49.49.6.46.17.76.17c.5,0,.91-.17,1.22-.5Z"/>
      <path class="cls-1" d="M17.72,9.16c-.47-.19-.85-.46-1.12-.81s-.43-.78-.46-1.26c-.02-.21.06-.36.22-.44s.35-.12.58-.12c.52,0,.8.14.83.43.06.37.23.64.49.83s.59.28.97.28c.41,0,.73-.11.96-.34s.34-.51.35-.84c0-.31-.07-.62-.2-.91s-.33-.65-.59-1.06c-.27-.46-.46-.86-.6-1.2s-.2-.71-.21-1.11l.76.02c-.12.37-.3.73-.54,1.08s-.46.65-.69.9-.39.4-.48.46c-.13.07-.3.04-.51-.11s-.37-.32-.48-.53-.12-.37-.02-.48c.14-.14.68-.71,1.61-1.71.09-.11.3-.17.63-.18s.63.03.91.12.42.21.42.36c0,.25.06.51.19.77s.33.61.6,1.03c.34.52.59.97.76,1.33s.25.73.25,1.11c0,.56-.13,1.04-.39,1.44s-.62.7-1.08.9-.98.3-1.56.3-1.13-.09-1.6-.28Z"/>
    </g>
  </g>
</svg>