<?xml version="1.0" encoding="UTF-8"?>
<svg id="Layer_2" data-name="Layer 2" xmlns="http://www.w3.org/2000/svg" xmlns:xlink="http://www.w3.org/1999/xlink" viewBox="0 0 51.68 51.68">
  <defs>
    <style>
      .cls-1 {
        fill: none;
      }

      .cls-2 {
        fill: url(#linear-gradient-2);
      }

      .cls-3 {
        fill: #231f20;
      }

      .cls-4 {
        fill: url(#linear-gradient);
      }

      .cls-5 {
        fill: #fdfefe;
        stroke: #422d1e;
        stroke-miterlimit: 10;
        stroke-width: .75px;
      }

      .cls-6 {
        fill: #422d1e;
      }
    </style>
    <linearGradient id="linear-gradient" x1="37.24" y1="23.85" x2="14.39" y2="23.85" gradientUnits="userSpaceOnUse">
      <stop offset="0" stop-color="#d6b2d4"/>
      <stop offset=".19" stop-color="#d1add0"/>
      <stop offset=".42" stop-color="#c39ec6"/>
      <stop offset=".66" stop-color="#ad86b4"/>
      <stop offset=".91" stop-color="#8f659d"/>
      <stop offset="1" stop-color="#835994"/>
    </linearGradient>
    <linearGradient id="linear-gradient-2" x1="16.2" y1="13.14" x2="35.47" y2="13.14" gradientUnits="userSpaceOnUse">
      <stop offset="0" stop-color="#221b1f"/>
      <stop offset="1" stop-color="#231f20"/>
    </linearGradient>
  </defs>
  <g id="Layer_1-2" data-name="Layer 1">
    <g>
      <circle class="cls-1" cx="25.84" cy="25.84" r="25.84"/>
      <path class="cls-6" d="M28.76,43.62c.94-.16,3.25-.73,3.83-1.45.54-.67.16-2.56-1.05-2.83-.95-.21-2.23.57-2.67,1.14l-1.41-3.28-1.23.56s1.8,5.99,2.53,5.86Z"/>
      <path class="cls-6" d="M25.32,44.64c-.94.13-3.32.27-4.09-.25-.71-.48-.91-2.4.16-3.02.85-.49,2.29-.11,2.89.3l.37-3.55,1.34.17s.06,6.25-.67,6.35Z"/>
      <path class="cls-4" d="M37.24,24.59c0,8.28-3.23,14.25-11.42,14.25s-11.43-5.97-11.43-14.25c0-6.61,5.98-15.73,11.43-15.73s11.42,8.68,11.42,15.73Z"/>
      <path class="cls-6" d="M28.05,26.76c1-.15.08,1.99-1.85,1.99-1.79,0-2.81-2.09-1.81-1.99,1.26.13,2.58.16,3.66,0Z"/>
      <g>
        <ellipse class="cls-5" cx="30.2" cy="22.18" rx="1.61" ry="2.22"/>
        <circle class="cls-6" cx="29.4" cy="21.66" r="1.07"/>
        <ellipse class="cls-5" cx="22.52" cy="22.48" rx="1.61" ry="2.22"/>
        <circle class="cls-6" cx="21.72" cy="21.96" r="1.07"/>
      </g>
      <path class="cls-3" d="M34.35,17.18l.78,2.83c.14.51.17.91.11,1.21-.07.3-.26.49-.56.58s-.58.02-.79-.2-.39-.59-.53-1.09l-.78-2.83-1.11.31.73,2.65c.28,1.01.65,1.7,1.12,2.09.33.27.71.39,1.14.38l1.7,6.19,1.08-.3-1.7-6.19c.37-.21.63-.51.78-.91.21-.57.17-1.36-.11-2.37l-.73-2.65-1.11.31Z"/>
      <path class="cls-3" d="M17.28,16.93l-.78,2.83c-.14.51-.17.91-.11,1.21.07.3.26.49.56.58s.58.02.79-.2.39-.59.53-1.09l.78-2.83,1.11.31-.73,2.65c-.28,1.01-.65,1.7-1.12,2.09-.33.27-.71.39-1.14.38l-1.7,6.19-1.08-.3,1.7-6.19c-.37-.21-.63-.51-.78-.91-.21-.57-.17-1.36.11-2.37l.73-2.65,1.11.31Z"/>
      <path class="cls-2" d="M35.47,16.55c0,3.51-19.27,3.99-19.27,0,0-5.32,4.31-9.64,9.64-9.64s9.64,4.31,9.64,9.64Z"/>
    </g>
  </g>
</svg>