<?xml version="1.0" encoding="UTF-8"?>
<svg id="Layer_2" data-name="Layer 2" xmlns="http://www.w3.org/2000/svg" xmlns:xlink="http://www.w3.org/1999/xlink" viewBox="0 0 51.68 51.68">
  <defs>
    <style>
      .cls-1 {
        fill: none;
      }

      .cls-2 {
        fill: url(#linear-gradient-3);
      }

      .cls-3 {
        fill: url(#linear-gradient-2);
      }

      .cls-4 {
        fill: url(#linear-gradient);
      }

      .cls-5 {
        fill: #fdfefe;
        stroke: #422d1e;
        stroke-miterlimit: 10;
        stroke-width: .75px;
      }

      .cls-6 {
        fill: #422d1e;
      }
    </style>
    <linearGradient id="linear-gradient" x1="37.83" y1="25.04" x2="14.98" y2="25.04" gradientUnits="userSpaceOnUse">
      <stop offset="0" stop-color="#f99d1e"/>
      <stop offset=".11" stop-color="#f5a045"/>
      <stop offset=".25" stop-color="#f2a46e"/>
      <stop offset=".4" stop-color="#efa791"/>
      <stop offset=".54" stop-color="#eca9ab"/>
      <stop offset=".69" stop-color="#ebabbe"/>
      <stop offset=".84" stop-color="#eaacca"/>
      <stop offset="1" stop-color="#eaadce"/>
    </linearGradient>
    <linearGradient id="linear-gradient-2" x1="132.59" y1="204.49" x2="145.24" y2="204.49" gradientTransform="translate(-68.27 -122.93) rotate(-8.31) scale(.93 .73) skewX(-14.58)" gradientUnits="userSpaceOnUse">
      <stop offset="0" stop-color="#ef543b"/>
      <stop offset="1" stop-color="#a5509f"/>
    </linearGradient>
    <linearGradient id="linear-gradient-3" x1="32.99" y1="19.21" x2="18.46" y2="10.83" gradientTransform="matrix(1,0,0,1,0,0)" xlink:href="#linear-gradient-2"/>
  </defs>
  <g id="Layer_1-2" data-name="Layer 1">
    <g>
      <path class="cls-6" d="M28.33,44.37c.94.13,3.32.27,4.09-.25.71-.48.91-2.4-.16-3.02-.85-.49-2.29-.11-2.89.3l-.37-3.55-1.34.17s-.06,6.25.67,6.35Z"/>
      <path class="cls-6" d="M25.01,44.37c-.94.13-3.32.27-4.09-.25-.71-.48-.91-2.4.16-3.02.85-.49,2.29-.11,2.89.3l.37-3.55,1.34.17s.06,6.25-.67,6.35Z"/>
      <path class="cls-4" d="M37.83,25.78c0,8.28-3.23,14.25-11.42,14.25s-11.43-5.97-11.43-14.25c0-6.61,5.98-15.73,11.43-15.73s11.42,8.68,11.42,15.73Z"/>
      <path class="cls-6" d="M29.89,28.42c1-.15.08,1.99-1.85,1.99-1.79,0-2.81-2.09-1.81-1.99,1.26.13,2.58.16,3.66,0Z"/>
      <g>
        <path class="cls-3" d="M31.99,17.32c-3.07,1.7-7.2-4.74-3.71-6.68,4.65-2.58,9.25-3.18,10.28-1.34s-1.92,5.43-6.57,8.02Z"/>
        <path class="cls-2" d="M35.5,14.25c.9,3.39-17.61,8.78-18.63,4.92-1.36-5.15,1.71-10.42,6.86-11.78,5.15-1.36,10.42,1.71,11.78,6.86Z"/>
      </g>
      <g>
        <ellipse class="cls-5" cx="31.8" cy="23.62" rx="1.61" ry="2.22"/>
        <circle class="cls-6" cx="31" cy="23.09" r="1.07"/>
        <ellipse class="cls-5" cx="24.12" cy="23.92" rx="1.61" ry="2.22"/>
        <circle class="cls-6" cx="23.32" cy="23.39" r="1.07"/>
      </g>
      <circle class="cls-1" cx="25.84" cy="25.84" r="25.84"/>
    </g>
  </g>
</svg>