<?xml version="1.0" encoding="UTF-8"?>
<svg id="Layer_2" data-name="Layer 2" xmlns="http://www.w3.org/2000/svg" xmlns:xlink="http://www.w3.org/1999/xlink" viewBox="0 0 51.68 51.68">
  <defs>
    <style>
      .cls-1 {
        fill: none;
      }

      .cls-2 {
        fill: url(#linear-gradient-2);
      }

      .cls-3 {
        fill: url(#linear-gradient);
      }

      .cls-4 {
        fill: #fdfefe;
        stroke: #422d1e;
        stroke-miterlimit: 10;
        stroke-width: .75px;
      }

      .cls-5 {
        fill: #422d1e;
      }

      .cls-6 {
        fill: #231f20;
        stroke: #231f20;
        stroke-linecap: round;
        stroke-linejoin: round;
        stroke-width: .5px;
      }
    </style>
    <linearGradient id="linear-gradient" x1="22.01" y1="37.26" x2="40.97" y2="18.3" gradientUnits="userSpaceOnUse">
      <stop offset="0" stop-color="#f3e98d"/>
      <stop offset="1" stop-color="#fbb040"/>
      <stop offset="1" stop-color="#231f20"/>
    </linearGradient>
    <linearGradient id="linear-gradient-2" x1="6.03" y1="12.4" x2="31.42" y2="12.4" gradientUnits="userSpaceOnUse">
      <stop offset="0" stop-color="#fdc70c"/>
      <stop offset=".47" stop-color="#f3903f"/>
      <stop offset="1" stop-color="#e83c72"/>
    </linearGradient>
  </defs>
  <g id="Layer_1-2" data-name="Layer 1">
    <g>
      <circle class="cls-1" cx="25.84" cy="25.84" r="25.84"/>
      <path class="cls-5" d="M33.1,46.93c.94.13,3.32.27,4.09-.25.71-.48.91-2.4-.16-3.02-.85-.49-2.29-.11-2.89.3l-.37-3.55-1.34.17s-.06,6.25.67,6.35Z"/>
      <path class="cls-5" d="M29.79,45.93c-.94.13-3.32.27-4.09-.25-.71-.48-.91-2.4.16-3.02.85-.49,2.29-.11,2.89.3l.37-3.55,1.34.17s.06,6.25-.67,6.35Z"/>
      <path class="cls-3" d="M42.87,27.48c0,8.28-3.23,14.25-11.42,14.25s-11.43-5.97-11.43-14.25c0-6.61,5.98-15.73,11.43-15.73s11.42,8.68,11.42,15.73Z"/>
      <path class="cls-5" d="M33.24,28.56c1-.15.08,1.99-1.85,1.99-1.79,0-2.81-2.09-1.81-1.99,1.26.13,2.58.16,3.66,0Z"/>
      <path class="cls-6" d="M22.88,25.22c0,1.18-.83,2.13-1.85,2.13s-1.83-.94-1.85-2.1V5.84l-.35-.29-.34.29v19.47h0c.04,1.58,1.15,2.84,2.53,2.84s2.54-1.31,2.54-2.93h-.69Z"/>
      <path class="cls-2" d="M16.19,18.38c0-1.22,1.14-2.21,2.54-2.21s2.54.99,2.54,2.21c0-1.22,1.14-2.21,2.54-2.21s2.54.99,2.54,2.21c0-1.22,1.14-2.21,2.54-2.21,1.31,0,2.38.87,2.51,1.98.02-.22.04-.45.04-.68,0-6.1-5.68-11.05-12.7-11.05s-12.7,4.95-12.7,11.05c0,.2.02.4.04.6.17-1.07,1.22-1.9,2.5-1.9,1.4,0,2.54.99,2.54,2.21,0-1.22,1.14-2.21,2.54-2.21s2.54.99,2.54,2.21"/>
      <g>
        <ellipse class="cls-4" cx="35.39" cy="23.32" rx="1.61" ry="2.22"/>
        <circle class="cls-5" cx="34.59" cy="22.79" r="1.07"/>
        <ellipse class="cls-4" cx="27.71" cy="23.62" rx="1.61" ry="2.22"/>
        <circle class="cls-5" cx="26.91" cy="23.09" r="1.07"/>
      </g>
    </g>
  </g>
</svg>