<?xml version="1.0" encoding="UTF-8"?>
<svg id="Layer_2" data-name="Layer 2" xmlns="http://www.w3.org/2000/svg" xmlns:xlink="http://www.w3.org/1999/xlink" viewBox="0 0 22.85 39.23">
  <defs>
    <style>
      .cls-1 {
        fill: url(#linear-gradient-3);
      }

      .cls-2 {
        fill: url(#linear-gradient-2);
      }

      .cls-3 {
        fill: url(#linear-gradient);
      }

      .cls-4 {
        fill: #422d1e;
      }
    </style>
    <linearGradient id="linear-gradient" x1="0" y1="18.37" x2="22.85" y2="18.37" gradientUnits="userSpaceOnUse">
      <stop offset="0" stop-color="#666d89"/>
      <stop offset=".14" stop-color="#508593"/>
      <stop offset=".32" stop-color="#3c9c9d"/>
      <stop offset=".51" stop-color="#2eada4"/>
      <stop offset=".72" stop-color="#25b6a8"/>
      <stop offset="1" stop-color="#23baaa"/>
    </linearGradient>
    <linearGradient id="linear-gradient-2" x1="5.96" y1="-1.65" x2="18.61" y2="-1.65" gradientTransform="translate(4.91 8.85) rotate(-8.31) scale(.93 .73) skewX(-14.58)" gradientUnits="userSpaceOnUse">
      <stop offset="0" stop-color="#ef543b"/>
      <stop offset="1" stop-color="#69431a"/>
    </linearGradient>
    <linearGradient id="linear-gradient-3" x1="16.9" y1="12.14" x2="2.37" y2="3.75" gradientTransform="matrix(1,0,0,1,0,0)" xlink:href="#linear-gradient-2"/>
  </defs>
  <g id="Layer_1-2" data-name="Layer 1">
    <path class="cls-4" d="M13.23,39.12c.94.13,3.32.27,4.09-.25.71-.48.91-2.4-.16-3.02-.85-.49-2.29-.11-2.89.3l-.37-3.55-1.34.17s-.06,6.25.67,6.35Z"/>
    <path class="cls-4" d="M9.91,39.12c-.94.13-3.32.27-4.09-.25-.71-.48-.91-2.4.16-3.02.85-.49,2.29-.11,2.89.3l.37-3.55,1.34.17s.06,6.25-.67,6.35Z"/>
    <path class="cls-3" d="M22.85,19.11c0,8.28-3.23,14.25-11.42,14.25S0,27.39,0,19.11C0,12.5,5.98,3.38,11.43,3.38s11.42,8.68,11.42,15.73Z"/>
    <circle class="cls-4" cx="6.66" cy="17.25" r="1.07"/>
    <circle class="cls-4" cx="16.53" cy="17.25" r="1.07"/>
    <path class="cls-4" d="M13.39,20.75c1-.15.08,1.99-1.85,1.99-1.79,0-2.81-2.09-1.81-1.99,1.26.13,2.58.16,3.66,0Z"/>
    <g>
      <path class="cls-2" d="M15.9,10.25c-3.07,1.7-7.2-4.74-3.71-6.68,4.65-2.58,9.25-3.18,10.28-1.34s-1.92,5.43-6.57,8.02Z"/>
      <path class="cls-1" d="M19.42,7.18C20.31,10.57,1.8,15.96.78,12.1-.57,6.95,2.49,1.68,7.64.32c5.15-1.36,10.42,1.71,11.78,6.86Z"/>
    </g>
  </g>
</svg>