<?xml version="1.0" encoding="UTF-8"?>
<svg id="Layer_2" data-name="Layer 2" xmlns="http://www.w3.org/2000/svg" xmlns:xlink="http://www.w3.org/1999/xlink" viewBox="0 0 51.68 51.68">
  <defs>
    <style>
      .cls-1 {
        fill: none;
      }

      .cls-2 {
        fill: url(#linear-gradient-3);
      }

      .cls-3 {
        fill: url(#linear-gradient-2);
      }

      .cls-4 {
        fill: url(#linear-gradient);
      }

      .cls-5 {
        fill: #ed1c24;
      }

      .cls-6 {
        fill: #422d1e;
      }

      .cls-7 {
        fill: #1f140c;
      }
    </style>
    <linearGradient id="linear-gradient" x1="15.38" y1="24.41" x2="38.22" y2="24.41" gradientUnits="userSpaceOnUse">
      <stop offset="0" stop-color="#c6e9f4"/>
      <stop offset=".14" stop-color="#c0e7f3"/>
      <stop offset=".3" stop-color="#b2e1f1"/>
      <stop offset=".47" stop-color="#9ad7ee"/>
      <stop offset=".66" stop-color="#78caea"/>
      <stop offset=".85" stop-color="#4db9e5"/>
      <stop offset="1" stop-color="#27aae1"/>
    </linearGradient>
    <linearGradient id="linear-gradient-2" x1="92.08" y1="116.92" x2="104.73" y2="116.92" gradientTransform="translate(31.68 -89.11) rotate(151.02) scale(.93 -.73) skewX(-14.58)" gradientUnits="userSpaceOnUse">
      <stop offset="0" stop-color="#60c08e"/>
      <stop offset=".16" stop-color="#66b68f"/>
      <stop offset=".41" stop-color="#789e93"/>
      <stop offset=".74" stop-color="#957699"/>
      <stop offset="1" stop-color="#b0519f"/>
    </linearGradient>
    <linearGradient id="linear-gradient-3" x1="39.47" y1="16.28" x2="24.94" y2="7.89" gradientTransform="translate(42.36 -15.42) rotate(142.71) scale(1 -1)" xlink:href="#linear-gradient-2"/>
  </defs>
  <g id="Layer_1-2" data-name="Layer 1">
    <g>
      <circle class="cls-1" cx="25.84" cy="25.84" r="25.84"/>
      <path class="cls-6" d="M28.6,44.16c.94.13,3.32.27,4.09-.25.71-.48.91-2.4-.16-3.02-.85-.49-2.29-.11-2.89.3l-.37-3.55-1.34.17s-.06,6.25.67,6.35Z"/>
      <path class="cls-6" d="M25.29,45.16c-.94.13-3.32.27-4.09-.25-.71-.48-.91-2.4.16-3.02.85-.49,2.29-.11,2.89.3l.37-3.55,1.34.17s.06,6.25-.67,6.35Z"/>
      <path class="cls-4" d="M38.22,25.15c0,8.28-3.23,14.25-11.42,14.25s-11.43-5.97-11.43-14.25c0-6.61,5.98-15.73,11.43-15.73s11.42,8.68,11.42,15.73Z"/>
      <circle class="cls-6" cx="22.04" cy="23.3" r="1.07"/>
      <circle class="cls-6" cx="31.9" cy="23.3" r="1.07"/>
      <path class="cls-6" d="M28.77,26.8c1-.15.08,1.99-1.85,1.99-1.79,0-2.81-2.09-1.81-1.99,1.26.13,2.58.16,3.66,0Z"/>
      <g>
        <path class="cls-5" d="M27.86,23.27c.5.07.04-.99-.92-.99-.9,0-1.4,1.05-.9.99.63-.07,1.29-.08,1.83,0Z"/>
        <g>
          <path class="cls-7" d="M23.16,26.69c-.15,0-.29-.09-.35-.23-.17-.41-.7-.92-1.21-1.43-.71-.7-1.38-1.36-1.49-2.03-.01-.53.15-.95.48-1.28.35-.36.88-.57,1.41-.57.48,0,.97.18,1.29.56.33-.33.83-.54,1.33-.54.73,0,1.59.46,1.59,1.76,0,.71-.74,1.42-1.52,2.16-.51.48-1.03.98-1.18,1.35-.06.14-.19.23-.34.23h0Z"/>
          <path class="cls-5" d="M22.01,21.53c.63,0,1.22.36,1.27,1.16-.04-.66.66-1.13,1.34-1.13.62,0,1.21.39,1.21,1.39s-2.26,2.36-2.67,3.37c-.44-1.04-2.51-2.36-2.67-3.37-.01-.91.77-1.41,1.52-1.41M22.01,20.78c-.64,0-1.25.25-1.68.68-.39.4-.6.92-.59,1.49,0,.04,0,.07,0,.11.13.79.84,1.49,1.6,2.24.46.45.98.97,1.13,1.31.12.28.39.46.69.46h0c.3,0,.57-.19.69-.47.12-.3.66-.81,1.1-1.22.84-.8,1.63-1.56,1.63-2.43,0-1.48-.99-2.14-1.96-2.14-.47,0-.94.15-1.31.41-.35-.28-.8-.44-1.31-.44h0Z"/>
        </g>
        <g>
          <path class="cls-7" d="M30.72,26.55c-.15,0-.29-.09-.35-.23-.17-.41-.7-.92-1.21-1.43-.71-.7-1.38-1.36-1.49-2.03-.01-.53.15-.95.48-1.28.35-.36.88-.57,1.41-.57.48,0,.97.18,1.29.56.33-.33.83-.54,1.33-.54.73,0,1.59.46,1.59,1.76,0,.71-.74,1.42-1.52,2.16-.51.48-1.03.98-1.18,1.35-.06.14-.19.23-.34.23h0Z"/>
          <path class="cls-5" d="M29.57,21.39c.63,0,1.22.36,1.27,1.16-.04-.66.66-1.13,1.34-1.13.62,0,1.21.39,1.21,1.39s-2.26,2.36-2.67,3.37c-.44-1.04-2.51-2.36-2.67-3.37-.01-.91.77-1.41,1.52-1.41M29.57,20.64s0,0,0,0c-.64,0-1.25.25-1.68.68-.39.4-.6.92-.59,1.49,0,.04,0,.07,0,.11.13.79.84,1.49,1.6,2.24.46.45.98.97,1.13,1.31.12.28.39.46.69.46h0c.3,0,.57-.19.69-.47.12-.3.66-.81,1.1-1.22.84-.8,1.63-1.56,1.63-2.43,0-1.48-.99-2.14-1.96-2.14-.47,0-.94.15-1.31.41-.35-.28-.8-.44-1.31-.44h0Z"/>
        </g>
      </g>
      <g>
        <path class="cls-3" d="M20.47,19.33c3.47-.5,2.85-8.13-1.1-7.56-5.27.76-9.29,3.07-8.99,5.16s4.82,3.16,10.08,2.4Z"/>
        <path class="cls-2" d="M15.81,19.02c1.34,3.24,19.33-3.69,17.8-7.38-2.04-4.92-7.67-7.25-12.59-5.21-4.92,2.04-7.25,7.67-5.21,12.59Z"/>
      </g>
    </g>
  </g>
</svg>