<?xml version="1.0" encoding="UTF-8"?>
<svg id="Layer_2" data-name="Layer 2" xmlns="http://www.w3.org/2000/svg" xmlns:xlink="http://www.w3.org/1999/xlink" viewBox="0 0 51.68 51.68">
  <defs>
    <style>
      .cls-1 {
        fill: none;
      }

      .cls-2 {
        fill: url(#linear-gradient);
      }

      .cls-3 {
        fill: #fdfefe;
        stroke: #422d1e;
        stroke-miterlimit: 10;
        stroke-width: .75px;
      }

      .cls-4 {
        fill: #422d1e;
      }
    </style>
    <linearGradient id="linear-gradient" x1="33.42" y1="12.59" x2="19.15" y2="37.32" gradientUnits="userSpaceOnUse">
      <stop offset="0" stop-color="#666d89"/>
      <stop offset=".14" stop-color="#508593"/>
      <stop offset=".32" stop-color="#3c9c9d"/>
      <stop offset=".51" stop-color="#2eada4"/>
      <stop offset=".72" stop-color="#25b6a8"/>
      <stop offset="1" stop-color="#23baaa"/>
    </linearGradient>
  </defs>
  <g id="Layer_1-2" data-name="Layer 1">
    <g>
      <circle class="cls-1" cx="25.84" cy="25.84" r="25.84"/>
      <path class="cls-4" d="M32.78,42.38c-.82.49-2.94,1.55-3.86,1.38-.84-.16-1.78-1.85-1.04-2.84.59-.78,2.07-1.01,2.78-.86l-1.06-3.41,1.3-.37s2.52,5.73,1.88,6.1Z"/>
      <path class="cls-4" d="M19.7,43.06c-.9-.32-3.07-1.29-3.51-2.11-.41-.75.3-2.55,1.53-2.6.98-.04,2.09.96,2.43,1.6l1.96-2.98,1.11.76s-2.83,5.58-3.52,5.33Z"/>
      <path class="cls-2" d="M37.26,24.92c0,8.28-3.23,14.25-11.42,14.25s-11.43-5.97-11.43-14.25c0-6.61,5.98-15.73,11.43-15.73s11.42,8.68,11.42,15.73Z"/>
      <path class="cls-4" d="M27.15,25.84c.72-.12.06,1.67-1.33,1.67-1.29,0-2.03-1.76-1.3-1.67.91.11,1.86.13,2.64,0Z"/>
      <g>
        <ellipse class="cls-3" cx="29.68" cy="22.02" rx="1.61" ry="2.22"/>
        <circle class="cls-4" cx="28.88" cy="21.49" r="1.07"/>
        <ellipse class="cls-3" cx="22" cy="22.32" rx="1.61" ry="2.22"/>
        <circle class="cls-4" cx="21.2" cy="21.79" r="1.07"/>
      </g>
    </g>
  </g>
</svg>