<?xml version="1.0" encoding="UTF-8"?>
<svg id="Layer_2" data-name="Layer 2" xmlns="http://www.w3.org/2000/svg" xmlns:xlink="http://www.w3.org/1999/xlink" viewBox="0 0 22.85 37.84">
  <defs>
    <style>
      .cls-1 {
        fill: url(#linear-gradient-2);
      }

      .cls-2 {
        fill: #231f20;
      }

      .cls-3 {
        fill: url(#linear-gradient);
      }

      .cls-4 {
        fill: #fdfefe;
        stroke: #422d1e;
        stroke-miterlimit: 10;
        stroke-width: .75px;
      }

      .cls-5 {
        fill: #422d1e;
      }
    </style>
    <linearGradient id="linear-gradient" x1="22.85" y1="16.94" x2="0" y2="16.94" gradientUnits="userSpaceOnUse">
      <stop offset="0" stop-color="#d6b2d4"/>
      <stop offset=".19" stop-color="#d1add0"/>
      <stop offset=".42" stop-color="#c39ec6"/>
      <stop offset=".66" stop-color="#ad86b4"/>
      <stop offset=".91" stop-color="#8f659d"/>
      <stop offset="1" stop-color="#835994"/>
    </linearGradient>
    <linearGradient id="linear-gradient-2" x1="1.81" y1="6.23" x2="21.08" y2="6.23" gradientUnits="userSpaceOnUse">
      <stop offset="0" stop-color="#221b1f"/>
      <stop offset="1" stop-color="#231f20"/>
    </linearGradient>
  </defs>
  <g id="Layer_1-2" data-name="Layer 1">
    <path class="cls-5" d="M13.08,37.72c.94.13,3.32.27,4.09-.25.71-.48.91-2.4-.16-3.02-.85-.49-2.29-.11-2.89.3l-.37-3.55-1.34.17s-.06,6.25.67,6.35Z"/>
    <path class="cls-5" d="M9.76,37.72c-.94.13-3.32.27-4.09-.25-.71-.48-.91-2.4.16-3.02.85-.49,2.29-.11,2.89.3l.37-3.55,1.34.17s.06,6.25-.67,6.35Z"/>
    <path class="cls-3" d="M22.85,17.67c0,8.28-3.23,14.25-11.42,14.25S0,25.95,0,17.67C0,11.06,5.98,1.94,11.43,1.94s11.42,8.68,11.42,15.73Z"/>
    <path class="cls-5" d="M13.66,19.84c1-.15.08,1.99-1.85,1.99-1.79,0-2.81-2.09-1.81-1.99,1.26.13,2.58.16,3.66,0Z"/>
    <g>
      <ellipse class="cls-4" cx="15.81" cy="15.27" rx="1.61" ry="2.22"/>
      <circle class="cls-5" cx="15.01" cy="14.74" r="1.07"/>
      <ellipse class="cls-4" cx="8.13" cy="15.57" rx="1.61" ry="2.22"/>
      <circle class="cls-5" cx="7.33" cy="15.04" r="1.07"/>
    </g>
    <path class="cls-2" d="M19.95,10.26l.78,2.83c.14.51.17.91.11,1.21-.07.3-.26.49-.56.58s-.58.02-.79-.2-.39-.59-.53-1.09l-.78-2.83-1.11.31.73,2.65c.28,1.01.65,1.7,1.12,2.09.33.27.71.39,1.14.38l1.7,6.19,1.08-.3-1.7-6.19c.37-.21.63-.51.78-.91.21-.57.17-1.36-.11-2.37l-.73-2.65-1.11.31Z"/>
    <path class="cls-2" d="M2.89,10.01l-.78,2.83c-.14.51-.17.91-.11,1.21.07.3.26.49.56.58s.58.02.79-.2.39-.59.53-1.09l.78-2.83,1.11.31-.73,2.65c-.28,1.01-.65,1.7-1.12,2.09-.33.27-.71.39-1.14.38l-1.7,6.19-1.08-.3,1.7-6.19c-.37-.21-.63-.51-.78-.91-.21-.57-.17-1.36.11-2.37l.73-2.65,1.11.31Z"/>
    <path class="cls-1" d="M21.08,9.64c0,3.51-19.27,3.99-19.27,0C1.81,4.31,6.12,0,11.45,0s9.64,4.31,9.64,9.64Z"/>
  </g>
</svg>