<?xml version="1.0" encoding="UTF-8"?>
<svg id="Layer_2" data-name="Layer 2" xmlns="http://www.w3.org/2000/svg" xmlns:xlink="http://www.w3.org/1999/xlink" viewBox="0 0 51.68 51.68">
  <defs>
    <style>
      .cls-1 {
        fill: none;
      }

      .cls-2 {
        fill: url(#linear-gradient);
      }

      .cls-3 {
        fill: #ed1c24;
      }

      .cls-4 {
        fill: #422d1e;
      }

      .cls-5 {
        fill: #1f140c;
      }
    </style>
    <linearGradient id="linear-gradient" x1="36.84" y1="23.64" x2="13.99" y2="23.64" gradientUnits="userSpaceOnUse">
      <stop offset="0" stop-color="#d6b2d4"/>
      <stop offset=".19" stop-color="#d1add0"/>
      <stop offset=".42" stop-color="#c39ec6"/>
      <stop offset=".66" stop-color="#ad86b4"/>
      <stop offset=".91" stop-color="#8f659d"/>
      <stop offset="1" stop-color="#835994"/>
    </linearGradient>
  </defs>
  <g id="Layer_1-2" data-name="Layer 1">
    <g>
      <circle class="cls-1" cx="25.84" cy="25.84" r="25.84"/>
      <path class="cls-4" d="M25.88,43.79c.93.23,3.27.63,4.09.2.76-.4,1.17-2.29.17-3.02-.79-.58-2.27-.37-2.91-.02l.02-3.57-1.35.02s-.75,6.21-.03,6.39Z"/>
      <path class="cls-4" d="M22.65,42.78c-.95,0-3.32-.16-4.02-.77-.64-.57-.59-2.5.55-2.97.9-.37,2.29.18,2.83.67l.82-3.47,1.31.34s-.74,6.21-1.48,6.21Z"/>
      <path class="cls-2" d="M36.84,24.37c0,8.28-3.23,14.25-11.42,14.25s-11.43-5.97-11.43-14.25c0-6.61,5.98-15.73,11.43-15.73s11.42,8.68,11.42,15.73Z"/>
      <path class="cls-4" d="M27.65,26.54c1-.15.08,1.99-1.85,1.99-1.79,0-2.81-2.09-1.81-1.99,1.26.13,2.58.16,3.66,0Z"/>
      <g>
        <path class="cls-3" d="M26.75,22.93c.5.07.04-.99-.92-.99-.9,0-1.4,1.05-.9.99.63-.07,1.29-.08,1.83,0Z"/>
        <g>
          <path class="cls-5" d="M22.05,26.36c-.15,0-.29-.09-.35-.23-.17-.41-.7-.93-1.21-1.43-.71-.7-1.38-1.36-1.49-2.03-.01-.53.15-.95.48-1.28.35-.36.88-.57,1.41-.57.48,0,.97.18,1.29.56.33-.33.83-.54,1.33-.54.73,0,1.59.46,1.59,1.76,0,.71-.74,1.42-1.52,2.16-.51.48-1.03.98-1.18,1.35-.06.14-.19.23-.34.23h0Z"/>
          <path class="cls-3" d="M20.89,21.2c.63,0,1.22.36,1.27,1.16-.04-.66.66-1.13,1.34-1.13.62,0,1.21.39,1.21,1.39s-2.26,2.36-2.67,3.37c-.44-1.04-2.51-2.36-2.67-3.37-.01-.91.77-1.41,1.52-1.41M20.89,20.45h0c-.64,0-1.25.25-1.68.68-.39.4-.6.92-.59,1.49,0,.04,0,.07,0,.11.13.79.84,1.49,1.6,2.24.46.45.98.97,1.13,1.31.12.28.39.46.69.46h0c.3,0,.57-.19.69-.47.12-.3.66-.81,1.1-1.22.84-.8,1.63-1.56,1.63-2.43,0-1.48-.99-2.14-1.96-2.14-.47,0-.94.15-1.31.41-.35-.28-.8-.44-1.31-.44h0Z"/>
        </g>
        <g>
          <path class="cls-5" d="M29.61,26.21c-.15,0-.29-.09-.35-.23-.17-.41-.7-.92-1.21-1.43-.71-.7-1.38-1.36-1.49-2.03-.01-.53.15-.95.48-1.28.35-.36.88-.57,1.41-.57.48,0,.97.18,1.29.56.33-.33.83-.54,1.33-.54.73,0,1.59.46,1.59,1.76,0,.71-.74,1.42-1.52,2.16-.51.48-1.03.98-1.18,1.35-.06.14-.19.23-.34.23h0Z"/>
          <path class="cls-3" d="M28.45,21.05c.63,0,1.22.36,1.27,1.16-.04-.66.66-1.13,1.34-1.13.62,0,1.21.39,1.21,1.39s-2.26,2.36-2.67,3.37c-.44-1.04-2.51-2.36-2.67-3.37-.01-.91.77-1.41,1.52-1.41M28.45,20.3h0c-.64,0-1.25.25-1.68.68-.39.4-.6.92-.59,1.49,0,.04,0,.07,0,.11.13.79.84,1.49,1.6,2.24.46.45.98.97,1.13,1.31.12.28.39.46.69.46h0c.3,0,.57-.19.69-.47.12-.3.66-.81,1.1-1.22.84-.8,1.63-1.56,1.63-2.43,0-1.48-.99-2.14-1.96-2.14-.47,0-.94.15-1.31.41-.35-.28-.8-.44-1.31-.44h0Z"/>
        </g>
      </g>
    </g>
  </g>
</svg>