<?xml version="1.0" encoding="UTF-8"?>
<svg id="Layer_2" data-name="Layer 2" xmlns="http://www.w3.org/2000/svg" xmlns:xlink="http://www.w3.org/1999/xlink" viewBox="0 0 29.2 46.29">
  <defs>
    <style>
      .cls-1 {
        fill: none;
        stroke: #231f20;
        stroke-miterlimit: 10;
      }

      .cls-2 {
        fill: url(#linear-gradient-2);
      }

      .cls-3 {
        fill: #231f20;
      }

      .cls-4 {
        fill: url(#linear-gradient);
      }

      .cls-5 {
        fill: #ed1c24;
      }

      .cls-6 {
        fill: #422d1e;
      }

      .cls-7 {
        fill: #1f140c;
      }
    </style>
    <linearGradient id="linear-gradient" x1="26.45" y1="25.49" x2="3.6" y2="25.49" gradientUnits="userSpaceOnUse">
      <stop offset="0" stop-color="#c6e9f4"/>
      <stop offset=".14" stop-color="#c0e7f3"/>
      <stop offset=".3" stop-color="#b2e1f1"/>
      <stop offset=".47" stop-color="#9ad7ee"/>
      <stop offset=".66" stop-color="#78caea"/>
      <stop offset=".85" stop-color="#4db9e5"/>
      <stop offset="1" stop-color="#27aae1"/>
    </linearGradient>
    <linearGradient id="linear-gradient-2" x1="5.39" y1="13.41" x2="24.66" y2="13.41" gradientUnits="userSpaceOnUse">
      <stop offset="0" stop-color="#221b1f"/>
      <stop offset="1" stop-color="#231f20"/>
    </linearGradient>
  </defs>
  <g id="Layer_1-2" data-name="Layer 1">
    <path class="cls-6" d="M16.68,46.17c.94.13,3.32.27,4.09-.25.71-.48.91-2.4-.16-3.02-.85-.49-2.29-.11-2.89.3l-.37-3.55-1.34.17s-.06,6.25.67,6.35Z"/>
    <path class="cls-6" d="M13.36,46.17c-.94.13-3.32.27-4.09-.25-.71-.48-.91-2.4.16-3.02.85-.49,2.29-.11,2.89.3l.37-3.55,1.34.17s.06,6.25-.67,6.35Z"/>
    <path class="cls-4" d="M26.45,26.23c0,8.28-3.23,14.25-11.42,14.25s-11.43-5.97-11.43-14.25c0-6.61,5.98-15.73,11.43-15.73s11.42,8.68,11.42,15.73Z"/>
    <circle class="cls-6" cx="10.64" cy="24.42" r="1.07"/>
    <circle class="cls-6" cx="20.51" cy="24.42" r="1.07"/>
    <path class="cls-6" d="M18.06,27.51c1-.15.08,1.99-1.85,1.99-1.79,0-2.81-2.09-1.81-1.99,1.26.13,2.58.16,3.66,0Z"/>
    <path class="cls-3" d="M23.53,17.45l.78,2.83c.14.51.17.91.11,1.21-.07.3-.26.49-.56.58s-.58.02-.79-.2-.39-.59-.53-1.09l-.78-2.83-1.11.31.73,2.65c.28,1.01.65,1.7,1.12,2.09.33.27.71.39,1.14.38l1.7,6.19,1.08-.3-1.7-6.19c.37-.21.63-.51.78-.91.21-.57.17-1.36-.11-2.37l-.73-2.65-1.11.31Z"/>
    <path class="cls-3" d="M6.47,17.2l-.78,2.83c-.14.51-.17.91-.11,1.21.07.3.26.49.56.58s.58.02.79-.2.39-.59.53-1.09l.78-2.83,1.11.31-.73,2.65c-.28,1.01-.65,1.7-1.12,2.09-.33.27-.71.39-1.14.38l-1.7,6.19-1.08-.3,1.7-6.19c-.37-.21-.63-.51-.78-.91-.21-.57-.17-1.36.11-2.37l.73-2.65,1.11.31Z"/>
    <path class="cls-1" d="M.19,9.77c2.75,1.14,5.4,2.55,7.92,4.2"/>
    <path class="cls-1" d="M8.91,10.06c-2.06-1.94-3.94-4.07-5.6-6.35"/>
    <path class="cls-1" d="M12.79,8.79L10.59.12"/>
    <path class="cls-1" d="M17.58,8.2c.39-2.68.69-5.37.89-8.08"/>
    <path class="cls-1" d="M19.68,10.5c2.12-2.4,4.47-4.62,7-6.63"/>
    <path class="cls-1" d="M22.3,13.68c2.1-1.72,4.39-2.95,6.76-3.63"/>
    <path class="cls-2" d="M24.66,16.82c0,3.51-19.27,3.99-19.27,0,0-5.32,4.31-9.64,9.64-9.64s9.64,4.31,9.64,9.64Z"/>
    <g>
      <path class="cls-5" d="M16.93,24.49c.5.07.04-.99-.92-.99-.9,0-1.4,1.05-.9.99.63-.07,1.29-.08,1.83,0Z"/>
      <g>
        <path class="cls-7" d="M12.23,27.92c-.15,0-.29-.09-.35-.23-.17-.41-.7-.92-1.21-1.43-.71-.7-1.38-1.36-1.49-2.03-.01-.53.15-.95.48-1.28.35-.36.88-.57,1.41-.57.48,0,.97.18,1.29.56.33-.33.83-.54,1.33-.54.73,0,1.59.46,1.59,1.76,0,.71-.74,1.42-1.52,2.16-.51.48-1.03.98-1.18,1.35-.06.14-.19.23-.34.23h0Z"/>
        <path class="cls-5" d="M11.07,22.76c.63,0,1.22.36,1.27,1.16-.04-.66.66-1.13,1.34-1.13.62,0,1.21.39,1.21,1.39s-2.26,2.36-2.67,3.37c-.44-1.04-2.51-2.36-2.67-3.37-.01-.91.77-1.41,1.52-1.41M11.07,22.01c-.64,0-1.25.25-1.68.68-.39.4-.6.92-.59,1.49,0,.04,0,.07,0,.11.13.79.84,1.49,1.6,2.24.46.45.98.97,1.13,1.31.12.28.39.46.69.46h0c.3,0,.57-.19.69-.47.12-.3.66-.81,1.1-1.22.84-.8,1.63-1.56,1.63-2.43,0-1.48-.99-2.14-1.96-2.14-.47,0-.94.15-1.31.41-.35-.28-.8-.44-1.31-.44h0Z"/>
      </g>
      <g>
        <path class="cls-7" d="M19.79,27.77c-.15,0-.29-.09-.35-.23-.17-.41-.7-.93-1.21-1.43-.71-.7-1.38-1.36-1.49-2.03-.01-.53.15-.95.48-1.28.35-.36.88-.57,1.41-.57.48,0,.97.18,1.29.56.33-.33.83-.54,1.33-.54.73,0,1.59.46,1.59,1.76,0,.71-.74,1.42-1.52,2.16-.51.48-1.03.98-1.18,1.35-.06.14-.19.23-.34.23h0Z"/>
        <path class="cls-5" d="M18.63,22.61c.63,0,1.22.36,1.27,1.16-.04-.66.66-1.13,1.34-1.13.62,0,1.21.39,1.21,1.39s-2.26,2.36-2.67,3.37c-.44-1.04-2.51-2.36-2.67-3.37-.01-.91.77-1.41,1.52-1.41M18.63,21.86c-.64,0-1.25.25-1.68.68-.39.4-.6.92-.59,1.49,0,.04,0,.07,0,.11.13.79.84,1.49,1.6,2.24.46.45.98.97,1.13,1.31.12.28.39.46.69.46h0c.3,0,.57-.19.69-.47.12-.3.66-.81,1.1-1.22.84-.8,1.63-1.56,1.63-2.43,0-1.48-.99-2.14-1.96-2.14-.47,0-.94.15-1.31.41-.35-.28-.8-.44-1.31-.44h0Z"/>
      </g>
    </g>
  </g>
</svg>