<?xml version="1.0" encoding="UTF-8"?>
<svg id="Layer_2" data-name="Layer 2" xmlns="http://www.w3.org/2000/svg" xmlns:xlink="http://www.w3.org/1999/xlink" viewBox="0 0 51.68 51.68">
  <defs>
    <style>
      .cls-1 {
        fill: none;
      }

      .cls-2 {
        fill: url(#linear-gradient-3);
      }

      .cls-3 {
        fill: url(#linear-gradient-2);
      }

      .cls-4 {
        fill: url(#linear-gradient);
      }

      .cls-5 {
        fill: #422d1e;
      }
    </style>
    <linearGradient id="linear-gradient" x1="12.91" y1="25.73" x2="35.76" y2="25.73" gradientUnits="userSpaceOnUse">
      <stop offset="0" stop-color="#666d89"/>
      <stop offset=".14" stop-color="#508593"/>
      <stop offset=".32" stop-color="#3c9c9d"/>
      <stop offset=".51" stop-color="#2eada4"/>
      <stop offset=".72" stop-color="#25b6a8"/>
      <stop offset="1" stop-color="#23baaa"/>
    </linearGradient>
    <linearGradient id="linear-gradient-2" x1="71.69" y1="100.82" x2="84.34" y2="100.82" gradientTransform="translate(-29.13 -52.45) rotate(-8.31) scale(.93 .73) skewX(-14.58)" gradientUnits="userSpaceOnUse">
      <stop offset="0" stop-color="#ef543b"/>
      <stop offset="1" stop-color="#69431a"/>
    </linearGradient>
    <linearGradient id="linear-gradient-3" x1="29.81" y1="19.5" x2="15.28" y2="11.11" gradientTransform="matrix(1,0,0,1,0,0)" xlink:href="#linear-gradient-2"/>
  </defs>
  <g id="Layer_1-2" data-name="Layer 1">
    <g>
      <circle class="cls-1" cx="25.84" cy="25.84" r="25.84"/>
      <path class="cls-5" d="M27.44,45.97c.94.13,3.32.27,4.09-.25.71-.48.91-2.4-.16-3.02-.85-.49-2.29-.11-2.89.3l-.37-3.55-1.34.17s-.06,6.25.67,6.35Z"/>
      <path class="cls-5" d="M20.26,44.13c.9.31,3.19.94,4.05.58.79-.33,1.38-2.17.46-2.99-.73-.65-2.22-.58-2.89-.3l.36-3.55-1.34-.11s-1.33,6.11-.63,6.36Z"/>
      <path class="cls-4" d="M35.76,26.46c0,8.28-3.23,14.25-11.42,14.25s-11.43-5.97-11.43-14.25c0-6.61,5.98-15.73,11.43-15.73s11.42,8.68,11.42,15.73Z"/>
      <circle class="cls-5" cx="19.57" cy="24.61" r="1.07"/>
      <circle class="cls-5" cx="29.44" cy="24.61" r="1.07"/>
      <path class="cls-5" d="M26.3,28.11c1-.15.08,1.99-1.85,1.99-1.79,0-2.81-2.09-1.81-1.99,1.26.13,2.58.16,3.66,0Z"/>
      <g>
        <path class="cls-3" d="M28.81,17.6c-3.07,1.7-7.2-4.74-3.71-6.68,4.65-2.58,9.25-3.18,10.28-1.34s-1.92,5.43-6.57,8.02Z"/>
        <path class="cls-2" d="M32.33,14.53c.9,3.39-17.61,8.78-18.63,4.92-1.36-5.15,1.71-10.42,6.86-11.78,5.15-1.36,10.42,1.71,11.78,6.86Z"/>
      </g>
    </g>
  </g>
</svg>