<?xml version="1.0" encoding="UTF-8"?>
<svg id="Layer_2" data-name="Layer 2" xmlns="http://www.w3.org/2000/svg" xmlns:xlink="http://www.w3.org/1999/xlink" viewBox="0 0 22.85 35.9">
  <defs>
    <style>
      .cls-1 {
        fill: url(#linear-gradient);
      }

      .cls-2 {
        fill: #ed1c24;
      }

      .cls-3 {
        fill: #422d1e;
      }

      .cls-4 {
        fill: #1f140c;
      }
    </style>
    <linearGradient id="linear-gradient" x1="22.85" y1="14.99" x2="0" y2="14.99" gradientUnits="userSpaceOnUse">
      <stop offset="0" stop-color="#d6b2d4"/>
      <stop offset=".19" stop-color="#d1add0"/>
      <stop offset=".42" stop-color="#c39ec6"/>
      <stop offset=".66" stop-color="#ad86b4"/>
      <stop offset=".91" stop-color="#8f659d"/>
      <stop offset="1" stop-color="#835994"/>
    </linearGradient>
  </defs>
  <g id="Layer_1-2" data-name="Layer 1">
    <path class="cls-3" d="M13.08,35.78c.94.13,3.32.27,4.09-.25.71-.48.91-2.4-.16-3.02-.85-.49-2.29-.11-2.89.3l-.37-3.55-1.34.17s-.06,6.25.67,6.35Z"/>
    <path class="cls-3" d="M9.76,35.78c-.94.13-3.32.27-4.09-.25-.71-.48-.91-2.4.16-3.02.85-.49,2.29-.11,2.89.3l.37-3.55,1.34.17s.06,6.25-.67,6.35Z"/>
    <path class="cls-1" d="M22.85,15.73c0,8.28-3.23,14.25-11.42,14.25S0,24.01,0,15.73C0,9.12,5.98,0,11.43,0s11.42,8.68,11.42,15.73Z"/>
    <path class="cls-3" d="M13.66,17.89c1-.15.08,1.99-1.85,1.99-1.79,0-2.81-2.09-1.81-1.99,1.26.13,2.58.16,3.66,0Z"/>
    <g>
      <path class="cls-2" d="M12.75,14.29c.5.07.04-.99-.92-.99-.9,0-1.4,1.05-.9.99.63-.07,1.29-.08,1.83,0Z"/>
      <g>
        <path class="cls-4" d="M8.05,17.71c-.15,0-.29-.09-.35-.23-.17-.41-.7-.92-1.21-1.43-.71-.7-1.38-1.36-1.49-2.03-.01-.53.15-.95.48-1.28.35-.36.88-.57,1.41-.57.48,0,.97.18,1.29.56.33-.33.83-.54,1.33-.54.73,0,1.59.46,1.59,1.76,0,.71-.74,1.42-1.52,2.16-.51.48-1.03.98-1.18,1.35-.06.14-.19.23-.34.23h0Z"/>
        <path class="cls-2" d="M6.9,12.55c.63,0,1.22.36,1.27,1.16-.04-.66.66-1.13,1.34-1.13.62,0,1.21.39,1.21,1.39s-2.26,2.36-2.67,3.37c-.44-1.04-2.51-2.36-2.67-3.37-.01-.91.77-1.41,1.52-1.41M6.9,11.8c-.64,0-1.25.25-1.68.68-.39.4-.6.92-.59,1.49,0,.04,0,.07,0,.11.13.79.84,1.49,1.6,2.24.46.45.98.97,1.13,1.31.12.28.39.46.69.46h0c.3,0,.57-.19.69-.47.12-.3.66-.81,1.1-1.22.84-.8,1.63-1.56,1.63-2.43,0-1.48-.99-2.14-1.96-2.14-.47,0-.94.15-1.31.41-.35-.28-.8-.44-1.31-.44h0Z"/>
      </g>
      <g>
        <path class="cls-4" d="M15.62,17.57c-.15,0-.29-.09-.35-.23-.17-.41-.7-.93-1.21-1.43-.71-.7-1.38-1.36-1.49-2.03-.01-.53.15-.95.48-1.28.35-.36.88-.57,1.41-.57.48,0,.97.18,1.29.56.33-.33.83-.54,1.33-.54.73,0,1.59.46,1.59,1.76,0,.71-.74,1.42-1.52,2.16-.51.48-1.03.98-1.18,1.36-.06.14-.19.23-.34.23h0Z"/>
        <path class="cls-2" d="M14.46,12.41c.63,0,1.22.36,1.27,1.16-.04-.66.66-1.13,1.34-1.13.62,0,1.21.39,1.21,1.39s-2.26,2.36-2.67,3.37c-.44-1.04-2.51-2.36-2.67-3.37-.01-.91.77-1.41,1.52-1.41M14.46,11.66c-.64,0-1.25.25-1.68.68-.39.4-.6.92-.59,1.49,0,.04,0,.07,0,.11.13.79.84,1.49,1.6,2.24.46.45.98.97,1.13,1.31.12.28.39.46.69.46h0c.3,0,.57-.19.69-.47.12-.3.66-.81,1.1-1.22.84-.8,1.63-1.56,1.63-2.43,0-1.48-.99-2.14-1.96-2.14-.47,0-.94.15-1.31.41-.35-.28-.8-.44-1.31-.44h0Z"/>
      </g>
    </g>
  </g>
</svg>