<?xml version="1.0" encoding="UTF-8"?>
<svg id="Layer_2" data-name="Layer 2" xmlns="http://www.w3.org/2000/svg" xmlns:xlink="http://www.w3.org/1999/xlink" viewBox="0 0 24.66 40.23">
  <defs>
    <style>
      .cls-1 {
        fill: url(#linear-gradient-3);
      }

      .cls-2 {
        fill: url(#linear-gradient-2);
      }

      .cls-3 {
        fill: url(#linear-gradient);
      }

      .cls-4 {
        fill: #fdfefe;
        stroke: #422d1e;
        stroke-miterlimit: 10;
        stroke-width: .75px;
      }

      .cls-5 {
        fill: #422d1e;
      }
    </style>
    <linearGradient id="linear-gradient" x1="22.85" y1="18.85" x2="0" y2="18.85" gradientUnits="userSpaceOnUse">
      <stop offset="0" stop-color="#f99d1e"/>
      <stop offset=".11" stop-color="#f5a045"/>
      <stop offset=".25" stop-color="#f2a46e"/>
      <stop offset=".4" stop-color="#efa791"/>
      <stop offset=".54" stop-color="#eca9ab"/>
      <stop offset=".69" stop-color="#ebabbe"/>
      <stop offset=".84" stop-color="#eaacca"/>
      <stop offset="1" stop-color="#eaadce"/>
    </linearGradient>
    <linearGradient id="linear-gradient-2" x1="25.45" y1="29.88" x2="38.1" y2="29.88" gradientTransform="translate(-6.87 -12.38) rotate(-8.31) scale(.93 .73) skewX(-14.58)" gradientUnits="userSpaceOnUse">
      <stop offset="0" stop-color="#ef543b"/>
      <stop offset="1" stop-color="#69431a"/>
    </linearGradient>
    <linearGradient id="linear-gradient-3" x1="18.89" y1="12.14" x2="4.36" y2="3.75" gradientTransform="matrix(1,0,0,1,0,0)" xlink:href="#linear-gradient-2"/>
  </defs>
  <g id="Layer_1-2" data-name="Layer 1">
    <path class="cls-5" d="M14.33,40.11c.94.13,3.32.27,4.09-.25.71-.48.91-2.4-.16-3.02-.85-.49-2.29-.11-2.89.3l-.37-3.55-1.34.17s-.06,6.25.67,6.35Z"/>
    <path class="cls-5" d="M11.01,40.11c-.94.13-3.32.27-4.09-.25-.71-.48-.91-2.4.16-3.02.85-.49,2.29-.11,2.89.3l.37-3.55,1.34.17s.06,6.25-.67,6.35Z"/>
    <path class="cls-3" d="M22.85,19.59c0,8.28-3.23,14.25-11.42,14.25S0,27.87,0,19.59C0,12.98,5.98,3.86,11.43,3.86s11.42,8.68,11.42,15.73Z"/>
    <path class="cls-5" d="M14.91,22.22c1-.15.08,1.99-1.85,1.99-1.79,0-2.81-2.09-1.81-1.99,1.26.13,2.58.16,3.66,0Z"/>
    <g>
      <path class="cls-2" d="M17.88,10.25c-3.07,1.7-7.2-4.74-3.71-6.68,4.65-2.58,9.25-3.18,10.28-1.34s-1.92,5.43-6.57,8.02Z"/>
      <path class="cls-1" d="M21.4,7.18c.9,3.39-17.61,8.78-18.63,4.92C1.41,6.95,4.48,1.68,9.62.32c5.15-1.36,10.42,1.71,11.78,6.86Z"/>
    </g>
    <g>
      <ellipse class="cls-4" cx="16.82" cy="17.42" rx="1.61" ry="2.22"/>
      <circle class="cls-5" cx="16.02" cy="16.9" r="1.07"/>
      <ellipse class="cls-4" cx="9.14" cy="17.73" rx="1.61" ry="2.22"/>
      <circle class="cls-5" cx="8.34" cy="17.2" r="1.07"/>
    </g>
  </g>
</svg>