<?xml version="1.0" encoding="UTF-8"?>
<svg id="Layer_2" data-name="Layer 2" xmlns="http://www.w3.org/2000/svg" xmlns:xlink="http://www.w3.org/1999/xlink" viewBox="0 0 36.84 41.74">
  <defs>
    <style>
      .cls-1 {
        fill: url(#linear-gradient-2);
      }

      .cls-2 {
        fill: url(#linear-gradient);
      }

      .cls-3 {
        fill: #fdfefe;
        stroke: #422d1e;
        stroke-miterlimit: 10;
        stroke-width: .75px;
      }

      .cls-4 {
        fill: #422d1e;
      }

      .cls-5 {
        fill: #231f20;
        stroke: #231f20;
        stroke-linecap: round;
        stroke-linejoin: round;
        stroke-width: .5px;
      }
    </style>
    <linearGradient id="linear-gradient" x1="25.42" y1="36.43" x2="25.42" y2="6.44" gradientUnits="userSpaceOnUse">
      <stop offset="0" stop-color="#666d89"/>
      <stop offset=".14" stop-color="#508593"/>
      <stop offset=".32" stop-color="#3c9c9d"/>
      <stop offset=".51" stop-color="#2eada4"/>
      <stop offset=".72" stop-color="#25b6a8"/>
      <stop offset="1" stop-color="#23baaa"/>
    </linearGradient>
    <linearGradient id="linear-gradient-2" x1="0" y1="7.1" x2="25.39" y2="7.1" gradientUnits="userSpaceOnUse">
      <stop offset="0" stop-color="#fdc70c"/>
      <stop offset=".47" stop-color="#f3903f"/>
      <stop offset="1" stop-color="#e83c72"/>
    </linearGradient>
  </defs>
  <g id="Layer_1-2" data-name="Layer 1">
    <path class="cls-4" d="M27.08,41.62c.94.13,3.32.27,4.09-.25.71-.48.91-2.4-.16-3.02-.85-.49-2.29-.11-2.89.3l-.37-3.55-1.34.17s-.06,6.25.67,6.35Z"/>
    <path class="cls-4" d="M23.76,41.62c-.94.13-3.32.27-4.09-.25-.71-.48-.91-2.4.16-3.02.85-.49,2.29-.11,2.89.3l.37-3.55,1.34.17s.06,6.25-.67,6.35Z"/>
    <path class="cls-2" d="M36.84,22.17c0,8.28-3.23,14.25-11.42,14.25s-11.43-5.97-11.43-14.25c0-6.61,5.98-15.73,11.43-15.73s11.42,8.68,11.42,15.73Z"/>
    <path class="cls-4" d="M27.21,23.26c1-.15.08,1.99-1.85,1.99-1.79,0-2.81-2.09-1.81-1.99,1.26.13,2.58.16,3.66,0Z"/>
    <path class="cls-5" d="M16.86,19.92c0,1.18-.83,2.13-1.85,2.13s-1.83-.94-1.85-2.1V.54l-.35-.29-.34.29v19.47h0c.04,1.58,1.15,2.84,2.53,2.84s2.54-1.31,2.54-2.93h-.69Z"/>
    <path class="cls-1" d="M10.16,13.08c0-1.22,1.14-2.21,2.54-2.21s2.54.99,2.54,2.21c0-1.22,1.14-2.21,2.54-2.21s2.54.99,2.54,2.21c0-1.22,1.14-2.21,2.54-2.21,1.31,0,2.38.87,2.51,1.98.02-.22.04-.45.04-.68,0-6.1-5.68-11.05-12.7-11.05S0,6.07,0,12.17c0,.2.02.4.04.6.17-1.07,1.22-1.9,2.5-1.9,1.4,0,2.54.99,2.54,2.21,0-1.22,1.14-2.21,2.54-2.21s2.54.99,2.54,2.21"/>
    <g>
      <ellipse class="cls-3" cx="29.36" cy="18.01" rx="1.61" ry="2.22"/>
      <circle class="cls-4" cx="28.56" cy="17.49" r="1.07"/>
      <ellipse class="cls-3" cx="21.68" cy="18.32" rx="1.61" ry="2.22"/>
      <circle class="cls-4" cx="20.88" cy="17.79" r="1.07"/>
    </g>
  </g>
</svg>