<?xml version="1.0" encoding="UTF-8"?>
<svg id="Layer_2" data-name="Layer 2" xmlns="http://www.w3.org/2000/svg" xmlns:xlink="http://www.w3.org/1999/xlink" viewBox="0 0 23.24 38.87">
  <defs>
    <style>
      .cls-1 {
        fill: url(#linear-gradient-3);
      }

      .cls-2 {
        fill: url(#linear-gradient-2);
      }

      .cls-3 {
        fill: url(#linear-gradient);
      }

      .cls-4 {
        fill: #ed1c24;
      }

      .cls-5 {
        fill: #422d1e;
      }

      .cls-6 {
        fill: #1f140c;
      }
    </style>
    <linearGradient id="linear-gradient" x1="0" y1="18.01" x2="22.85" y2="18.01" gradientUnits="userSpaceOnUse">
      <stop offset="0" stop-color="#c6e9f4"/>
      <stop offset=".14" stop-color="#c0e7f3"/>
      <stop offset=".3" stop-color="#b2e1f1"/>
      <stop offset=".47" stop-color="#9ad7ee"/>
      <stop offset=".66" stop-color="#78caea"/>
      <stop offset=".85" stop-color="#4db9e5"/>
      <stop offset="1" stop-color="#27aae1"/>
    </linearGradient>
    <linearGradient id="linear-gradient-2" x1="9.94" y1="4.49" x2="22.59" y2="4.49" gradientTransform="translate(2.63 4.73) rotate(-8.31) scale(.93 .73) skewX(-14.58)" gradientUnits="userSpaceOnUse">
      <stop offset="0" stop-color="#ef543b"/>
      <stop offset="1" stop-color="#69431a"/>
    </linearGradient>
    <linearGradient id="linear-gradient-3" x1="17.47" y1="12.14" x2="2.93" y2="3.75" gradientTransform="matrix(1,0,0,1,0,0)" xlink:href="#linear-gradient-2"/>
  </defs>
  <g id="Layer_1-2" data-name="Layer 1">
    <path class="cls-5" d="M13.23,38.76c.94.13,3.32.27,4.09-.25.71-.48.91-2.4-.16-3.02-.85-.49-2.29-.11-2.89.3l-.37-3.55-1.34.17s-.06,6.25.67,6.35Z"/>
    <path class="cls-5" d="M9.91,38.76c-.94.13-3.32.27-4.09-.25-.71-.48-.91-2.4.16-3.02.85-.49,2.29-.11,2.89.3l.37-3.55,1.34.17s.06,6.25-.67,6.35Z"/>
    <path class="cls-3" d="M22.85,18.75c0,8.28-3.23,14.25-11.42,14.25S0,27.03,0,18.75C0,12.14,5.98,3.02,11.43,3.02s11.42,8.68,11.42,15.73Z"/>
    <circle class="cls-5" cx="6.66" cy="16.9" r="1.07"/>
    <circle class="cls-5" cx="16.53" cy="16.9" r="1.07"/>
    <path class="cls-5" d="M13.39,20.4c1-.15.08,1.99-1.85,1.99-1.79,0-2.81-2.09-1.81-1.99,1.26.13,2.58.16,3.66,0Z"/>
    <g>
      <path class="cls-4" d="M12.49,16.87c.5.07.04-.99-.92-.99-.9,0-1.4,1.05-.9.99.63-.07,1.29-.08,1.83,0Z"/>
      <g>
        <path class="cls-6" d="M7.79,20.29c-.15,0-.29-.09-.35-.23-.17-.41-.7-.93-1.21-1.43-.71-.7-1.38-1.36-1.49-2.03-.01-.53.15-.95.48-1.28.35-.36.88-.57,1.41-.57.48,0,.97.18,1.29.56.33-.33.83-.54,1.33-.54.73,0,1.59.46,1.59,1.76,0,.71-.74,1.42-1.52,2.16-.51.48-1.03.98-1.18,1.36-.06.14-.19.23-.34.23h0Z"/>
        <path class="cls-4" d="M6.63,15.13c.63,0,1.22.36,1.27,1.16-.04-.66.66-1.13,1.34-1.13.62,0,1.21.39,1.21,1.39s-2.26,2.36-2.67,3.37c-.44-1.04-2.51-2.36-2.67-3.37-.01-.91.77-1.41,1.52-1.41M6.63,14.38s0,0,0,0c-.64,0-1.25.25-1.68.68-.39.4-.6.92-.59,1.49,0,.04,0,.07,0,.11.13.79.84,1.49,1.6,2.24.46.45.98.97,1.13,1.31.12.28.39.46.69.46h0c.3,0,.57-.19.69-.47.12-.3.66-.81,1.1-1.22.84-.8,1.63-1.56,1.63-2.43,0-1.48-.99-2.14-1.96-2.14-.47,0-.94.15-1.31.41-.35-.28-.8-.44-1.31-.44h0Z"/>
      </g>
      <g>
        <path class="cls-6" d="M15.35,20.15c-.15,0-.29-.09-.35-.23-.17-.41-.7-.93-1.21-1.43-.71-.7-1.38-1.36-1.49-2.03-.01-.53.15-.95.48-1.28.35-.36.88-.57,1.41-.57.48,0,.97.18,1.29.56.33-.33.83-.54,1.33-.54.73,0,1.59.46,1.59,1.76,0,.71-.74,1.42-1.52,2.16-.51.48-1.03.98-1.18,1.35-.06.14-.19.23-.34.23h0Z"/>
        <path class="cls-4" d="M14.19,14.99c.63,0,1.22.36,1.27,1.16-.04-.66.66-1.13,1.34-1.13.62,0,1.21.39,1.21,1.39s-2.26,2.36-2.67,3.37c-.44-1.04-2.51-2.36-2.67-3.37-.01-.91.77-1.41,1.52-1.41M14.19,14.24s0,0,0,0c-.64,0-1.25.25-1.68.68-.39.4-.6.92-.59,1.49,0,.04,0,.07,0,.11.13.79.84,1.49,1.6,2.24.46.45.98.97,1.13,1.31.12.28.39.46.69.46h0c.3,0,.57-.19.69-.47.12-.3.66-.81,1.1-1.22.84-.8,1.63-1.56,1.63-2.43,0-1.48-.99-2.14-1.96-2.14-.47,0-.94.15-1.31.41-.35-.28-.8-.44-1.31-.44h0Z"/>
      </g>
    </g>
    <g>
      <path class="cls-2" d="M16.46,10.25c-3.07,1.7-7.2-4.74-3.71-6.68,4.65-2.58,9.25-3.18,10.28-1.34s-1.92,5.43-6.57,8.02Z"/>
      <path class="cls-1" d="M19.98,7.18c.9,3.39-17.61,8.78-18.63,4.92C-.01,6.95,3.06,1.68,8.2.32c5.15-1.36,10.42,1.71,11.78,6.86Z"/>
    </g>
  </g>
</svg>