<?xml version="1.0" encoding="UTF-8"?>
<svg id="Layer_2" data-name="Layer 2" xmlns="http://www.w3.org/2000/svg" xmlns:xlink="http://www.w3.org/1999/xlink" viewBox="0 0 22.85 29.98">
  <defs>
    <style>
      .cls-1 {
        fill: url(#linear-gradient);
      }
    </style>
    <linearGradient id="linear-gradient" x1="0" y1="14.99" x2="22.85" y2="14.99" gradientUnits="userSpaceOnUse">
      <stop offset="0" stop-color="#9bce7e"/>
      <stop offset=".08" stop-color="#b6cd77"/>
      <stop offset=".19" stop-color="#d5cc6f"/>
      <stop offset=".3" stop-color="#eccc6a"/>
      <stop offset=".4" stop-color="#facc67"/>
      <stop offset=".49" stop-color="#fc6"/>
      <stop offset=".66" stop-color="#f19c4d"/>
      <stop offset=".89" stop-color="#e16531"/>
      <stop offset="1" stop-color="#db5026"/>
    </linearGradient>
  </defs>
  <g id="Layer_1-2" data-name="Layer 1">
    <path class="cls-1" d="M11.43,0C5.98,0,0,9.12,0,15.73c0,8.28,3.17,14.25,11.43,14.25s11.42-5.97,11.42-14.25c0-7.05-5.79-15.73-11.42-15.73ZM11.73,26.16c-1.38.18-2.65-.8-2.82-2.18-.18-1.38.8-2.64,2.18-2.82,1.38-.18,2.65.8,2.82,2.18.18,1.38-.8,2.65-2.18,2.83ZM13.02,17.78c-.27.52-.78.86-1.35.94-.1.01-.21.02-.31.01-.69-.03-1.3-.47-1.56-1.11,0,0-1.45-3.45-1.69-5.73-.14-1.28-.3-4.44,1.28-5.98.66-.64,1.52-.92,2.45-.81,1,.13,1.83.75,2.34,1.73,1.34,2.58.47,7.84-1.15,10.95Z"/>
  </g>
</svg>