<?xml version="1.0" encoding="UTF-8"?>
<svg id="Layer_2" data-name="Layer 2" xmlns="http://www.w3.org/2000/svg" xmlns:xlink="http://www.w3.org/1999/xlink" viewBox="0 0 64.91 64.91">
  <defs>
    <style>
      .cls-1 {
        fill: none;
      }

      .cls-2 {
        fill: #9bce7e;
      }

      .cls-3 {
        fill: url(#linear-gradient);
      }

      .cls-4 {
        fill: #db5026;
      }

      .cls-5 {
        fill: #422d1e;
      }
    </style>
    <linearGradient id="linear-gradient" x1="15.02" y1="32.46" x2="49.89" y2="32.46" gradientUnits="userSpaceOnUse">
      <stop offset="0" stop-color="#9bce7e"/>
      <stop offset=".21" stop-color="#cdcc71"/>
      <stop offset=".39" stop-color="#f1cc69"/>
      <stop offset=".49" stop-color="#fc6"/>
      <stop offset=".56" stop-color="#fcc562"/>
      <stop offset=".67" stop-color="#f7b158"/>
      <stop offset=".79" stop-color="#ee9148"/>
      <stop offset=".94" stop-color="#e16631"/>
      <stop offset="1" stop-color="#db5026"/>
    </linearGradient>
  </defs>
  <g id="Layer_1-2" data-name="Layer 1">
    <circle class="cls-1" cx="32.46" cy="32.46" r="32.46"/>
    <g>
      <path class="cls-5" d="M29.76,57.79l-.95-4.52-.44-7.85c-.02-.41-.37-.74-.79-.71-.41.02-.73.38-.71.79l.41,7.34-4.14,1.45c-.39.14-.6.56-.46.96.11.31.4.5.71.5.08,0,.17-.01.25-.04l2.71-.95-1.95,3.23c-.21.35-.1.82.26,1.03.12.07.25.11.39.11.25,0,.5-.13.64-.36l2.04-3.38.57,2.71c.09.41.48.67.89.58.41-.09.67-.48.58-.89Z"/>
      <path class="cls-5" d="M41.8,54.72l-4.61-1.85.41-7.36c.02-.41-.29-.77-.71-.79-.43-.03-.77.29-.79.71l-.43,7.8-1.35,4.02c-.13.39.08.82.47.95.4.13.82-.08.95-.47l.87-2.58,2.18,3.62c.14.23.39.36.64.36.13,0,.27-.03.39-.11.35-.21.47-.67.26-1.03l-1.87-3.1,3.04,1.22c.09.04.19.05.28.05.3,0,.58-.18.7-.47.15-.38-.03-.82-.42-.98Z"/>
      <g>
        <path class="cls-4" d="M48.78,9.7c1.03.74.96,2.95.96,2.95,0,0,1.95-2.09,4.31-.67,2.04,1.23.1,4.07.1,4.07,0,0,5.7-.6,6.54.61,2.69,3.83-15.54,10.47-15.54,10.47-1.75-5.1-4.46-7.36-4.46-7.36,0,0,4.92-12.34,8.08-10.08Z"/>
        <path class="cls-4" d="M43.89,42.04c1.37,1.26,8.63,5.35,11.03,4.09,2.21-1.38.18-3.82-1.53-4.39-.66-.39,2.78.33,1.81-2.21-1.63-1.99-7.45-2.96-10.71-1.13"/>
        <path class="cls-2" d="M21.02,40.33c-1.37,1.26-8.63,5.35-11.03,4.09-2.21-1.38-.18-3.82,1.53-4.39.66-.39-2.78.33-1.81-2.21,1.63-1.99,7.45-2.96,10.71-1.13"/>
        <circle class="cls-3" cx="32.46" cy="32.46" r="17.43"/>
      </g>
    </g>
  </g>
</svg>