<?xml version="1.0" encoding="UTF-8"?>
<svg id="Layer_2" data-name="Layer 2" xmlns="http://www.w3.org/2000/svg" xmlns:xlink="http://www.w3.org/1999/xlink" viewBox="0 0 26.8 26.8">
  <defs>
    <style>
      .cls-1 {
        fill: none;
      }

      .cls-2 {
        fill: url(#linear-gradient-3);
      }

      .cls-3 {
        fill: url(#linear-gradient-2);
      }

      .cls-4 {
        fill: url(#linear-gradient);
      }

      .cls-5 {
        fill: #422d1e;
      }
    </style>
    <linearGradient id="linear-gradient" x1="21.48" y1="16.03" x2="16.9" y2="11.36" gradientTransform="translate(.95 -2.01) rotate(6.5) scale(1 .96) skewX(12.58)" gradientUnits="userSpaceOnUse">
      <stop offset="0" stop-color="#5f939e"/>
      <stop offset=".04" stop-color="#669ca9"/>
      <stop offset=".16" stop-color="#77b2c1"/>
      <stop offset=".29" stop-color="#85c3d5"/>
      <stop offset=".45" stop-color="#8ecfe2"/>
      <stop offset=".64" stop-color="#94d6ea"/>
      <stop offset="1" stop-color="#96d9ed"/>
    </linearGradient>
    <linearGradient id="linear-gradient-2" x1="20.13" y1="12.82" x2="5.92" y2="7.64" gradientUnits="userSpaceOnUse">
      <stop offset="0" stop-color="#5f939e"/>
      <stop offset="1" stop-color="#96d9ed"/>
    </linearGradient>
    <linearGradient id="linear-gradient-3" x1="33.58" y1="-25.24" x2="27.33" y2="-26.06" gradientTransform="translate(7.28 -25.68) rotate(37.56) scale(1 -1)" xlink:href="#linear-gradient"/>
  </defs>
  <g id="Layer_1-2" data-name="Layer 1">
    <g>
      <g>
        <path class="cls-4" d="M23.29,16.78c.07-.6-.58-1.3-.58-1.3,0,0,1.77-.47,1.9-1.32.17-1.13-1.82-1.31-1.82-1.31,0,0,2.45-1.04,1.89-2.46-1.32-3.33-7.79,2.77-7.79,2.77,1.23,2.26.56,2.71.56,2.71,0,0,5.63,2.74,5.85.92Z"/>
        <g>
          <path class="cls-5" d="M9.99,14.74c-.2-.03-.39.12-.42.33l-.43,3.61-2.58.44c-.2.04-.34.23-.31.43.03.18.19.31.37.31.02,0,.04,0,.06,0l1.82-.31-1.21,1.39c-.14.16-.12.39.04.53.16.14.39.12.53-.04l1.38-1.58.26,1.67c.03.18.19.32.37.32.02,0,.04,0,.06,0,.2-.03.34-.22.31-.43l-.38-2.41.46-3.84c.02-.21-.12-.39-.33-.42Z"/>
          <path class="cls-5" d="M16.07,22.72l-.52-2.18-.22-3.88c-.01-.21-.19-.38-.4-.35-.21.01-.36.19-.35.39l.2,3.64-2.33.92c-.19.08-.29.29-.21.49.06.15.2.24.35.24.05,0,.09,0,.14-.03l1.55-.61-.92,1.53c-.11.18-.05.41.13.51.06.04.13.05.19.05.13,0,.25-.06.32-.18l1.02-1.7.32,1.32c.05.2.25.33.45.28.2-.05.33-.25.28-.45Z"/>
        </g>
        <circle class="cls-3" cx="13.02" cy="10.23" r="7.56"/>
        <path class="cls-5" d="M4.38,12.37c-.24,0-.47-.03-.65-.09-.39-.13-.53-.39-.57-.57-.05-.23,0-.45.15-.62.11-.13.28-.24.47-.31-.48-.12-1.35-.44-1.51-1.01-.06-.19-.05-.48.28-.79,1.06-.83,3.57.47,3.98.74.12.08.15.23.07.35-.07.12-.23.15-.35.07-.71-.46-2.73-1.29-3.39-.78-.16.15-.13.24-.13.27.08.27.75.59,1.28.69.1.02.41.05.75.08.67.07,1.09.11,1.22.15.12.04.2.16.18.28s-.13.21-.26.21c-.76-.04-1.95.05-2.23.37-.05.06-.06.11-.04.19,0,.03.03.14.24.21.66.22,2.09-.15,2.61-.58.11-.09.26-.07.35.03.09.11.07.26-.03.35-.5.42-1.59.76-2.44.76Z"/>
        <path class="cls-2" d="M13.67,11.36c.9-.08,4.88.49,5.43,1.68.44,1.18-1.06,1.52-1.88,1.23-.37-.04,1.16.69.04,1.38-1.21.28-3.73-1.06-4.43-2.72-.02-.05-.21-.64.15-1.13.24-.32.58-.41.69-.44Z"/>
        <path class="cls-5" d="M8.83,9.51s-.06,0-.1,0c-.28-.03-.5-.12-.68-.28-.1-.09-.1-.25,0-.35.1-.1.25-.1.35,0,.09.08.21.13.38.15.15.02.29-.04.4-.14.11-.1.18-.24.18-.38,0-.09.05-.18.13-.22.08-.04.18-.04.26.01.21.14.3.19.39.19.14,0,.24.13.23.27,0,.14-.13.23-.26.23-.12,0-.22-.04-.33-.09-.06.14-.15.26-.26.36-.19.18-.44.27-.69.27Z"/>
      </g>
      <circle class="cls-1" cx="13.4" cy="13.4" r="13.4"/>
    </g>
  </g>
</svg>