<?xml version="1.0" encoding="UTF-8"?>
<svg id="Layer_2" data-name="Layer 2" xmlns="http://www.w3.org/2000/svg" xmlns:xlink="http://www.w3.org/1999/xlink" viewBox="0 0 23.48 20.96">
  <defs>
    <style>
      .cls-1 {
        fill: url(#linear-gradient-7);
        stroke: #9bce7e;
      }

      .cls-1, .cls-2, .cls-3, .cls-4, .cls-5 {
        stroke-linecap: round;
        stroke-linejoin: round;
      }

      .cls-1, .cls-2, .cls-4, .cls-5 {
        stroke-width: .5px;
      }

      .cls-6 {
        fill: url(#linear-gradient-4);
      }

      .cls-7 {
        fill: url(#linear-gradient-3);
      }

      .cls-8 {
        fill: url(#linear-gradient-2);
      }

      .cls-9 {
        fill: url(#linear-gradient);
      }

      .cls-2 {
        fill: url(#linear-gradient-5);
        stroke: url(#linear-gradient-6);
      }

      .cls-3 {
        stroke-width: .75px;
      }

      .cls-3, .cls-4 {
        fill: none;
      }

      .cls-3, .cls-4, .cls-5 {
        stroke: #422d1e;
      }

      .cls-5 {
        fill: #422d1e;
      }
    </style>
    <linearGradient id="linear-gradient" x1="0" y1="11.83" x2="4.71" y2="11.83" gradientUnits="userSpaceOnUse">
      <stop offset="0" stop-color="#9bce7e"/>
      <stop offset=".2" stop-color="#9fcd7d"/>
      <stop offset=".4" stop-color="#abcd7a"/>
      <stop offset=".6" stop-color="#bfcd75"/>
      <stop offset=".8" stop-color="#dccc6e"/>
      <stop offset="1" stop-color="#fc6"/>
    </linearGradient>
    <linearGradient id="linear-gradient-2" x1="14.69" y1="3.84" x2="23.48" y2="3.84" gradientUnits="userSpaceOnUse">
      <stop offset="0" stop-color="#9bce7e"/>
      <stop offset=".26" stop-color="#b0cd78"/>
      <stop offset=".8" stop-color="#e8cc6b"/>
      <stop offset="1" stop-color="#fc6"/>
    </linearGradient>
    <linearGradient id="linear-gradient-3" x1="2.78" y1="8.99" x2="17.89" y2="8.99" xlink:href="#linear-gradient"/>
    <linearGradient id="linear-gradient-4" x1="14.68" y1="12.1" x2="20.46" y2="12.1" xlink:href="#linear-gradient"/>
    <linearGradient id="linear-gradient-5" x1=".43" y1="3.65" x2="2.23" y2="3.65" xlink:href="#linear-gradient"/>
    <linearGradient id="linear-gradient-6" x1=".18" y1="3.65" x2="2.48" y2="3.65" xlink:href="#linear-gradient"/>
    <linearGradient id="linear-gradient-7" x1="-52.67" y1="-17.57" x2="-52.44" y2="-17.57" gradientTransform="translate(56.85 8.26) rotate(-16.08)" xlink:href="#linear-gradient"/>
  </defs>
  <g id="Layer_1-2" data-name="Layer 1">
    <g>
      <g>
        <path class="cls-9" d="M4.71,11.31c-.38.71-1.87,2.95-3.04,2.78-1.1-.25-.62-1.54,0-2.01.21-.25-1.62.45-1.67-.51-.08-1.41,3.65-1.04,4.41-2"/>
        <path class="cls-8" d="M18.19.12c.45.32.42,1.28.42,1.28,0,0,.84-.91,1.87-.29.89.53.04,1.77.04,1.77,0,0,2.47-.26,2.84.27,1.16,1.66-6.74,4.54-6.74,4.54-.76-2.21-1.93-3.19-1.93-3.19,0,0,2.13-5.35,3.5-4.37Z"/>
        <polyline class="cls-3" points="7.53 14.19 7.75 18.1 5.51 18.89"/>
        <polyline class="cls-3" points="6.26 20.58 7.75 18.1 8.33 20.44"/>
        <polyline class="cls-3" points="13.51 14.19 13.73 18.1 11.36 19.12"/>
        <polyline class="cls-3" points="12.23 20.58 13.73 18.1 14.08 20.39"/>
        <circle class="cls-7" cx="10.33" cy="8.99" r="7.56"/>
        <path class="cls-4" d="M10.02,8.99c-.68-.27-3.07-.81-3.76,0-.61.83.81,1.15,1.52,1.11.3.05,2.82-.44,1.65-.08-.53.17-2.49.81-2.07,1.43.35.51,2.57-.2,3.19-.97"/>
        <path class="cls-4" d="M6.02,5.81c.33-.26.75-.29.94-.06"/>
        <path class="cls-4" d="M13.12,5.4c-.37-.49-.63-.69-1.33-.38"/>
        <circle class="cls-5" cx="11.46" cy="7.12" r=".32"/>
        <path class="cls-5" d="M6.48,7.41c-.18,0-.32-.14-.32-.32s.14-.32.32-.32.32.14.32.32-.14.32-.32.32Z"/>
        <path class="cls-6" d="M16.33,10.43c2.21.42,2.72-.68,3.57.29.52.83-.74,1.24-.4,1.44.87.29,1.46,1.05.36,1.67-1.19.56-4.09-.42-4.8-1.04-.45-.42-.44-1.37-.29-1.99.21-.9,1-.54,1.56-.37Z"/>
      </g>
      <path class="cls-2" d="M1.5,4.71s.06-.54.1-.69c.04-.16.07-.32.05-.47s-.13-.31-.29-.35c-.19-.05-.38.08-.57.16-.06.03-.14.05-.21.03-.1-.03-.16-.14-.15-.25s.08-.19.16-.27c.28-.27.72-.36,1.09-.24.26.09.49.29.54.55.02.1,0,.21-.01.32-.06.34-.59,1.11-.71,1.21Z"/>
      <circle class="cls-1" cx="1.48" cy="5.93" r=".11"/>
    </g>
  </g>
</svg>