<?xml version="1.0" encoding="UTF-8"?>
<svg id="Layer_2" data-name="Layer 2" xmlns="http://www.w3.org/2000/svg" xmlns:xlink="http://www.w3.org/1999/xlink" viewBox="0 0 26.8 26.8">
  <defs>
    <style>
      .cls-1 {
        fill: none;
      }

      .cls-2 {
        fill: url(#linear-gradient-5);
      }

      .cls-3 {
        fill: url(#linear-gradient-6);
      }

      .cls-4 {
        fill: url(#linear-gradient-4);
      }

      .cls-5 {
        fill: url(#linear-gradient-3);
      }

      .cls-6 {
        fill: url(#linear-gradient-2);
      }

      .cls-7 {
        fill: url(#linear-gradient);
      }

      .cls-8 {
        fill: #422d1e;
      }
    </style>
    <linearGradient id="linear-gradient" x1="14.5" y1="-3.73" x2="23.77" y2="-3.73" gradientTransform="translate(1.28 12.39) rotate(.53) scale(1.01 1.07) skewX(1.09)" gradientUnits="userSpaceOnUse">
      <stop offset="0" stop-color="#fc6"/>
      <stop offset=".43" stop-color="#ed9047"/>
      <stop offset=".81" stop-color="#e0612f"/>
      <stop offset="1" stop-color="#db5026"/>
    </linearGradient>
    <linearGradient id="linear-gradient-2" x1="-79.74" y1="-541.55" x2="-72.41" y2="-541.55" gradientTransform="translate(-148.23 -634.96) rotate(-11.23) scale(1.04 -1.24) skewX(-11.92)" xlink:href="#linear-gradient"/>
    <linearGradient id="linear-gradient-3" x1="92.4" y1="-52.18" x2="97.85" y2="-52.18" gradientTransform="translate(-123.42 51.37) rotate(12.87) scale(1.12 1.26) skewX(-7.32)" xlink:href="#linear-gradient"/>
    <linearGradient id="linear-gradient-4" x1="4.94" y1="14.52" x2="20.06" y2="14.52" gradientTransform="matrix(1,0,0,1,0,0)" xlink:href="#linear-gradient"/>
    <linearGradient id="linear-gradient-5" x1="4.2" y1="6.67" x2="5.68" y2="6.67" gradientTransform="matrix(1,0,0,1,0,0)" xlink:href="#linear-gradient"/>
    <linearGradient id="linear-gradient-6" x1="4.04" y1="9.13" x2="5.11" y2="9.13" gradientTransform="matrix(1,0,0,1,0,0)" xlink:href="#linear-gradient"/>
  </defs>
  <g id="Layer_1-2" data-name="Layer 1">
    <g>
      <circle class="cls-1" cx="13.4" cy="13.4" r="13.4"/>
      <g>
        <g>
          <path class="cls-7" d="M22.92,10.19c-1.93,1.6-4.42,3.06-4.42,3.06-1.21-2.52-2.65-3.5-2.65-3.5,0,0,1.36-6.72,3.01-5.77.54.31.68,1.46.68,1.46,0,0,.75-1.22,1.97-.64,1.05.49.36,2.1.36,2.1,0,0,2.62-.7,3.11-.14.69.8-.5,2.16-2.04,3.43"/>
          <path class="cls-6" d="M19.17,15.22c.36-.76,3.26-4.15,4.58-3.72,1.26.51,1.29,2.17-.3,3.03,0,0,.83.39.83,1.48,0,1.79-3.4,1.66-5.78,1.46"/>
          <path class="cls-5" d="M5.79,13.46c-.42-.8-3.31-4.25-4.68-3.86-1.3.48-.6,2.5.11,2.98,0,0-.84.56-.73,1.52.23,1.92,2.87,1.57,4.34,1.18"/>
          <path class="cls-8" d="M7.9,24.3c-.15,0-.3-.1-.35-.25-.07-.2.03-.41.23-.48l2.05-.72-.2-3.63c-.01-.21.15-.38.35-.39.2-.03.38.15.4.35l.22,3.91c0,.17-.09.32-.25.37l-2.31.81s-.08.02-.12.02Z"/>
          <path class="cls-8" d="M8.99,25.53c-.07,0-.14-.02-.2-.06-.17-.11-.23-.34-.12-.52l1.29-2.04c.08-.13.23-.2.38-.17.15.03.27.14.3.29l.41,1.86c.04.2-.08.4-.29.45-.2.04-.4-.08-.45-.29l-.22-.98-.81,1.27c-.07.11-.19.17-.32.17Z"/>
          <path class="cls-8" d="M16.05,24.85s-.09,0-.14-.03l-2.53-1.01c-.15-.06-.24-.21-.23-.37l.22-3.91c.01-.21.18-.39.4-.35.21.01.36.19.35.39l-.2,3.64,2.28.91c.19.08.29.29.21.49-.06.15-.2.24-.35.24Z"/>
          <path class="cls-8" d="M14.78,25.94c-.12,0-.25-.06-.32-.17l-.92-1.45-.36,1c-.07.2-.28.3-.48.23-.2-.07-.3-.28-.23-.48l.61-1.73c.05-.13.17-.23.31-.25.14-.01.28.05.36.17l1.34,2.1c.11.17.06.41-.12.52-.06.04-.13.06-.2.06Z"/>
          <circle class="cls-4" cx="12.5" cy="14.52" r="7.56"/>
          <path class="cls-8" d="M10,17.65s-.04,0-.06,0c-.33-.01-.59-.15-.76-.39-.13-.18-.16-.38-.09-.57.09-.27.38-.53.89-.79-.09,0-.18,0-.27,0-.54-.02-1.83-.27-2.14-.93-.08-.18-.13-.47.14-.81,1.02-1.1,4.49.13,4.53.14.13.05.2.19.15.32-.05.13-.19.2-.32.15-1.11-.4-3.42-.89-3.98-.29-.12.15-.08.24-.06.27.16.35,1.13.62,1.7.64,1.07.04,1.53-.07,1.8-.12.12-.03.2-.05.3-.04.12,0,.23.09.25.22.03.21-.15.27-.3.32-1.84.55-2.16.95-2.21,1.09,0,.03-.02.06.03.12.08.12.2.17.38.18.01,0,.03,0,.04,0,.74,0,1.96-.85,2.46-1.43.09-.1.25-.12.35-.02.1.09.12.25.02.35-.48.55-1.83,1.6-2.84,1.6Z"/>
          <path class="cls-8" d="M9.46,11.86c-.14,0-.25-.11-.25-.25s-.18-.26-.39-.26c-.14,0-.25-.11-.25-.25s.11-.25.25-.25c.49,0,.89.34.89.76,0,.14-.11.25-.25.25Z"/>
          <path class="cls-8" d="M13.4,11.86c-.14,0-.25-.11-.25-.25,0-.42.36-.76.8-.76.14,0,.25.11.25.25s-.11.25-.25.25c-.17,0-.3.12-.3.26,0,.14-.11.25-.25.25Z"/>
          <g>
            <circle class="cls-8" cx="8.82" cy="12.61" r=".32"/>
            <path class="cls-8" d="M8.82,13.18c-.32,0-.57-.26-.57-.57s.26-.57.57-.57.57.26.57.57-.26.57-.57.57ZM8.82,12.54s-.07.03-.07.07c0,.08.15.08.15,0,0-.04-.03-.07-.07-.07Z"/>
          </g>
          <g>
            <circle class="cls-8" cx="14.12" cy="12.61" r=".32"/>
            <path class="cls-8" d="M14.12,13.18c-.32,0-.57-.26-.57-.57s.26-.57.57-.57.57.26.57.57-.26.57-.57.57ZM14.12,12.54s-.07.03-.07.07c0,.08.15.08.15,0,0-.04-.03-.07-.07-.07Z"/>
          </g>
        </g>
        <path class="cls-2" d="M4.77,8.11s-.04,0-.07,0c-.14-.03-.26-.13-.3-.27l-.06-.24c-.09-.34-.14-.52-.13-1.01,0-.27.06-.94.43-1.22.15-.12.34-.15.53-.1.21.05.36.21.44.43.21.58-.11,1.66-.54,2.26-.07.1-.19.16-.31.16Z"/>
        <path class="cls-3" d="M4.58,9.67c-.29,0-.53-.24-.53-.53s.24-.53.53-.53.53.24.53.53-.24.53-.53.53Z"/>
      </g>
    </g>
  </g>
</svg>