<?xml version="1.0" encoding="UTF-8"?>
<svg id="Layer_2" data-name="Layer 2" xmlns="http://www.w3.org/2000/svg" xmlns:xlink="http://www.w3.org/1999/xlink" viewBox="0 0 20.45 22.95">
  <defs>
    <style>
      .cls-1 {
        fill: url(#linear-gradient-6);
        stroke: url(#linear-gradient-7);
      }

      .cls-1, .cls-2 {
        stroke-miterlimit: 10;
      }

      .cls-3 {
        fill: url(#linear-gradient-3);
      }

      .cls-4 {
        fill: url(#linear-gradient-2);
      }

      .cls-5 {
        fill: url(#linear-gradient);
      }

      .cls-6 {
        fill: url(#linear-gradient-8);
        stroke: url(#linear-gradient-9);
      }

      .cls-6, .cls-7, .cls-8, .cls-9, .cls-10 {
        stroke-linecap: round;
        stroke-linejoin: round;
      }

      .cls-7 {
        fill: url(#linear-gradient-4);
        stroke: url(#linear-gradient-5);
      }

      .cls-2 {
        fill: url(#linear-gradient-10);
        stroke: url(#linear-gradient-11);
      }

      .cls-8, .cls-9 {
        stroke-width: .75px;
      }

      .cls-8, .cls-9, .cls-10 {
        stroke: #422d1e;
      }

      .cls-8, .cls-10 {
        fill: none;
      }

      .cls-9 {
        fill: #422d1e;
      }

      .cls-10 {
        stroke-width: .5px;
      }
    </style>
    <linearGradient id="linear-gradient" x1="-65.12" y1="-18.08" x2="-59.51" y2="-18.08" gradientTransform="translate(66.4 58.03) rotate(21.69) scale(.99) skewX(2.16)" gradientUnits="userSpaceOnUse">
      <stop offset="0" stop-color="#db5026"/>
      <stop offset="1" stop-color="#85251a"/>
    </linearGradient>
    <linearGradient id="linear-gradient-2" x1="65.26" y1="40.92" x2="70.87" y2="40.92" gradientTransform="translate(11.95 -68.47) rotate(67.6) scale(.92 .91) skewX(6.42)" xlink:href="#linear-gradient"/>
    <linearGradient id="linear-gradient-3" x1="-.79" y1="16.1" x2="14.33" y2="16.1" gradientTransform="translate(13.86 -2.16) rotate(42.49)" gradientUnits="userSpaceOnUse">
      <stop offset="0" stop-color="#db5026"/>
      <stop offset=".18" stop-color="#d44c25"/>
      <stop offset=".45" stop-color="#c04222"/>
      <stop offset=".76" stop-color="#a1331d"/>
      <stop offset="1" stop-color="#85251a"/>
    </linearGradient>
    <linearGradient id="linear-gradient-4" x1="8.09" y1="2.62" x2="8.81" y2="2.62" gradientTransform="matrix(1,0,0,1,0,0)" xlink:href="#linear-gradient-3"/>
    <linearGradient id="linear-gradient-5" x1="7.59" y1="2.62" x2="9.31" y2="2.62" gradientTransform="matrix(1,0,0,1,0,0)" xlink:href="#linear-gradient-3"/>
    <linearGradient id="linear-gradient-6" x1="7.98" y1="5.44" x2="8.3" y2="5.44" gradientTransform="matrix(1,0,0,1,0,0)" xlink:href="#linear-gradient-3"/>
    <linearGradient id="linear-gradient-7" x1="7.48" y1="5.44" x2="8.8" y2="5.44" gradientTransform="matrix(1,0,0,1,0,0)" xlink:href="#linear-gradient-3"/>
    <linearGradient id="linear-gradient-8" x1="10.4" y1="1.56" x2="11.12" y2="1.56" gradientTransform="matrix(1,0,0,1,0,0)" xlink:href="#linear-gradient-3"/>
    <linearGradient id="linear-gradient-9" x1="9.9" y1="1.56" x2="11.62" y2="1.56" gradientTransform="matrix(1,0,0,1,0,0)" xlink:href="#linear-gradient-3"/>
    <linearGradient id="linear-gradient-10" x1="10.24" y1="4.37" x2="10.56" y2="4.37" gradientTransform="matrix(1,0,0,1,0,0)" xlink:href="#linear-gradient-3"/>
    <linearGradient id="linear-gradient-11" x1="9.74" y1="4.37" x2="11.06" y2="4.37" gradientTransform="matrix(1,0,0,1,0,0)" xlink:href="#linear-gradient-3"/>
  </defs>
  <g id="Layer_1-2" data-name="Layer 1">
    <g>
      <g>
        <path class="cls-5" d="M12.27,18.78c.72-.6,4.48-2.67,5.65-2.22,1.07.51,0,1.65-.89,1.97-.34.2,1.28.11.73,1.25-.87.93-3.7,1.22-5.29.55"/>
        <path class="cls-4" d="M2.97,10.34c.5-.78,2.16-4.71,1.73-5.8-.48-.98-1.43.22-1.68,1.11-.16.36-.14-1.24-1.12-.56-.78.97-.92,3.77-.29,5.24"/>
        <polyline class="cls-8" points="11.33 8.63 13.81 5.6 16.47 5.29"/>
        <polyline class="cls-8" points="16.36 3.69 13.86 5.51 14.37 3.05"/>
        <polyline class="cls-8" points="14.37 12 17.27 9.38 19.86 9.47"/>
        <polyline class="cls-8" points="20.08 7.88 17.33 9.3 18.34 7.07"/>
        <circle class="cls-3" cx="7.98" cy="14.29" r="7.56"/>
        <ellipse class="cls-9" cx="2.98" cy="16.58" rx=".14" ry=".34" transform="translate(-1.95 .47) rotate(-6.81)"/>
        <path class="cls-10" d="M1.91,15.09c-.25.23-.2.68.1,1"/>
      </g>
      <path class="cls-7" d="M8.27,3.68c-.13-.51-.2-.62-.19-1.14,0-.39.12-1.06.49-.97.46.12.17,1.43-.31,2.11Z"/>
      <circle class="cls-1" cx="8.14" cy="5.44" r=".16"/>
      <path class="cls-6" d="M10.59,2.62c-.13-.51-.2-.62-.19-1.14,0-.39.12-1.06.49-.97.46.12.17,1.43-.31,2.11Z"/>
      <circle class="cls-2" cx="10.4" cy="4.37" r=".16"/>
      <path class="cls-10" d="M2.87,19.06c-.68.4-2.76,2.05-2.62,3.15.22,1.04,1.45.06,1.91-.56.24-.22,1.73-2.6,1.09-1.43-.17.5-1.53,2.58-.42,2.49.99-.42,1.72-2.12,1.55-3.13"/>
    </g>
  </g>
</svg>