<?xml version="1.0" encoding="UTF-8"?>
<svg id="Layer_2" data-name="Layer 2" xmlns="http://www.w3.org/2000/svg" xmlns:xlink="http://www.w3.org/1999/xlink" viewBox="0 0 22.52 20.8">
  <defs>
    <style>
      .cls-1 {
        fill: url(#linear-gradient-3);
      }

      .cls-2 {
        fill: url(#linear-gradient-2);
      }

      .cls-3 {
        fill: url(#linear-gradient);
      }

      .cls-4 {
        stroke-width: .75px;
      }

      .cls-4, .cls-5 {
        fill: none;
        stroke: #422d1e;
        stroke-linecap: round;
        stroke-linejoin: round;
      }

      .cls-5 {
        stroke-width: .5px;
      }
    </style>
    <linearGradient id="linear-gradient" x1="14.8" y1="9.9" x2="23.09" y2="9.9" gradientTransform="translate(-1.28 -1.3) rotate(6.5) scale(1 .96) skewX(12.58)" gradientUnits="userSpaceOnUse">
      <stop offset="0" stop-color="#9bce7e"/>
      <stop offset=".96" stop-color="#e2ecb6"/>
    </linearGradient>
    <linearGradient id="linear-gradient-2" x1="3.2" y1="7.56" x2="18.32" y2="7.56" gradientTransform="matrix(1,0,0,1,0,0)" xlink:href="#linear-gradient"/>
    <linearGradient id="linear-gradient-3" x1="15.52" y1="9.93" x2="10.7" y2="11.52" gradientTransform="translate(-3.55 9.8) rotate(41.8) scale(1 -1)" xlink:href="#linear-gradient"/>
  </defs>
  <g id="Layer_1-2" data-name="Layer 1">
    <g>
      <path class="cls-3" d="M21.05,14.12c.07-.6-.58-1.3-.58-1.3,0,0,1.77-.47,1.9-1.32.17-1.13-1.82-1.31-1.82-1.31,0,0,2.45-1.04,1.89-2.46-1.32-3.33-7.79,2.77-7.79,2.77,1.23,2.26.56,2.71.56,2.71,0,0,5.63,2.74,5.85.92Z"/>
      <polyline class="cls-4" points="7.7 12.46 7.24 16.35 4.38 16.84"/>
      <polyline class="cls-4" points="5.33 18.53 7.24 16.35 7.63 18.81"/>
      <polyline class="cls-4" points="12.71 14.04 12.93 17.95 10.35 18.96"/>
      <polyline class="cls-4" points="11.43 20.43 12.93 17.95 13.46 20.16"/>
      <circle class="cls-2" cx="10.76" cy="7.56" r="7.56"/>
      <path class="cls-5" d="M4.16,7.27c-.61-.4-2.84-1.42-3.68-.76-.76.69.57,1.27,1.26,1.4.26.05,1.74.17,1.94.22,0,0-2.76-.16-2.53.87.19.86,2.49.4,3.26-.23"/>
      <path class="cls-1" d="M11.39,8.84c.81-.01,4.34.77,4.75,1.87.31,1.09-1.04,1.29-1.76.97-.32-.06.99.7-.05,1.24-1.1.17-3.26-1.2-3.79-2.73-.01-.05-.15-.59.21-1,.24-.27.55-.33.64-.35Z"/>
      <path class="cls-5" d="M7.88,6.06c-.16-.01-.29-.08-.51-.23,0,.43-.38.81-.85.77-.22-.02-.39-.09-.53-.22"/>
    </g>
  </g>
</svg>