<?xml version="1.0" encoding="UTF-8"?>
<svg id="Layer_2" data-name="Layer 2" xmlns="http://www.w3.org/2000/svg" xmlns:xlink="http://www.w3.org/1999/xlink" viewBox="0 0 26.8 26.8">
  <defs>
    <style>
      .cls-1 {
        fill: none;
      }

      .cls-2 {
        fill: url(#linear-gradient-5);
      }

      .cls-3 {
        fill: url(#linear-gradient-6);
      }

      .cls-4 {
        fill: url(#linear-gradient-4);
      }

      .cls-5 {
        fill: url(#linear-gradient-3);
      }

      .cls-6 {
        fill: url(#linear-gradient-2);
      }

      .cls-7 {
        fill: url(#linear-gradient);
      }

      .cls-8 {
        fill: #422d1e;
      }
    </style>
    <linearGradient id="linear-gradient" x1="1.94" y1="16.24" x2="6.64" y2="16.24" gradientUnits="userSpaceOnUse">
      <stop offset="0" stop-color="#9bce7e"/>
      <stop offset=".2" stop-color="#9fcd7d"/>
      <stop offset=".4" stop-color="#abcd7a"/>
      <stop offset=".6" stop-color="#bfcd75"/>
      <stop offset=".8" stop-color="#dccc6e"/>
      <stop offset="1" stop-color="#fc6"/>
    </linearGradient>
    <linearGradient id="linear-gradient-2" x1="16.62" y1="8.25" x2="25.41" y2="8.25" gradientUnits="userSpaceOnUse">
      <stop offset="0" stop-color="#9bce7e"/>
      <stop offset=".26" stop-color="#b0cd78"/>
      <stop offset=".8" stop-color="#e8cc6b"/>
      <stop offset="1" stop-color="#fc6"/>
    </linearGradient>
    <linearGradient id="linear-gradient-3" x1="4.71" y1="13.4" x2="19.83" y2="13.4" xlink:href="#linear-gradient"/>
    <linearGradient id="linear-gradient-4" x1="16.62" y1="16.51" x2="22.4" y2="16.51" xlink:href="#linear-gradient"/>
    <linearGradient id="linear-gradient-5" x1="2.23" y1="8.13" x2="4.53" y2="8.13" xlink:href="#linear-gradient"/>
    <linearGradient id="linear-gradient-6" x1="-50.99" y1="-13.17" x2="-50.24" y2="-13.17" gradientTransform="translate(55.7 8.97) rotate(-16.08)" xlink:href="#linear-gradient"/>
  </defs>
  <g id="Layer_1-2" data-name="Layer 1">
    <g>
      <circle class="cls-1" cx="13.4" cy="13.4" r="13.4"/>
      <g>
        <g>
          <path class="cls-7" d="M6.64,15.71c-.38.71-1.87,2.95-3.04,2.78-1.1-.25-.62-1.54,0-2.01.21-.25-1.62.45-1.67-.51-.08-1.41,3.65-1.04,4.41-2"/>
          <path class="cls-6" d="M20.13,4.53c.45.32.42,1.28.42,1.28,0,0,.84-.91,1.87-.29.89.53.04,1.77.04,1.77,0,0,2.47-.26,2.84.27,1.16,1.66-6.74,4.54-6.74,4.54-.76-2.21-1.93-3.19-1.93-3.19,0,0,2.13-5.35,3.5-4.37Z"/>
          <path class="cls-8" d="M7.45,23.67c-.15,0-.3-.1-.35-.25-.07-.2.03-.41.23-.48l1.97-.69-.2-3.63c-.01-.21.15-.38.35-.39.19-.03.38.15.4.35l.22,3.91c0,.17-.09.32-.25.37l-2.24.78s-.08.02-.12.02Z"/>
          <path class="cls-8" d="M8.19,25.37c-.07,0-.13-.02-.19-.05-.18-.11-.23-.34-.13-.51l1.49-2.48c.08-.13.23-.2.38-.18.15.02.27.13.31.28l.58,2.34c.05.2-.07.4-.27.46-.2.05-.4-.07-.45-.27l-.36-1.46-1.03,1.71c-.07.12-.19.18-.32.18Z"/>
          <path class="cls-8" d="M13.3,23.9c-.15,0-.28-.08-.34-.23-.08-.19,0-.41.2-.49l2.13-.91-.2-3.65c-.01-.21.15-.38.35-.39.21-.03.38.15.4.35l.22,3.91c0,.16-.08.3-.23.37l-2.37,1.01s-.1.03-.15.03Z"/>
          <path class="cls-8" d="M14.17,25.37c-.07,0-.13-.02-.19-.05-.18-.11-.23-.34-.13-.51l1.49-2.48c.08-.13.24-.21.39-.17.16.03.27.16.3.31l.35,2.29c.03.21-.11.4-.31.43-.2.04-.4-.11-.43-.31l-.2-1.27-.96,1.59c-.07.12-.19.18-.32.18Z"/>
          <circle class="cls-5" cx="12.27" cy="13.4" r="7.56"/>
          <path class="cls-8" d="M9.81,16.29s-.05,0-.07,0c-.31-.01-.53-.11-.65-.28-.11-.16-.13-.33-.07-.5.09-.25.36-.5.83-.74-.07,0-.13,0-.17,0-.41.03-1.49-.09-1.8-.66-.1-.18-.16-.47.11-.84.87-1.02,3.59-.27,4.05-.09.13.05.19.2.14.32-.05.13-.2.19-.32.14-.79-.31-2.94-.71-3.48-.07-.13.18-.08.27-.07.29.14.26.88.44,1.38.4.15.02.69-.06,1.03-.11,1.02-.15,1.12-.16,1.18.1.06.25-.19.33-.48.42-1.24.39-1.87.78-1.95.99.02.07.09.12.27.12.69,0,2.09-.5,2.53-1.05.09-.11.24-.13.35-.04.11.09.13.24.04.35-.54.68-2.03,1.24-2.87,1.24Z"/>
          <path class="cls-8" d="M7.95,10.47c-.07,0-.15-.03-.2-.09-.09-.11-.07-.27.04-.35.25-.2.56-.3.82-.26.19.02.36.11.46.25.09.11.07.27-.04.35-.11.08-.27.07-.35-.04-.03-.04-.09-.06-.13-.06-.14,0-.31.05-.46.16-.05.04-.1.05-.16.05Z"/>
          <path class="cls-8" d="M15.06,10.06c-.08,0-.15-.03-.2-.1-.32-.42-.46-.55-1.04-.3-.12.06-.27,0-.33-.13-.06-.13,0-.27.13-.33.82-.36,1.19-.13,1.63.45.08.11.06.27-.05.35-.05.03-.1.05-.15.05Z"/>
          <g>
            <circle class="cls-8" cx="13.4" cy="11.53" r=".32"/>
            <path class="cls-8" d="M13.4,12.1c-.32,0-.57-.26-.57-.57s.26-.57.57-.57.57.26.57.57-.26.57-.57.57ZM13.4,11.45s-.07.03-.07.07c0,.08.15.08.15,0,0-.04-.03-.07-.07-.07Z"/>
          </g>
          <g>
            <path class="cls-8" d="M8.42,11.82c-.18,0-.32-.14-.32-.32s.14-.32.32-.32.32.14.32.32-.14.32-.32.32Z"/>
            <path class="cls-8" d="M8.42,12.07c-.32,0-.57-.26-.57-.57s.26-.57.57-.57.57.26.57.57-.26.57-.57.57ZM8.42,11.42s-.07.03-.07.07c0,.08.15.08.15,0,0-.04-.03-.07-.07-.07Z"/>
          </g>
          <path class="cls-4" d="M18.27,14.84c2.21.42,2.72-.68,3.57.29.52.83-.74,1.24-.4,1.44.87.29,1.46,1.05.36,1.67-1.19.56-4.09-.42-4.8-1.04-.45-.42-.44-1.37-.29-1.99.21-.9,1-.54,1.56-.37Z"/>
        </g>
        <path class="cls-2" d="M3.55,9.44s-.08-.01-.12-.03c-.09-.05-.14-.15-.13-.25,0,0,.06-.56.1-.71.03-.13.06-.26.04-.38-.01-.07-.06-.14-.11-.15-.06-.01-.17.03-.28.09-.04.02-.09.04-.13.06-.08.04-.22.08-.37.05-.22-.06-.37-.28-.34-.52.02-.15.1-.29.24-.42.34-.33.88-.45,1.34-.3.38.12.65.41.71.74.03.15,0,.3-.01.41-.07.41-.64,1.23-.8,1.36-.04.04-.1.05-.15.05Z"/>
        <ellipse class="cls-3" cx="3.42" cy="10.33" rx=".38" ry=".37"/>
      </g>
    </g>
  </g>
</svg>