<?xml version="1.0" encoding="UTF-8"?>
<svg id="Layer_2" data-name="Layer 2" xmlns="http://www.w3.org/2000/svg" xmlns:xlink="http://www.w3.org/1999/xlink" viewBox="0 0 24.78 22.61">
  <defs>
    <style>
      .cls-1 {
        fill: url(#linear-gradient-4);
      }

      .cls-2 {
        fill: url(#linear-gradient-3);
      }

      .cls-3 {
        fill: url(#linear-gradient-2);
      }

      .cls-4 {
        fill: url(#linear-gradient);
      }

      .cls-5 {
        fill: url(#linear-gradient-5);
        stroke: url(#linear-gradient-6);
      }

      .cls-5, .cls-6, .cls-7 {
        stroke-width: .75px;
      }

      .cls-5, .cls-6, .cls-7, .cls-8, .cls-9 {
        stroke-linejoin: round;
      }

      .cls-6 {
        fill: url(#linear-gradient-7);
        stroke: url(#linear-gradient-8);
      }

      .cls-7, .cls-8 {
        fill: none;
      }

      .cls-7, .cls-8, .cls-9 {
        stroke: #422d1e;
        stroke-linecap: round;
      }

      .cls-8, .cls-9 {
        stroke-width: .5px;
      }

      .cls-9 {
        fill: #422d1e;
      }
    </style>
    <linearGradient id="linear-gradient" x1="14.12" y1="-7.62" x2="23.39" y2="-7.62" gradientTransform="translate(1.31 12.66) rotate(.53) scale(1.01 1.07) skewX(1.09)" gradientUnits="userSpaceOnUse">
      <stop offset="0" stop-color="#fc6"/>
      <stop offset=".43" stop-color="#ed9047"/>
      <stop offset=".81" stop-color="#e0612f"/>
      <stop offset="1" stop-color="#db5026"/>
    </linearGradient>
    <linearGradient id="linear-gradient-2" x1="-80.12" y1="-545.44" x2="-72.79" y2="-545.44" gradientTransform="translate(-150 -643.47) rotate(-11.23) scale(1.04 -1.24) skewX(-11.92)" xlink:href="#linear-gradient"/>
    <linearGradient id="linear-gradient-3" x1="92.02" y1="-56.07" x2="97.47" y2="-56.07" gradientTransform="translate(-125.02 52.23) rotate(12.87) scale(1.12 1.26) skewX(-7.32)" xlink:href="#linear-gradient"/>
    <linearGradient id="linear-gradient-4" x1="4.56" y1="10.64" x2="19.68" y2="10.64" gradientTransform="matrix(1,0,0,1,0,0)" xlink:href="#linear-gradient"/>
    <linearGradient id="linear-gradient-5" x1="4.03" y1="2.6" x2="4.76" y2="2.6" gradientTransform="matrix(1,0,0,1,0,0)" xlink:href="#linear-gradient"/>
    <linearGradient id="linear-gradient-6" x1="3.66" y1="2.6" x2="5.13" y2="2.6" gradientTransform="matrix(1,0,0,1,0,0)" xlink:href="#linear-gradient"/>
    <linearGradient id="linear-gradient-7" x1="4.04" y1="5.25" x2="4.35" y2="5.25" gradientTransform="matrix(1,0,0,1,0,0)" xlink:href="#linear-gradient"/>
    <linearGradient id="linear-gradient-8" x1="3.66" y1="5.25" x2="4.73" y2="5.25" gradientTransform="matrix(1,0,0,1,0,0)" xlink:href="#linear-gradient"/>
  </defs>
  <g id="Layer_1-2" data-name="Layer 1">
    <g>
      <g>
        <path class="cls-4" d="M22.54,6.31c-1.93,1.6-4.42,3.06-4.42,3.06-1.21-2.52-2.65-3.5-2.65-3.5,0,0,1.36-6.72,3.01-5.77.54.31.68,1.46.68,1.46,0,0,.75-1.22,1.97-.64,1.05.49.36,2.1.36,2.1,0,0,2.62-.7,3.11-.14.69.8-.5,2.16-2.04,3.43"/>
        <path class="cls-3" d="M18.79,11.33c.36-.76,3.26-4.15,4.58-3.72,1.26.51,1.29,2.17-.3,3.03,0,0,.83.39.83,1.48,0,1.79-3.4,1.66-5.78,1.46"/>
        <path class="cls-2" d="M5.41,9.57c-.42-.8-3.31-4.25-4.68-3.86-1.3.48-.6,2.5.11,2.98C.84,8.69,0,9.26.11,10.21c.23,1.92,2.87,1.57,4.34,1.18"/>
        <polyline class="cls-7" points="9.32 15.84 9.54 19.75 7.22 20.56"/>
        <polyline class="cls-7" points="8.04 22.23 9.54 19.75 10.01 22.01"/>
        <polyline class="cls-7" points="13.88 15.84 13.67 19.75 16.2 20.76"/>
        <polyline class="cls-7" points="15.16 22.23 13.67 19.75 12.98 21.79"/>
        <circle class="cls-1" cx="12.12" cy="10.64" r="7.56"/>
        <path class="cls-8" d="M11.76,10.64c-.74-.27-3.49-1.04-4.25-.22-.66.83,1.04,1.31,1.81,1.33,1.52.05,1.87-.17,2.11-.17.08,0-3.05.78-2.44,1.64s2.6-.45,3.28-1.23"/>
        <path class="cls-8" d="M8.44,7.21c.35,0,.64.23.64.52"/>
        <path class="cls-8" d="M13.57,7.21c-.3,0-.55.23-.55.52"/>
        <circle class="cls-9" cx="8.44" cy="8.72" r=".32"/>
        <circle class="cls-9" cx="13.74" cy="8.72" r=".32"/>
      </g>
      <path class="cls-5" d="M4.22,3.66c-.13-.51-.2-.62-.19-1.14,0-.39.12-1.06.49-.97.46.12.17,1.43-.31,2.11Z"/>
      <circle class="cls-6" cx="4.2" cy="5.25" r=".16"/>
    </g>
  </g>
</svg>