<?xml version="1.0" encoding="UTF-8"?>
<svg id="Layer_2" data-name="Layer 2" xmlns="http://www.w3.org/2000/svg" xmlns:xlink="http://www.w3.org/1999/xlink" viewBox="0 0 26.8 26.8">
  <defs>
    <style>
      .cls-1 {
        fill: none;
      }

      .cls-2 {
        fill: url(#linear-gradient-7);
      }

      .cls-3 {
        fill: url(#linear-gradient-5);
      }

      .cls-4 {
        fill: url(#linear-gradient-6);
      }

      .cls-5 {
        fill: url(#linear-gradient-4);
      }

      .cls-6 {
        fill: url(#linear-gradient-3);
      }

      .cls-7 {
        fill: url(#linear-gradient-2);
      }

      .cls-8 {
        fill: url(#linear-gradient);
      }

      .cls-9 {
        fill: #422d1e;
      }
    </style>
    <linearGradient id="linear-gradient" x1="-60.53" y1="-17.38" x2="-54.92" y2="-17.38" gradientTransform="translate(67.02 56.41) rotate(21.69) scale(.99) skewX(2.16)" gradientUnits="userSpaceOnUse">
      <stop offset="0" stop-color="#db5026"/>
      <stop offset="1" stop-color="#85251a"/>
    </linearGradient>
    <linearGradient id="linear-gradient-2" x1="69.85" y1="41.62" x2="75.46" y2="41.62" gradientTransform="translate(15.49 -71.97) rotate(67.6) scale(.92 .91) skewX(6.42)" xlink:href="#linear-gradient"/>
    <linearGradient id="linear-gradient-3" x1="3.8" y1="16.8" x2="18.92" y2="16.8" gradientTransform="translate(15.54 -5.07) rotate(42.49)" gradientUnits="userSpaceOnUse">
      <stop offset="0" stop-color="#db5026"/>
      <stop offset=".18" stop-color="#d44c25"/>
      <stop offset=".45" stop-color="#c04222"/>
      <stop offset=".76" stop-color="#a1331d"/>
      <stop offset="1" stop-color="#85251a"/>
    </linearGradient>
    <linearGradient id="linear-gradient-4" x1="12.02" y1="3.38" x2="13.75" y2="3.38" gradientTransform="matrix(1,0,0,1,0,0)" xlink:href="#linear-gradient-3"/>
    <linearGradient id="linear-gradient-5" x1="12.07" y1="6.14" x2="13.38" y2="6.14" gradientTransform="matrix(1,0,0,1,0,0)" xlink:href="#linear-gradient-3"/>
    <linearGradient id="linear-gradient-6" x1="14.79" y1="2.44" x2="16.52" y2="2.44" gradientTransform="matrix(1,0,0,1,0,0)" xlink:href="#linear-gradient-3"/>
    <linearGradient id="linear-gradient-7" x1="14.57" y1="5.07" x2="15.88" y2="5.07" gradientTransform="matrix(1,0,0,1,0,0)" xlink:href="#linear-gradient-3"/>
  </defs>
  <g id="Layer_1-2" data-name="Layer 1">
    <g>
      <circle class="cls-1" cx="13.4" cy="13.4" r="13.4"/>
      <g>
        <g>
          <path class="cls-8" d="M16.86,19.48c.72-.6,4.48-2.67,5.65-2.22,1.07.51,0,1.65-.89,1.97-.34.2,1.28.11.73,1.25-.87.93-3.7,1.22-5.29.55"/>
          <path class="cls-7" d="M7.56,11.04c.5-.78,2.16-4.71,1.73-5.8-.48-.98-1.43.22-1.68,1.11-.16.36-.14-1.24-1.12-.56-.78.97-.92,3.77-.29,5.24"/>
          <path class="cls-9" d="M15.92,9.7c-.08,0-.17-.03-.24-.08-.16-.13-.18-.37-.05-.53l2.48-3.03c.06-.08.15-.12.25-.13l2.66-.31c.21-.02.39.12.42.33.02.21-.12.39-.33.42l-2.51.29-2.38,2.91c-.07.09-.18.14-.29.14Z"/>
          <path class="cls-9" d="M18.45,6.58c-.07,0-.14-.02-.2-.06-.13-.08-.19-.24-.16-.39l.51-2.46c.04-.2.24-.33.44-.29.2.04.33.24.29.44l-.31,1.51,1.71-1.24c.17-.12.4-.08.52.08.12.17.08.4-.08.52l-2.5,1.81c-.07.05-.14.07-.22.07Z"/>
          <path class="cls-9" d="M18.96,13.08c-.1,0-.2-.04-.28-.12-.14-.15-.13-.39.03-.53l2.91-2.62c.07-.07.17-.09.26-.1l2.58.09c.21,0,.37.18.36.39,0,.21-.16.37-.39.36l-2.43-.09-2.8,2.52c-.07.06-.16.1-.25.1Z"/>
          <path class="cls-9" d="M21.92,10.37c-.09,0-.19-.04-.26-.1-.12-.11-.15-.28-.08-.43l1.01-2.22c.09-.19.31-.27.5-.19.19.09.27.31.19.5l-.56,1.24,1.78-.92c.18-.1.41-.02.5.16.1.18.02.41-.16.5l-2.74,1.42c-.05.03-.11.04-.17.04Z"/>
          <circle class="cls-6" cx="12.57" cy="14.99" r="7.56"/>
          <g>
            <ellipse class="cls-9" cx="7.57" cy="17.29" rx=".14" ry=".34" transform="translate(-2 1.02) rotate(-6.81)"/>
            <path class="cls-9" d="M7.62,17.99c-.1,0-.23-.04-.3-.1-.2-.16-.25-.43-.26-.55-.05-.41.13-.73.43-.77.32-.04.55.23.6.64.01.11.03.4-.13.59-.06.08-.2.16-.3.17h0s0,0,0,0h0s-.02,0-.03,0ZM7.42,17.3s.09.03.15.02c.06,0,.11-.03.15-.06-.04-.02-.1-.03-.16-.02,0,0,0,0,0,0-.06,0-.11.03-.15.06ZM7.56,17.25h0,0Z"/>
          </g>
          <path class="cls-9" d="M6.6,17.04c-.07,0-.13-.03-.18-.08-.4-.41-.44-1.02-.09-1.35.1-.09.26-.09.35,0,.1.1.09.26,0,.35-.14.14-.09.43.11.64.1.1.09.26,0,.35-.05.05-.11.07-.17.07Z"/>
        </g>
        <path class="cls-5" d="M12.71,4.94s-.06,0-.09,0c-.19-.03-.35-.18-.4-.37l-.06-.24c-.09-.34-.15-.54-.14-1.04,0-.29.06-1,.48-1.31.19-.14.41-.18.64-.13.25.07.43.24.53.5.22.61-.11,1.75-.55,2.38-.09.14-.25.21-.41.21Z"/>
        <path class="cls-3" d="M12.73,6.8c-.36,0-.66-.29-.66-.66s.29-.66.66-.66.66.29.66.66-.29.66-.66.66Z"/>
        <path class="cls-4" d="M15.48,4s-.06,0-.09,0c-.19-.03-.35-.18-.4-.37l-.06-.24c-.09-.34-.15-.54-.14-1.04,0-.29.06-1,.48-1.31.19-.14.41-.19.64-.12.25.06.43.24.53.5.23.61-.11,1.74-.55,2.38-.09.14-.25.21-.41.21Z"/>
        <path class="cls-2" d="M15.22,5.73c-.36,0-.66-.29-.66-.66s.29-.66.66-.66.66.29.66.66-.29.66-.66.66Z"/>
        <path class="cls-9" d="M7.36,23.65c-.29,0-.44-.13-.51-.24-.12-.18-.13-.42-.06-.72-.36.41-1.07,1.02-1.65.9-.2-.04-.45-.19-.54-.64-.18-1.36,2.28-3.14,2.73-3.41.12-.07.27-.03.34.09.07.12.03.27-.09.34-.8.47-2.61,2.03-2.5,2.9.04.21.13.23.16.23.3.06.96-.45,1.31-.91.13-.12.53-.72.77-1.07.57-.84.59-.88.81-.74.22.13.12.31-.07.65-.03.09-.12.28-.25.52-.17.34-.7,1.37-.56,1.58,0,0,.04.02.11.02.86-.4,1.51-1.95,1.36-2.84-.02-.14.07-.26.21-.29.14-.02.26.07.29.21.18,1.1-.58,2.93-1.7,3.4-.02,0-.05.02-.08.02-.03,0-.06,0-.09,0Z"/>
      </g>
    </g>
  </g>
</svg>