<?xml version="1.0" encoding="UTF-8"?>
<svg id="Layer_2" data-name="Layer 2" xmlns="http://www.w3.org/2000/svg" xmlns:xlink="http://www.w3.org/1999/xlink" viewBox="0 0 22.85 35.3">
  <defs>
    <style>
      .cls-1 {
        fill: url(#linear-gradient);
      }

      .cls-2 {
        fill: #422d1e;
      }
    </style>
    <linearGradient id="linear-gradient" x1="19.01" y1="3.4" x2="4.73" y2="28.13" gradientUnits="userSpaceOnUse">
      <stop offset="0" stop-color="#6a9ad1"/>
      <stop offset=".02" stop-color="#6e9acc"/>
      <stop offset=".26" stop-color="#9f9e98"/>
      <stop offset=".49" stop-color="#c6a16f"/>
      <stop offset=".7" stop-color="#e2a351"/>
      <stop offset=".87" stop-color="#f3a43f"/>
      <stop offset="1" stop-color="#faa539"/>
    </linearGradient>
  </defs>
  <g id="Layer_1-2" data-name="Layer 1">
    <path class="cls-2" d="M13.08,35.18c.94.13,3.32.27,4.09-.25.71-.48.91-2.4-.16-3.02-.85-.49-2.29-.11-2.89.3l-.37-3.55-1.34.17s-.06,6.25.67,6.35Z"/>
    <path class="cls-2" d="M9.76,35.18c-.94.13-3.32.27-4.09-.25-.71-.48-.91-2.4.16-3.02.85-.49,2.29-.11,2.89.3l.37-3.55,1.34.17s.06,6.25-.67,6.35Z"/>
    <path class="cls-1" d="M22.85,15.73c0,8.28-3.23,14.25-11.42,14.25S0,24.01,0,15.73C0,9.12,5.98,0,11.43,0s11.42,8.68,11.42,15.73Z"/>
    <ellipse class="cls-2" cx="11.92" cy="17.59" rx="1.48" ry="1.89"/>
    <path class="cls-2" d="M6.14,10.13c.4.17,1.33,1.03,1.83,1.38.41.36,1.51,1.07,1.47,1.3.08.18-.68.77-.98,1.08-.7.62-1.65,1.65-2.32,2.14-.04-.02-.05-.17-.05-.38-.09-.81.5-1.11,1.09-1.62.41-.39.94-.61.1-.58-.27,0-.68.02-.9-.02-.21-.03-.26-.22-.27-.44-.1-.8,1.32-.3,1.6-.5-.26-.44-1.5-.87-1.58-1.49-.03-.22-.04-.62-.01-.82l.02-.05Z"/>
    <path class="cls-2" d="M17.2,10.13c-.4.17-1.33,1.03-1.83,1.38-.41.36-1.51,1.07-1.47,1.3-.08.18.68.77.98,1.08.7.62,1.65,1.65,2.32,2.14.04-.02.05-.17.05-.38.09-.81-.5-1.11-1.09-1.62-.41-.39-.94-.61-.1-.58.27,0,.68.02.9-.02.21-.03.26-.22.27-.44.1-.8-1.32-.3-1.6-.5.26-.44,1.5-.87,1.58-1.49.03-.22.04-.62.01-.82l-.02-.05Z"/>
  </g>
</svg>