<?xml version="1.0" encoding="UTF-8"?>
<svg id="Layer_2" data-name="Layer 2" xmlns="http://www.w3.org/2000/svg" xmlns:xlink="http://www.w3.org/1999/xlink" viewBox="0 0 27.03 36.3">
  <defs>
    <style>
      .cls-1 {
        stroke: url(#linear-gradient-2);
      }

      .cls-1, .cls-2, .cls-3 {
        fill: none;
        stroke-linecap: round;
        stroke-linejoin: round;
      }

      .cls-2 {
        stroke: url(#linear-gradient-3);
      }

      .cls-3 {
        stroke: url(#linear-gradient-4);
      }

      .cls-4 {
        fill: url(#linear-gradient);
      }

      .cls-5 {
        fill: #fdfefe;
        stroke: #422d1e;
        stroke-miterlimit: 10;
        stroke-width: .75px;
      }

      .cls-6 {
        fill: #422d1e;
      }
    </style>
    <linearGradient id="linear-gradient" x1="15.6" y1="1.01" x2="15.6" y2="30.99" gradientUnits="userSpaceOnUse">
      <stop offset="0" stop-color="#f6a5bf"/>
      <stop offset=".28" stop-color="#ed84a4"/>
      <stop offset=".88" stop-color="#d63262"/>
      <stop offset="1" stop-color="#d22154"/>
    </linearGradient>
    <linearGradient id="linear-gradient-2" x1="4.37" y1="5.65" x2="6.69" y2="5.65" gradientUnits="userSpaceOnUse">
      <stop offset="0" stop-color="#f6a5bf"/>
      <stop offset=".07" stop-color="#f195b2"/>
      <stop offset=".27" stop-color="#e66c90"/>
      <stop offset=".47" stop-color="#dd4b76"/>
      <stop offset=".67" stop-color="#d73463"/>
      <stop offset=".85" stop-color="#d32557"/>
      <stop offset="1" stop-color="#d22154"/>
    </linearGradient>
    <linearGradient id="linear-gradient-3" x1="2.27" y1="4.57" x2="5.79" y2="4.57" xlink:href="#linear-gradient-2"/>
    <linearGradient id="linear-gradient-4" x1="0" y1="3.11" x2="6.14" y2="3.11" xlink:href="#linear-gradient-2"/>
  </defs>
  <g id="Layer_1-2" data-name="Layer 1">
    <path class="cls-6" d="M17.26,36.19c.94.13,3.32.27,4.09-.25.71-.48.91-2.4-.16-3.02-.85-.49-2.29-.11-2.89.3l-.37-3.55-1.34.17s-.06,6.25.67,6.35Z"/>
    <path class="cls-6" d="M13.94,36.19c-.94.13-3.32.27-4.09-.25-.71-.48-.91-2.4.16-3.02.85-.49,2.29-.11,2.89.3l.37-3.55,1.34.17s.06,6.25-.67,6.35Z"/>
    <path class="cls-4" d="M27.03,16.74c0,8.28-3.23,14.25-11.42,14.25s-11.43-5.97-11.43-14.25C4.18,10.13,10.16,1.01,15.61,1.01s11.42,8.68,11.42,15.73Z"/>
    <ellipse class="cls-6" cx="16.1" cy="18.6" rx="1.48" ry="1.89"/>
    <path class="cls-6" d="M21.38,11.13c-.4.17-1.33,1.03-1.83,1.38-.41.36-1.51,1.07-1.47,1.3-.08.18.68.77.98,1.08.7.62,1.65,1.65,2.32,2.14.04-.02.05-.17.05-.38.09-.81-.5-1.11-1.09-1.62-.41-.39-.94-.61-.1-.58.27,0,.68.02.9-.02.21-.03.26-.22.27-.44.1-.8-1.32-.3-1.6-.5.26-.44,1.5-.87,1.58-1.49.03-.22.04-.62.01-.82l-.02-.05Z"/>
    <path class="cls-1" d="M5.03,6.62c-.17-.45-.24-.96-.03-1.39s.77-.7,1.19-.47"/>
    <path class="cls-2" d="M2.77,6.27c.02-1.51,1.08-2.95,2.52-3.41"/>
    <path class="cls-3" d="M.53,5.73c-.16-1.38.34-2.83,1.31-3.82S4.25.39,5.64.52"/>
    <ellipse class="cls-5" cx="12.07" cy="14.08" rx="1.61" ry="2.22"/>
    <circle class="cls-6" cx="11.27" cy="13.55" r="1.07"/>
  </g>
</svg>