<?xml version="1.0" encoding="UTF-8"?>
<svg id="Layer_2" data-name="Layer 2" xmlns="http://www.w3.org/2000/svg" xmlns:xlink="http://www.w3.org/1999/xlink" viewBox="0 0 22.85 35.3">
  <defs>
    <style>
      .cls-1 {
        fill: url(#linear-gradient);
      }

      .cls-2 {
        fill: #422d1e;
      }

      .cls-3 {
        fill: #fc6;
        stroke: #422d1e;
        stroke-miterlimit: 10;
        stroke-width: .5px;
      }
    </style>
    <linearGradient id="linear-gradient" x1="11.42" y1="29.98" x2="11.42" y2="0" gradientUnits="userSpaceOnUse">
      <stop offset="0" stop-color="#007a4c"/>
      <stop offset=".46" stop-color="#2bb673"/>
    </linearGradient>
  </defs>
  <g id="Layer_1-2" data-name="Layer 1">
    <path class="cls-2" d="M13.08,35.18c.94.13,3.32.27,4.09-.25.71-.48.91-2.4-.16-3.02-.85-.49-2.29-.11-2.89.3l-.37-3.55-1.34.17s-.06,6.25.67,6.35Z"/>
    <path class="cls-2" d="M9.76,35.18c-.94.13-3.32.27-4.09-.25-.71-.48-.91-2.4.16-3.02.85-.49,2.29-.11,2.89.3l.37-3.55,1.34.17s.06,6.25-.67,6.35Z"/>
    <path class="cls-1" d="M22.85,15.73c0,8.28-3.23,14.25-11.42,14.25S0,24.01,0,15.73C0,9.12,5.98,0,11.43,0s11.42,8.68,11.42,15.73Z"/>
    <path class="cls-2" d="M13.22,16.82c1-.15.08,1.99-1.85,1.99-1.79,0-2.81-2.09-1.81-1.99,1.26.13,2.58.16,3.66,0Z"/>
    <path class="cls-3" d="M17.41,15.73l-1.46-.82c-.12-.07-.26-.07-.38,0l-1.46.81c-.29.16-.64-.09-.57-.42l.33-1.64c.03-.13-.02-.27-.12-.36l-1.22-1.14c-.24-.23-.11-.64.22-.67l1.66-.19c.13-.02.25-.1.31-.22l.71-1.51c.14-.3.57-.3.71,0l.7,1.52c.06.12.17.21.31.22l1.66.21c.33.04.46.45.22.68l-1.23,1.13c-.1.09-.14.23-.12.36l.32,1.64c.06.33-.29.58-.58.41Z"/>
    <path class="cls-3" d="M9.09,15.73l-1.46-.82c-.12-.07-.26-.07-.38,0l-1.46.81c-.29.16-.64-.09-.57-.42l.33-1.64c.03-.13-.02-.27-.12-.36l-1.22-1.14c-.24-.23-.11-.64.22-.67l1.66-.19c.13-.02.25-.1.31-.22l.71-1.51c.14-.3.57-.3.71,0l.7,1.52c.06.12.17.21.31.22l1.66.21c.33.04.46.45.22.68l-1.23,1.13c-.1.09-.14.23-.12.36l.32,1.64c.06.33-.29.58-.58.41Z"/>
  </g>
</svg>