<?xml version="1.0" encoding="UTF-8"?>
<svg id="Layer_2" data-name="Layer 2" xmlns="http://www.w3.org/2000/svg" xmlns:xlink="http://www.w3.org/1999/xlink" viewBox="0 0 22.85 36.23">
  <defs>
    <style>
      .cls-1 {
        fill: url(#linear-gradient);
      }

      .cls-2 {
        fill: #fdfefe;
        stroke: #422d1e;
        stroke-miterlimit: 10;
        stroke-width: .75px;
      }

      .cls-3 {
        fill: #422d1e;
      }
    </style>
    <linearGradient id="linear-gradient" x1="19.01" y1="3.4" x2="4.73" y2="28.13" gradientUnits="userSpaceOnUse">
      <stop offset="0" stop-color="#f99d1e"/>
      <stop offset=".11" stop-color="#f5a045"/>
      <stop offset=".25" stop-color="#f2a46e"/>
      <stop offset=".4" stop-color="#efa791"/>
      <stop offset=".54" stop-color="#eca9ab"/>
      <stop offset=".69" stop-color="#ebabbe"/>
      <stop offset=".84" stop-color="#eaacca"/>
      <stop offset="1" stop-color="#eaadce"/>
    </linearGradient>
  </defs>
  <g id="Layer_1-2" data-name="Layer 1">
    <g>
      <path class="cls-3" d="M8.47,34.84c-.94.13-3.32.27-4.09-.25-.71-.48-.91-2.4.16-3.02.85-.49,2.29-.11,2.89.3l.37-3.55,1.34.17s.06,6.25-.67,6.35Z"/>
      <path class="cls-3" d="M13.92,36.11c-.94.13-3.32.27-4.09-.25-.71-.48-.91-2.4.16-3.02.85-.49,2.29-.11,2.89.3l.37-3.55,1.34.17s.06,6.25-.67,6.35Z"/>
      <path class="cls-1" d="M22.85,15.73c0,8.28-3.23,14.25-11.42,14.25S0,24.01,0,15.73C0,9.12,5.98,0,11.43,0s11.42,8.68,11.42,15.73Z"/>
      <path class="cls-3" d="M12.74,16.66c.72-.12.06,1.67-1.33,1.67-1.29,0-2.03-1.76-1.3-1.67.91.11,1.86.13,2.64,0Z"/>
      <g>
        <ellipse class="cls-2" cx="15.26" cy="12.83" rx="1.61" ry="2.22"/>
        <circle class="cls-3" cx="14.46" cy="12.3" r="1.07"/>
        <ellipse class="cls-2" cx="7.58" cy="13.13" rx="1.61" ry="2.22"/>
        <circle class="cls-3" cx="6.78" cy="12.6" r="1.07"/>
      </g>
    </g>
  </g>
</svg>