<?xml version="1.0" encoding="UTF-8"?>
<svg id="Layer_2" data-name="Layer 2" xmlns="http://www.w3.org/2000/svg" xmlns:xlink="http://www.w3.org/1999/xlink" viewBox="0 0 22.85 35.3">
  <defs>
    <style>
      .cls-1 {
        fill: #efd3ce;
      }

      .cls-1, .cls-2 {
        stroke: #422d1e;
        stroke-linecap: round;
        stroke-linejoin: round;
        stroke-width: .25px;
      }

      .cls-3 {
        fill: url(#linear-gradient);
      }

      .cls-4, .cls-2 {
        fill: #422d1e;
      }
    </style>
    <linearGradient id="linear-gradient" x1="11.42" y1="29.98" x2="11.42" y2="0" gradientUnits="userSpaceOnUse">
      <stop offset="0" stop-color="#f3e98d"/>
      <stop offset=".14" stop-color="#ede790"/>
      <stop offset=".31" stop-color="#dee499"/>
      <stop offset=".5" stop-color="#c5dfa9"/>
      <stop offset=".71" stop-color="#a2d8be"/>
      <stop offset=".92" stop-color="#76ceda"/>
      <stop offset="1" stop-color="#63cbe6"/>
    </linearGradient>
  </defs>
  <g id="Layer_1-2" data-name="Layer 1">
    <path class="cls-4" d="M13.08,35.18c.94.13,3.32.27,4.09-.25.71-.48.91-2.4-.16-3.02-.85-.49-2.29-.11-2.89.3l-.37-3.55-1.34.17s-.06,6.25.67,6.35Z"/>
    <path class="cls-4" d="M9.76,35.18c-.94.13-3.32.27-4.09-.25-.71-.48-.91-2.4.16-3.02.85-.49,2.29-.11,2.89.3l.37-3.55,1.34.17s.06,6.25-.67,6.35Z"/>
    <path class="cls-3" d="M22.85,15.73c0,8.28-3.23,14.25-11.42,14.25S0,24.01,0,15.73C0,9.12,5.98,0,11.43,0s11.42,8.68,11.42,15.73Z"/>
    <path class="cls-2" d="M14.47,18.96c-.56-.27-1.63-.68-3.04-.68s-2.48.42-3.04.68v-.69c.56-.26,1.64-.68,3.04-.68s2.48.42,3.04.68v.69Z"/>
    <path class="cls-4" d="M5.4,3.27c1.21.93,2.14,2.08,2.88,3.4,0,0-.12-.12-.12-.12l2.12,1.56.26.19c-.39.43-.8.86-1.21,1.27,0,0-.01-.23-.01-.23l.98,1.17s-.07.07-.07.07l-1.16-.99c-.16-.13-.11-.07-.01-.23.28-.4.55-.8.84-1.19l.06.41-2.29-1.29-.04-.02c-1.03-1.16-1.83-2.45-2.32-3.95,0,0,.08-.06.08-.06h0Z"/>
    <g>
      <rect class="cls-1" x="4.45" y="5.3" width="5.5" height="1.49" rx=".75" ry=".75" transform="translate(-2.19 5.57) rotate(-37.12)"/>
      <rect class="cls-1" x="6.4" y="5.29" width="1.62" height="1.49" transform="translate(-2.18 5.57) rotate(-37.12)"/>
      <circle class="cls-4" cx="8.94" cy="5.06" r=".1"/>
      <circle class="cls-4" cx="8.46" cy="5.42" r=".1"/>
      <circle class="cls-4" cx="8.14" cy="5" r=".1"/>
      <circle class="cls-4" cx="8.62" cy="4.64" r=".1"/>
      <circle class="cls-4" cx="8.55" cy="5.04" r=".1"/>
      <circle class="cls-4" cx="6.23" cy="7.11" r=".1"/>
      <circle class="cls-4" cx="5.75" cy="7.47" r=".1"/>
      <circle class="cls-4" cx="5.43" cy="7.05" r=".1"/>
      <circle class="cls-4" cx="5.91" cy="6.69" r=".1"/>
      <circle class="cls-4" cx="5.84" cy="7.09" r=".1"/>
    </g>
    <path class="cls-4" d="M5.9,10.51c.4.17,1.33,1.03,1.83,1.38.41.36,1.51,1.07,1.47,1.3.08.18-.68.77-.98,1.08-.7.62-1.65,1.65-2.32,2.14-.04-.02-.05-.17-.05-.38-.09-.81.5-1.11,1.09-1.62.41-.39.94-.61.1-.58-.27,0-.68.02-.9-.02-.21-.03-.26-.22-.27-.44-.1-.8,1.32-.3,1.6-.5-.26-.44-1.5-.87-1.58-1.49-.03-.22-.04-.62-.01-.82l.02-.05Z"/>
    <path class="cls-4" d="M16.95,10.51c-.4.17-1.33,1.03-1.83,1.38-.41.36-1.51,1.07-1.47,1.3-.08.18.68.77.98,1.08.7.62,1.65,1.65,2.32,2.14.04-.02.05-.17.05-.38.09-.81-.5-1.11-1.09-1.62-.41-.39-.94-.61-.1-.58.27,0,.68.02.9-.02.21-.03.26-.22.27-.44.1-.8-1.32-.3-1.6-.5.26-.44,1.5-.87,1.58-1.49.03-.22.04-.62.01-.82l-.02-.05Z"/>
  </g>
</svg>